<svg xmlns="http://www.w3.org/2000/svg" width="59.65" height="82.449" viewBox="0 0 59.65 82.449"><g transform="translate(-613.456 -1508.674)"><path d="M643.281,1574.009c-4.726,0-8.558,6.363-8.558,14.21a23.24,23.24,0,0,0,.18,2.9h16.756a23.442,23.442,0,0,0,.179-2.9C651.838,1580.372,648.007,1574.009,643.281,1574.009Z" fill="#30363d"/><path d="M641.053,1574.009c-3.5,0-6.33,6.363-6.33,14.21,0,1,.047,1.968.133,2.9h12.393c.086-.936.132-1.908.132-2.9C647.381,1580.372,644.548,1574.009,641.053,1574.009Z" fill="#484f59"/><path d="M635.2,1539.959c0,15.141-7.757,28.317-19.2,35.143-.342.319-.681.632-1.009.933-2.115,1.931-1.426,11.052-1.426,11.052h21.749v-52.768a29.6,29.6,0,0,1-.2,3.029C635.166,1538.213,635.2,1539.08,635.2,1539.959Z" fill="#484f59"/><path d="M635.312,1557.628a40.438,40.438,0,0,1-18.352,20.683c-.377.319-.748.632-1.108.933-1.413,1.177-1.685,5.019-1.683,7.843h21.143Z" fill="#cdd5d7"/><path d="M616.079,1586.018a3.027,3.027,0,0,0-.848,1.069h20.081v-17.464a43.951,43.951,0,0,1-17.975,15.463C616.91,1585.406,616.488,1585.718,616.079,1586.018Z" fill="#e5e8ec"/><path d="M651.361,1539.959c0,15.141,7.756,28.317,19.2,35.143.343.319.681.632,1.01.933,2.113,1.931,1.425,11.052,1.425,11.052H651.25v-52.768a29.6,29.6,0,0,0,.2,3.029C651.4,1538.213,651.361,1539.08,651.361,1539.959Z" fill="#484f59"/><path d="M651.25,1557.628a40.442,40.442,0,0,0,18.352,20.683c.376.319.748.632,1.108.933,1.413,1.177,1.685,5.019,1.682,7.843H651.25Z" fill="#cdd5d7"/><path d="M670.483,1586.018a3.016,3.016,0,0,1,.848,1.069H651.25v-17.464a43.95,43.95,0,0,0,17.975,15.463C669.652,1585.406,670.074,1585.718,670.483,1586.018Z" fill="#e5e8ec"/><path d="M651.8,1587.087v-54.55c0-4.994-3.71-21.195-8.523-23.863-4.813,2.668-8.523,18.869-8.523,23.863v54.55Z" fill="#e5e8ec"/><path d="M643.281,1508.674c-.049.026-.1.064-.145.094v78.319H651.8v-54.55C651.8,1527.543,648.094,1511.342,643.281,1508.674Z" fill="#cdd5d7"/><path d="M637.19,1519.814h12.181c-1.531-5.039-3.67-9.8-6.09-11.14C640.861,1510.015,638.721,1514.775,637.19,1519.814Z" fill="#484f59"/><path d="M643.136,1519.814h6.235c-1.531-5.039-3.67-9.8-6.09-11.14-.049.026-.1.064-.145.094Z" fill="#30363d"/><path d="M648.526,1528.849c-.35.8-1.51.5-2.87-.011a6.655,6.655,0,0,0-4.846,0c-1.359.505-2.519.809-2.87.011h0c-.358-.777.489-2.66,2.259-3.344a8.331,8.331,0,0,1,6.069,0c1.77.679,2.617,2.565,2.258,3.344Z" fill="#484f59"/><path d="M625.9,1574.009c-2.068,0-3.743,6.363-3.743,14.21,0,1,.026,1.968.078,2.9h7.331c.051-.936.078-1.908.078-2.9C629.643,1580.372,627.966,1574.009,625.9,1574.009Z" fill="#484f59"/><path d="M625.9,1574.009c-.539,0-1.051.441-1.514,1.222,1.7.926,3.007,6.461,3.007,13.17,0,.934-.025,1.843-.073,2.722h2.246c.051-.936.078-1.908.078-2.9C629.643,1580.372,627.966,1574.009,625.9,1574.009Z" fill="#30363d"/><path d="M660.662,1574.009c-2.067,0-3.744,6.363-3.744,14.21,0,1,.028,1.968.078,2.9h7.332c.051-.936.078-1.908.078-2.9C664.406,1580.372,662.73,1574.009,660.662,1574.009Z" fill="#484f59"/><path d="M660.662,1574.009c-.539,0-1.051.441-1.514,1.222,1.7.926,3.007,6.461,3.007,13.17,0,.934-.025,1.843-.073,2.722h2.246c.051-.936.078-1.908.078-2.9C664.406,1580.372,662.73,1574.009,660.662,1574.009Z" fill="#30363d"/></g></svg>