<svg id="Capa_1" enable-background="new 0 0 511.882 511.882" height="512" viewBox="0 0 511.882 511.882" width="512" xmlns="http://www.w3.org/2000/svg"><g><g><path d="m505.865 301.686c-9.629-14.909-28.075-20.975-44.544-14.928 1.287-6.347.398-12.987-2.637-18.838-4.19-8.079-11.73-13.355-20.111-14.929 4.037-8.193 7.399-16.557 9.964-25 1.12-3.686-.516-7.775-4.042-9.325-4.208-1.848-8.941.429-10.227 4.69-11.241 37.275-39.102 73.1-75.331 97.323l-12.295 4.061c.336-1.419.577-2.871.719-4.351.649-6.734-.905-13.561-4.451-19.322-5.02-8.154-13.137-13.442-22.442-14.755-27.725-3.912-55.497-10.735-82.9-16.357-25.242-5.176-40.967-8.092-46.577-7.742-7.034.451-13.512 2.739-19.55 5.854-.685-.992-1.369-1.985-2.028-2.988-17.121-26.051-25.945-54.311-25.52-81.726.399-25.697 12.288-48.755 33.477-64.925 13.523-10.32 30.363-16.003 47.417-16.003 28.966 0 50.812 18.812 59.937 51.612.992 3.566 4.463 5.925 8.237 5.423 3.007-.4 5.451-2.698 6.27-5.619 9.156-32.679 30.973-51.416 59.881-51.416 17.055 0 33.894 5.684 47.417 16.003 21.188 16.17 33.077 39.228 33.478 64.924.037 2.424.004 4.877-.1 7.293-.163 3.795 2.369 7.308 6.107 7.984 4.557.824 8.663-2.557 8.865-7.037.127-2.804.169-5.653.126-8.471-.473-30.39-14.457-57.6-39.376-76.616-16.122-12.304-36.193-19.08-56.517-19.08-29.435 0-53.515 15.928-67.162 43.514-13.646-27.586-37.726-43.514-67.161-43.514-20.323 0-40.395 6.776-56.517 19.079-24.92 19.017-38.903 46.227-39.375 76.617-.473 30.434 9.203 61.624 27.982 90.197.586.892 1.195 1.777 1.802 2.661-1.858 1.303-3.678 2.617-5.454 3.904-9.206 6.665-21.395 12.387-32.986 12.837-3.512.136-33.235-2.171-33.235-5.72v-5.822c0-12.652-10.256-22.908-22.908-22.908h-41.19c-12.652 0-22.908 10.256-22.908 22.907v11.488c0 4.107 3.165 7.688 7.27 7.811 4.248.127 7.73-3.278 7.73-7.497v-11.801c0-4.367 3.54-7.908 7.908-7.908h41.19c4.367 0 7.907 3.54 7.907 7.907v120.373c0 4.367-3.54 7.908-7.908 7.908h-41.19c-4.367 0-7.907-3.54-7.907-7.907v-73.055c0-4.107-3.165-7.688-7.27-7.811-4.248-.128-7.73 3.277-7.73 7.496v73.369c0 12.652 10.256 22.908 22.908 22.908h41.19c12.651 0 22.907-10.256 22.907-22.907v-9.531l53.441-3.119c.066-.004.134-.009.201-.015 11.64-.993 23.58.615 34.539 4.65 56.722 20.893 57.873 21.316 57.888 21.321 11.733 4.322 23.064 6.063 34.094 6.063 23.45-.001 45.521-7.877 67.09-15.575 4.908-1.752 9.984-3.563 14.99-5.25 22.039-7.426 44.771-14.176 66.755-20.703 24.353-7.231 74.626-23.401 74.908-23.54 12.03-5.91 16.764-13.396 19.616-23.731 2.854-10.335 1.155-21.429-4.662-30.435zm-75.47-33.872c5.925-1.303 12.102 1.475 14.975 7.013 1.838 3.543 2.028 7.695.523 11.391-1.505 3.697-4.542 6.535-8.424 7.818l-38.581 13.302c12.24-12.06 22.882-25.423 31.507-39.524zm65.673 60.315c-.314 1.139-.716 2.244-1.197 3.306-2.561 5.656-7.534 9.864-13.411 11.866-23.042 7.848-46.756 14.889-69.727 21.71-22.112 6.566-44.978 13.355-67.274 20.868-5.134 1.729-10.273 3.564-15.244 5.338-30.536 10.899-59.379 21.194-90.961 9.562-.329-.121-57.884-21.319-57.884-21.319-10.509-3.871-21.779-5.86-33.005-5.86-2.637 0-5.272.11-7.894.331l-52.467 3.063v-74.288c21.994 6.497 46.586 9.542 71.096-7.852 10.053-7.134 20.966-16.845 33.848-17.67 4.722-.302 32.224 5.337 42.591 7.464 27.694 5.68 55.496 10.965 83.244 16.426.176.035.354.063.532.084 20.853 2.448 16.847 35.393-4.417 32.561-.066-.009-.133-.017-.2-.024l-66.266-7.029c-4.425-.477-8.385 3.033-8.29 7.646.079 3.814 3.173 6.896 6.966 7.298l65.912 6.991c4.501.586 8.981.204 13.201-1.082.377-.063 139.848-46.117 140.071-46.203 10.191-4.39 21.949-.816 27.97 8.51 3.501 5.415 4.523 12.087 2.806 18.303z"/></g></g></svg>