<svg id="Capa_1" enable-background="new 0 0 512 512" height="512" viewBox="0 0 512 512" width="512" xmlns="http://www.w3.org/2000/svg"><g><g><path d="m508.258 134.438c-1.564-7.058-5.372-13.545-10.78-18.343-7.346-6.516-17.158-9.593-26.904-8.448-15.688 1.846-27.87 13.908-30.081 29.253-4.526-3.133-9.954-4.805-15.576-4.67-13.476.299-24.524 10.651-25.698 24.079-.008.092-.014.183-.019.275l-4.295 85.008c-4.027 2.132-7.606 5.241-10.338 9.258-12.033 15.806-42.63 55.557-46.155 59.85-25.23 30.718-32.899 59.089-23.446 86.737 10.235 29.929-4.753 80.59-11.955 104.936-.672 2.269-.233 4.721 1.183 6.616s3.642 3.011 6.008 3.011h106.749c2.166 0 4.225-.936 5.649-2.567 1.425-1.631 2.074-3.798 1.782-5.944-3.653-26.822-9.253-72.112-8.733-79.458.625-8.832 2.745-15.478 6.481-20.32 5.866-7.604 13.162-13.92 20.888-20.608 3.818-3.305 7.766-6.724 11.538-10.32 25.525-24.339 29.07-55.442 32.498-85.521.527-4.631 1.073-9.419 1.691-14.1 2.724-20.619 6.263-41.536 9.687-61.764 2.99-17.664 5.938-35.338 8.475-53.074 1.126-7.873 3.102-15.984 1.351-23.886zm-94.086 23.057c.562-5.735 5.303-10.142 11.078-10.27 3.297-.076 6.529 1.313 8.751 3.808 2.223 2.494 3.235 5.823 2.766 9.229l-10.961 83.708c-.415-.31-.84-.61-1.274-.9-4.454-2.976-9.443-4.542-14.441-4.814zm57.979 128.067c-3.268 28.685-6.356 55.779-27.946 76.364-3.51 3.348-7.151 6.499-11.005 9.836-7.945 6.877-16.159 13.989-22.946 22.785-5.596 7.255-8.726 16.552-9.567 28.422-.66 9.314 5.093 54.388 7.692 74.031h-88.168c8.031-27.965 19.415-73.809 8.948-104.418-7.74-22.634-1.116-45.628 20.845-72.365 3.924-4.778 35.541-45.887 46.628-60.455.094-.123.184-.249.269-.377 4.261-6.38 12.918-8.106 19.301-3.843 3.092 2.064 5.193 5.209 5.918 8.854.727 3.645-.011 7.355-2.075 10.446-.038.056-.074.112-.11.169l-31.779 50.464c-2.207 3.505-1.155 8.135 2.35 10.343 3.505 2.207 8.135 1.155 10.342-2.35l31.729-50.386c2.296-3.464 3.792-7.299 4.443-11.284.103-.35 18.122-130.622 18.133-130.846.455-9.551 7.677-17.293 17.174-18.411 5.586-.656 10.987 1.037 15.196 4.772 4.101 3.638 6.415 8.625 6.545 14.084-2.816 22.552-21.382 139.469-21.917 144.165z"/><path d="m196.963 397.437c9.454-27.648 1.785-56.02-23.445-86.737-3.598-4.381-33.808-43.63-46.155-59.85-2.732-4.017-6.311-7.126-10.338-9.258l-4.295-85.008c-.004-.092-.011-.183-.019-.275-1.174-13.428-12.222-23.779-25.698-24.079-5.627-.121-11.052 1.545-15.576 4.672-2.21-15.346-14.392-27.41-30.082-29.255-9.748-1.147-19.558 1.931-26.904 8.448-5.298 4.701-9.064 11.022-10.683 17.917-1.885 8.029.383 15.889 1.614 23.875 2.748 17.832 5.104 35.724 8.115 53.515 3.423 20.227 6.963 41.141 9.686 61.759.618 4.68 1.164 9.469 1.692 14.1 3.013 26.436 6.128 53.771 24.26 76.529 1.481 1.859 3.665 2.827 5.87 2.827 1.638 0 3.288-.535 4.668-1.635 3.24-2.581 3.773-7.299 1.192-10.538-15.448-19.39-18.188-43.43-21.089-68.882-.535-4.696-1.088-9.552-1.724-14.365-2.759-20.888-6.322-41.939-9.768-62.298-3.74-22.102-7.607-44.949-10.424-67.501.129-5.458 2.443-10.445 6.544-14.083 4.21-3.735 9.606-5.428 15.197-4.772 9.496 1.117 16.719 8.86 17.173 18.411.011.224 17.847 129.37 17.901 129.761.587 4.247 2.231 8.681 4.674 12.368l31.729 50.387c2.207 3.505 6.837 4.557 10.343 2.35 3.505-2.208 4.557-6.837 2.35-10.343l-31.778-50.464c-.036-.057-.073-.113-.11-.169-2.064-3.091-2.802-6.801-2.076-10.446s2.828-6.79 5.919-8.854c6.381-4.262 15.04-2.537 19.301 3.843.086.128.175.254.269.377 11.096 14.579 42.719 55.695 46.629 60.456 21.96 26.736 28.583 49.73 20.844 72.364-5.071 14.832-5.637 33.933-1.729 58.393 2.513 15.725 6.481 31.258 10.692 46.024h-88.182c2.599-19.644 8.352-64.717 7.691-74.032-.842-11.872-3.971-21.169-9.567-28.422-5.297-6.866-11.517-12.696-16.344-17.009-3.089-2.759-7.829-2.493-10.589.596s-2.493 7.83.596 10.589c4.615 4.123 9.942 9.128 14.462 14.986 3.734 4.84 5.854 11.487 6.481 20.32.521 7.345-5.08 52.636-8.733 79.458-.292 2.146.357 4.313 1.782 5.944 1.424 1.631 3.484 2.567 5.65 2.567h106.748c2.366 0 4.593-1.116 6.008-3.011s1.854-4.347 1.183-6.616c-7.202-24.344-22.19-75.004-11.955-104.934zm-109.566-154.366c-.435.29-.858.593-1.274.904l-5.246-37.964-5.728-45.845c-.457-3.31.555-6.638 2.778-9.132 2.223-2.495 5.429-3.883 8.753-3.808 5.775.128 10.516 4.534 11.078 10.27l4.081 80.762c-4.998.272-9.987 1.838-14.442 4.813z"/><path d="m366.93 189.051c2.022-3.615.732-8.184-2.882-10.207-3.614-2.021-8.184-.732-10.207 2.882-19.823 35.423-57.328 57.429-97.876 57.429-61.8 0-112.078-50.278-112.078-112.078s50.278-112.078 112.078-112.078 112.078 50.278 112.078 112.078c0 8.237-.896 16.45-2.664 24.411-.898 4.044 1.651 8.049 5.695 8.947 4.05.897 8.049-1.653 8.947-5.696 2.005-9.027 3.021-18.334 3.021-27.663 0-70.069-57.007-127.076-127.077-127.076-70.071 0-127.077 57.007-127.077 127.077s57.007 127.077 127.077 127.077c45.973 0 88.493-24.946 110.965-65.103z"/><path d="m255.965 37.771c-49.244 0-89.307 40.063-89.307 89.306s40.063 89.306 89.307 89.306c49.243 0 89.307-40.063 89.307-89.306 0-49.244-40.064-89.306-89.307-89.306zm0 163.613c-40.973 0-74.307-33.334-74.307-74.307s33.334-74.307 74.307-74.307 74.307 33.334 74.307 74.307-33.334 74.307-74.307 74.307z"/><path d="m291.416 104.853-15.269-2.219-6.828-13.836c-2.527-5.12-7.644-8.301-13.355-8.301-5.71 0-10.828 3.181-13.355 8.301l-6.773 13.828-15.324 2.227c-5.651.821-10.257 4.705-12.022 10.135-1.765 5.431-.321 11.28 3.768 15.266l11.058 10.715-2.617 15.262c-.965 5.628 1.305 11.209 5.924 14.566 2.611 1.897 5.665 2.86 8.74 2.86 2.367 0 4.746-.571 6.944-1.727l13.607-7.206 13.706 7.206c5.055 2.657 11.064 2.222 15.684-1.134s6.889-8.938 5.924-14.565l-2.608-15.208 11.047-10.769c4.09-3.985 5.534-9.835 3.77-15.266-1.763-5.43-6.369-9.314-12.021-10.135zm-13.305 25.47c-3.512 3.423-5.112 8.352-4.283 13.182l2.579 15.047-13.513-7.104c-2.17-1.141-4.55-1.711-6.929-1.711-2.38 0-4.76.57-6.93 1.711l-13.514 7.103 2.58-15.047c.829-4.833-.773-9.76-4.283-13.181l-10.932-10.658 15.108-2.195c4.851-.705 9.042-3.75 11.214-8.147l6.758-13.691 6.755 13.69c2.17 4.397 6.362 7.444 11.214 8.148l15.108 2.197z"/></g></g></svg>