<svg xmlns="http://www.w3.org/2000/svg" width="70.576" height="88.887" viewBox="0 0 70.576 88.887"><g transform="translate(-996.993 -1502.236)"><rect width="2" height="7.272" transform="translate(1030.743 1502.236)" fill="#fff"/><rect width="2" height="7.273" transform="matrix(0.866, -0.5, 0.5, 0.866, 1013.305, 1507.733)" fill="#fff"/><rect width="2.001" height="7.271" transform="matrix(0.5, -0.866, 0.866, 0.5, 1000.951, 1521.213)" fill="#fff"/><rect width="7.274" height="2" transform="translate(996.993 1537.062)" fill="#fff"/><rect width="7.274" height="1.999" transform="matrix(0.866, -0.5, 0.5, 0.866, 1001.491, 1554.77)" fill="#fff"/><rect width="7.273" height="1.999" transform="matrix(0.501, -0.866, 0.866, 0.501, 1014.236, 1567.85)" fill="#fff"/><rect width="2" height="7.274" transform="translate(1045.889 1562.014) rotate(-29.992)" fill="#fff"/><rect width="2" height="7.273" transform="translate(1056.311 1551.928) rotate(-59.996)" fill="#fff"/><rect width="7.273" height="2" transform="translate(1060.296 1535.984)" fill="#fff"/><rect width="7.274" height="2" transform="translate(1055.774 1522.182) rotate(-30.001)" fill="#fff"/><rect width="7.273" height="2" transform="matrix(0.5, -0.866, 0.866, 0.5, 1044.956, 1512.493)" fill="#fff"/><rect width="12.752" height="4.533" transform="translate(1030.112 1576.811)" fill="#231f20"/><rect width="4.535" height="49.489" transform="translate(1030.112 1541.635)" fill="#231f20"/><rect width="8.712" height="9.917" transform="translate(1031.036 1579.077)" fill="#231f20"/><path d="M1019.2,1529.59v9.917a3.967,3.967,0,0,0,3.967,3.967h18.418a3.966,3.966,0,0,0,3.966-3.967v-9.917a3.965,3.965,0,0,0-3.966-3.967h-18.418A3.966,3.966,0,0,0,1019.2,1529.59Zm21.82.566v8.784h-17.285v-8.784Z" fill="#231f20"/><path d="M1043.855,1540.072a2.837,2.837,0,0,1-2.831,2.835h-18.418a2.84,2.84,0,0,1-2.836-2.835v-9.916a2.839,2.839,0,0,1,2.836-2.833h18.418a2.836,2.836,0,0,1,2.831,2.833Zm-2.266.567V1529.59H1022.04v11.049Z" fill="#dde4e8"/><rect width="12.752" height="4.533" transform="translate(1030.112 1584.462)" fill="#231f20"/><rect width="8.217" height="2.267" transform="translate(1034.647 1586.727)" fill="#dde4e8"/><rect width="8.217" height="2.267" transform="translate(1034.647 1579.077)" fill="#dde4e8"/><rect width="2.268" height="49.489" transform="translate(1030.112 1541.635)" fill="#dde4e8"/></g></svg>