<svg xmlns="http://www.w3.org/2000/svg" width="54.76" height="83.715" viewBox="0 0 54.76 83.715"><g transform="translate(-211.575 -1507.408)"><path d="M227.96,1591.123h21.99a1.4,1.4,0,1,0,0-2.805H227.96a1.4,1.4,0,1,0,0,2.805Z" fill="#282d33"/><path d="M211.575,1534.788a27.38,27.38,0,1,1,54.76,0c0,.893-.656,13.548-10.971,26.831-3.02,4.011-2.524,12.066-2.495,12.066h-27.9c.027,0,.581-8.055-2.426-12.066C212.215,1548.324,211.575,1535.681,211.575,1534.788Z" fill="#acb9c4"/><path d="M230.17,1570.114c-.186-3.447-1.032-9.938-3.164-12.78-9.813-12.632-10.253-24.584-10.255-24.7a23.81,23.81,0,0,1,47.62.013c0,.1-.45,12.061-10.22,24.643-2.167,2.875-3.041,9.375-3.244,12.826Z" fill="#dde4e8"/><path d="M260.517,1536.922a2.142,2.142,0,0,1-2.142-2.142,19.439,19.439,0,0,0-19.422-19.414,2.141,2.141,0,1,1,0-4.283,23.728,23.728,0,0,1,23.706,23.7A2.141,2.141,0,0,1,260.517,1536.922Z" fill="#acb9c4"/><path d="M231.943,1575.8l-3.554-28.224,1.428-.429,3.555,28.223Z" fill="#484f59"/><path d="M245.885,1575.8l3.554-28.224-1.429-.429-3.555,28.223Z" fill="#484f59"/><path d="M248.271,1551.116c-.983,0-1.409-.959-1.718-1.661-.131-.29-.4-.9-.555-.9s-.423.606-.551.9c-.31.7-.738,1.661-1.72,1.661s-1.409-.959-1.719-1.661c-.071-.157-.183-.412-.3-.609-.5.93-1.415,2.27-2.528,2.27-.983,0-1.409-.959-1.72-1.661-.13-.29-.4-.9-.553-.9s-.423.606-.552.9c-.311.7-.737,1.661-1.721,1.661s-1.41-.959-1.722-1.661c-.13-.29-.4-.9-.555-.9s-.423.606-.554.9c-.311.7-.737,1.661-1.722,1.661v-1.28c.153,0,.425-.605.555-.9.312-.7.739-1.656,1.721-1.656s1.411.956,1.722,1.656c.131.294.4.9.555.9s.423-.605.553-.9c.311-.7.737-1.656,1.72-1.656s1.41.956,1.721,1.656c.13.294.4.9.552.9.377,0,1.182-1.037,1.688-2.176a.64.64,0,0,1,.585-.379c.982,0,1.408.957,1.719,1.656.129.294.4.9.551.9s.423-.6.551-.9c.311-.7.737-1.658,1.72-1.658s1.41.957,1.722,1.658c.129.293.4.9.551.9Z" fill="#484f59"/><path d="M252.9,1573.835v14.314a1.776,1.776,0,0,1-1.775,1.779h-24.3a1.779,1.779,0,0,1-1.777-1.779v-14.314Z" fill="#282d33"/><path d="M253.457,1576.619H224.452a1.4,1.4,0,0,1,0-2.806h29.005a1.4,1.4,0,0,1,0,2.806Z" fill="#282d33"/><path d="M240.632,1575.906H224.541a.778.778,0,1,1,0-1.555h16.091a.778.778,0,1,1,0,1.555Z" fill="#484f59"/><path d="M253.457,1581.3H224.452a1.4,1.4,0,0,1,0-2.807h29.005a1.4,1.4,0,0,1,0,2.807Z" fill="#282d33"/><path d="M253.457,1585.976H224.452a1.4,1.4,0,1,1,0-2.806h29.005a1.4,1.4,0,0,1,0,2.806Z" fill="#282d33"/><path d="M240.632,1580.37H224.541a.778.778,0,0,1,0-1.556h16.091a.778.778,0,1,1,0,1.556Z" fill="#484f59"/><path d="M240.632,1585.1H224.541a.779.779,0,0,1,0-1.557h16.091a.779.779,0,1,1,0,1.557Z" fill="#484f59"/><rect width="13.745" height="1.429" transform="translate(228.837 1576.627)" fill="#30363d"/><rect width="13.745" height="1.428" transform="translate(228.837 1581.18)" fill="#30363d"/><rect width="13.745" height="1.427" transform="translate(228.837 1585.734)" fill="#30363d"/></g></svg>