<svg xmlns="http://www.w3.org/2000/svg" viewBox="0 0 600.98 441.42"><defs><style>.cls-1{fill:#dde3e9;}.cls-13,.cls-2,.cls-8{fill:none;}.cls-2{stroke:#231f20;}.cls-12,.cls-13,.cls-2{stroke-miterlimit:10;}.cls-3{fill:#231f20;}.cls-4{fill:#d4a181;}.cls-5{fill:#f3f3f3;}.cls-6{opacity:0.5;}.cls-7{fill:#4389c8;}.cls-12,.cls-8{stroke:#000;}.cls-8{stroke-linecap:round;stroke-linejoin:round;stroke-width:2px;}.cls-9{fill:#ecc01c;}.cls-10{fill:#e0b0a7;}.cls-11{fill:#b7cde9;}.cls-12{fill:#fefefe;stroke-width:0.5px;}.cls-13{stroke:#f3f3f3;stroke-width:20px;}</style></defs><title>pair of coders</title><g id="Layer_2" data-name="Layer 2"><g id="Layer_1-2" data-name="Layer 1"><ellipse class="cls-1" cx="299.22" cy="233.39" rx="194" ry="269.5" transform="translate(27.51 498.31) rotate(-82.23)"/><polygon class="cls-2" points="44.1 52.77 46.55 57.73 52.02 58.52 48.06 62.38 48.99 67.83 44.1 65.26 39.21 67.83 40.15 62.38 36.19 58.52 41.66 57.73 44.1 52.77"/><polygon class="cls-2" points="59.76 39.01 61.3 42.13 64.75 42.63 62.25 45.06 62.84 48.49 59.76 46.87 56.68 48.49 57.27 45.06 54.77 42.63 58.22 42.13 59.76 39.01"/><circle class="cls-3" cx="64.1" cy="64.15" r="1.25"/><circle class="cls-3" cx="40.1" cy="33.15" r="1.25"/><circle class="cls-3" cx="71.1" cy="30.15" r="1.25"/><ellipse class="cls-4" cx="432.76" cy="233.28" rx="55.97" ry="60.52"/><rect class="cls-4" x="404.78" y="293.47" width="55.97" height="24.49"/><path class="cls-3" d="M348,354.21a22.47,22.47,0,0,1-1.29,11.1h2.89l-1.07-7.63c-.23-1.59-2.47-1.25-2.9,0a197.41,197.41,0,0,0-10.08,50q-.51,7.35-.46,14.71a1.5,1.5,0,0,0,3,0,194.16,194.16,0,0,1,6.26-50.09q1.83-7,4.18-13.85h-2.9l1.08,7.63c.23,1.62,2.43,1.2,2.89,0a25.3,25.3,0,0,0,1.29-12.7c-.28-1.9-3.17-1.09-2.89.8Z"/><polygon class="cls-5" points="501.31 374.42 545.31 363.42 545.31 439.42 395.31 441.42 501.31 374.42"/><polygon class="cls-2" points="547.47 394.1 549.92 399.06 555.38 399.85 551.43 403.71 552.36 409.16 547.47 406.58 542.58 409.16 543.51 403.71 539.56 399.85 545.02 399.06 547.47 394.1"/><polygon class="cls-2" points="563.13 383.33 564.67 386.46 568.12 386.96 565.62 389.39 566.21 392.82 563.13 391.2 560.04 392.82 560.63 389.39 558.14 386.96 561.59 386.46 563.13 383.33"/><circle class="cls-3" cx="567.47" cy="405.48" r="1.25"/><circle class="cls-3" cx="545.47" cy="381.48" r="1.25"/><circle class="cls-3" cx="572.47" cy="373.48" r="1.25"/><path class="cls-3" d="M345,366.29a15.54,15.54,0,0,1-1.95,4.55l2.79.76a13.59,13.59,0,0,1,1.16-4.67,46.63,46.63,0,0,1,2.55-4.72A1.5,1.5,0,0,0,347,360.7c-2,3.36-4,6.89-4.12,10.9a1.51,1.51,0,0,0,2.8.75,18.7,18.7,0,0,0,2.25-5.26,1.5,1.5,0,0,0-2.89-.8Z"/><polygon class="cls-2" points="554.1 100.78 556.55 105.73 562.01 106.53 558.06 110.38 558.99 115.83 554.1 113.26 549.21 115.83 550.14 110.38 546.19 106.53 551.66 105.73 554.1 100.78"/><polygon class="cls-2" points="575.76 93 577.3 96.13 580.75 96.63 578.25 99.06 578.84 102.49 575.76 100.87 572.68 102.49 573.26 99.06 570.77 96.63 574.22 96.13 575.76 93"/><polygon class="cls-2" points="579.47 129.17 581.01 132.3 584.46 132.8 581.96 135.23 582.55 138.66 579.47 137.04 576.38 138.66 576.97 135.23 574.48 132.8 577.93 132.3 579.47 129.17"/><circle class="cls-3" cx="573.6" cy="117.15" r="1.25"/><circle class="cls-3" cx="557.6" cy="83.15" r="1.25"/><circle class="cls-3" cx="584.6" cy="74.15" r="1.25"/><g id="Whiteboard_Stuff" data-name="Whiteboard Stuff" class="cls-6"><path id="Wireframy_Stuff-2" data-name="Wireframy Stuff-2" class="cls-7" d="M151.64,48.1c-2.2-1-2.15-2.1-1.25-3-.54-1.2-.45-3.16-.57-4.1a97,97,0,0,1-.79-11.8c0-7.79,0-15.88,2.15-23.41a1.94,1.94,0,0,1-1.38-1.74c0-3.94,12-3.85,18.13-3.75,1.28,0,2.3,0,2.92,0,4.36-.12,8.72-.13,13.08-.11.95,0,2-.06,3.12-.12a24.54,24.54,0,0,1,6.52.18c5.59,1.3,5.23,10.87,5.35,15.5a243,243,0,0,1-.59,25.32c-.23,2.86-2.31,6.49-4.69,2.54-1.32-2.2-.73-7.33-.73-9.76,0-8.64,1.34-17.53.05-26.12-.43-2.82-.33-3-3.2-2.95L182.94,5c-4.63.1-9.26.16-13.89.33-1.75.06-8.07,1.17-13,1.16,0,0,0,.08,0,.12.07,3.33-1.56,7.37-1.78,10.88-.54,8.42.1,17-.69,25.43,0,.25,0,.52-.05.8a3.34,3.34,0,0,1,.43-.05c3.67-.23,7.39-.14,11.07-.22,2.34-.06,4.71,0,7.1,0a133.44,133.44,0,0,0,15.74-.6c1.52-.2,2.05,1.76,1.37,2.77s-3.22,1.08-4.35,1.25a99.58,99.58,0,0,1-10.05.81c-3.52.16-7,.27-10.57.37-2,.06-5.76.65-8.84.65A9.84,9.84,0,0,1,151.64,48.1Z"/><path id="Wireframy_Stuff-3" data-name="Wireframy Stuff-3" class="cls-7" d="M219.52,47.09a1.47,1.47,0,0,1,.32-.92,6.22,6.22,0,0,1-1.42-2.51c-1.19-3.85-1.3-8-1.39-12-.19-8.52-.1-17-.15-25.58-.77-1-.31-2.22.65-3C220.14.82,227.64,1.38,231,1.21,235.71,1,240.47.9,245.24.88c5,0,10.1.06,15.14.22,1.87,0,14.88.38,9.06,3.54a6.29,6.29,0,0,1-1.11.45,19.15,19.15,0,0,1,.23,3.63c-.25,4.53-.35,9.08-.56,13.61q-.33,7.61-.61,15.2c-.09,2.68.83,8.91-1.3,10.84-1.43,1.3-2.4,1.05-3.06.16-3.64,1.06-10.71.87-15.19.67-1.76-.07-3.12-.15-3.72-.14-2,0-8.71.68-14.62.68C224.19,49.74,219.53,49.19,219.52,47.09Zm3.21-29c0,8.62.3,17.2.5,25.77,0,.28,0,.54,0,.79,4.12-.88,10.77-.72,15.09-.55,1.74.06,3.1.13,3.76.13,4.23,0,8.46,0,12.68.21.48,0,1.21,0,2.07,0a40.06,40.06,0,0,1,5,.1c0-.23,0-.44-.05-.62-.23-4.56,0-9.17.17-13.73s.37-9.19.55-13.79c.09-2.36-.51-7.3.14-10.7-3.07,0-6.29-.43-8.37-.43-4.86,0-9.72,0-14.58,0a140.9,140.9,0,0,0-15.78.86,8.5,8.5,0,0,0-1,.2C223.69,9.63,222.73,15,222.73,18.05Z"/><path id="Fill_135" data-name="Fill 135" class="cls-7" d="M171,47.83c-3.13,1.83-1.44,9.14-.36,11.67,1.78,4.15,5.4,7.41,9.3,9.56,7.88,4.36,19.24,3.2,25.2,10.77.07.07,2.13,2.11,2.59-.53.39-2.17-3.46-5.48-4.95-6.56-4.24-3.09-9.67-4.09-14.57-5.63C183,65.46,177.24,62.42,175,57c-.77-1.91.7-12-4-9.2"/><path id="Fill_137" data-name="Fill 137" class="cls-7" d="M242.5,51.35c-2.87.79-1,4.73-1,6.71a11.62,11.62,0,0,1-2.31,7c-3.85,5-11.39,5.74-17,7.16-4.11,1-13.92,3.27-14.31,8.82-.43,6.2,8.24-1.34,9-1.65,8.1-3,18.59-3.55,24.84-10.09a16,16,0,0,0,4.35-10c.14-2.09.16-8.93-3.52-7.92"/><path id="Fill_139" data-name="Fill 139" class="cls-7" d="M206.88,126h0a26.45,26.45,0,0,1-8.27-1.41,26.93,26.93,0,0,1-7.59-4,20.91,20.91,0,0,1-5.56-6.21,16.43,16.43,0,0,1-2.18-8.09,16.6,16.6,0,0,1,1.83-7.76A20.48,20.48,0,0,1,190,92.5a35.33,35.33,0,0,1,14.16-7.19,19.71,19.71,0,0,1,5.07-.66,19.05,19.05,0,0,1,12.93,5.09,21,21,0,0,1,1.75,28.67,21,21,0,0,1-7,5.36,22.94,22.94,0,0,1-9,2.24C207.54,126,207.21,126,206.88,126ZM190.52,99.1c-2.43,4.2-2.57,8.4-.39,12.18a17.28,17.28,0,0,0,7.39,6.57,23.36,23.36,0,0,0,10.25,2.45,16.7,16.7,0,0,0,7.07-1.44,14,14,0,0,0,7.1-7.38,16.55,16.55,0,0,0,.9-9.88,14,14,0,0,0-4.2-7.54,12.83,12.83,0,0,0-8.72-3.23,3,3,0,0,1,.68,2.07,1.5,1.5,0,0,1-.75,1,1.85,1.85,0,0,1-.86.27c-.72,0-1.19-.66-1.64-1.3A3,3,0,0,0,206,91.56a1.88,1.88,0,0,0-.53-.07c-1.35,0-3.17,1.13-4.46,2.08a17.52,17.52,0,0,0-2,2c-1.85,2.07-4.38,4.89-6.42,4.89A2.37,2.37,0,0,1,190.52,99.1Z"/><path id="Fill_141" data-name="Fill 141" class="cls-7" d="M199,102.49c0,2.63,4.15,2.63,4.15,0s-4.15-2.72-4.15,0"/><path id="Fill_143" data-name="Fill 143" class="cls-7" d="M206.32,102c0,3.23,5.09,3.23,5.09,0s-5.09-3.32-5.09,0"/><path id="Fill_145" data-name="Fill 145" class="cls-7" d="M201.08,109.51c-4.16,2.45,7.75,7.32,8.22,2.34.2-2.15-1.87-1.57-3.26-1.73s-3.7-1.35-5-.61"/><path id="Fill_147" data-name="Fill 147" class="cls-7" d="M199.28,126.89c.18,6.26.1,12.52,1.28,18.69.23,1.17.38,5.42,1.31,6.29,2.28,2.15,2.31-2,2.41-3.53.31-5.64-.28-11.45-.41-17.1,0-1.21.29-3.73-.28-4.91-.91-1.86-4.4-2.42-4.31.56"/><path id="Fill_149" data-name="Fill 149" class="cls-7" d="M194.82,121.82c-9.13,10.25-21.71,9.5-34.38,10.39-6.69.47-13.46,1.45-18.85,5.78a22.91,22.91,0,0,0-6.11,7.41c-.64,1.26-3.65,8.51.87,6.79,1.6-.61,3.18-5.41,4.22-6.83a20.16,20.16,0,0,1,7.54-6.38c5.84-2.8,12.82-2.75,19.16-3.1,6.63-.37,13.75-.71,19.84-3.6a30,30,0,0,0,7.86-5.22c.82-.78,2.59-2.1,2.72-3.29.15-1.37-1.16-3.86-2.86-2"/><path id="Fill_151" data-name="Fill 151" class="cls-7" d="M148.72,153.28c-8.58.29-17.15.63-25.72,1.18-1.76.11-7.61-.25-6.12,3.35,1.2,2.88,8.34,1,10.7.84,8.93-.53,17.89-.72,26.8-1.52,2-.18,11.05-.11,7.32-3.66-1.79-1.68-10.53-.27-13-.19"/><path id="Fill_153" data-name="Fill 153" class="cls-7" d="M111.44,157.42c-2.71,3.55-1.47,12.18-1.26,16.45s-.61,11.7,4.8,12.34c-1.72-.22,1.3.1,1.79.14,1.1.05,2.2.07,3.3.09,2.54,0,5.08,0,7.61-.06,5.75-.12,11.51-.28,17.25-.6,2.41-.14,15.5,0,16-2.53.66-3.2-11.88-1.39-14.13-1.29-5.47.25-10.95.3-16.42.38-2.71,0-5.43.06-8.14,0-1.12,0-5.56.43-6.24-.31s-.13-6.49-.14-7.38c0-2.92,0-5.84.07-8.76.07-2,1.13-5.7.26-7.54a3,3,0,0,0-4-1.49,2.83,2.83,0,0,0-.81.55"/><path id="Fill_155" data-name="Fill 155" class="cls-7" d="M155.61,157.58c.16,6.5.21,13.13,1.74,19.48.51,2.12,1.23,6.48,3.35,7.57s4.16-.49,4.3-2.7c.19-2.77-1.3-6.42-1.61-9.27-.35-3.32-.56-6.65-.68-10-.09-2.51.67-6.28-1.73-7.9a3.45,3.45,0,0,0-5.37,2.82"/><path id="Fill_157" data-name="Fill 157" class="cls-7" d="M172.69,156c-2.67,2.66-1.48,11.07-1.15,14.49.25,2.5,3,14.8,7.09,8.39,1.81-2.84-.49-10.35-.48-13.66,0-2.11.76-4.77.4-6.8-.48-2.67-3.45-4.84-5.86-2.42"/><path id="Wireframy_Stuff-4" data-name="Wireframy Stuff-4" class="cls-7" d="M178.59,183.92c-2-.08-4.22-.75-3.7-3.4.45-2.34,2.81-2.36,4.74-2.56a165.75,165.75,0,0,1,17.41-.77c12.23,0,24.45,0,36.68-.09a2.6,2.6,0,0,1,1.36.53c-.63-.78-.33-1.93-.45-3-.32-3-.52-6-1.1-9-.45-2.42-.8-6.53-3-8.05-1.91-1.3-5.63-1.25-8.57-1.2-.83,0-1.6,0-2.24,0a202,202,0,0,0-23.59,1.08c-3.57.32-7.18.57-10.71,1.21-2,.35-7.73,3.24-9.3,1.46-3.78-4.27,12.83-6,15.08-6.26,8-.82,16-1.44,24.1-1.52,5.44,0,14.75-.51,18.75,4,2.4,2.68,3.24,7.1,4.18,10.44.72,2.57,2.68,7.2,1.29,9.86-.63,1.2-1.64,2.22-3.18,1.8a3,3,0,0,1-.85-.38,2.23,2.23,0,0,1,.46,2.43c-.92,2.13-4.29,1.67-6.12,1.82-6.12.51-12.27.85-18.41.9-2.92,0-5.85,0-8.77,0s-6-.05-9,0c-4.49,0-9.16.88-13.65.88Z"/><path id="Line" class="cls-7" d="M280.62,148.71h0c-1.48,0-3-2.52-4-4.18-.27-.46-.55-.9-.86-1.33a14,14,0,0,0-6.84-5c-5.21-1.78-11-2.45-16.53-3.1-1.89-.22-3.85-.45-5.73-.72l-3-.4c-5-.63-10.73-1.35-15-3.78-1.88-1.06-7.82-6.51-7.85-10.14a2.62,2.62,0,0,1,1.42-2.41,2.88,2.88,0,0,1,1.48-.47c1.43,0,2.23,1.57,2.94,3,.22.44.44.85.66,1.2a11.7,11.7,0,0,0,7.2,5.2,108.85,108.85,0,0,0,13.95,2.75c1.2.18,2.44.37,3.66.57l3,.46c5.51.83,11.2,1.69,16.19,3.89a29.51,29.51,0,0,1,6.22,5.14c1.72,1.77,4.63,5.09,4.75,7.39a1.84,1.84,0,0,1-1,1.84A1.34,1.34,0,0,1,280.62,148.71Z"/><path id="Wireframy_Stuff-5" data-name="Wireframy Stuff-5" class="cls-7" d="M252.12,183c-2.09-.2-4.34-.94-3.82-3.57-1.45-2.79-2.12-8.16-2.25-9.21a97.41,97.41,0,0,1-.53-13.66,3,3,0,0,1,4.8-2.31c2.5-1,6.73-1.2,9-1.44,3.74-.37,7.5-.51,11.25-.74,8.74-.52,17.48-1.46,26.24-1.66,2.62,0,6.13-.29,8.23,1.65,2.38,2.2,2.85,7.67,3.57,10.61a72,72,0,0,1,2,9.74,17.9,17.9,0,0,1,.19,3.27,2.06,2.06,0,0,1,1.64,2.37c-.2,2.14-3.18,2.43-4.92,2.77-5.78,1.13-12,.87-17.83,1-9.5.26-19.52,1.51-29.23,1.51C257.67,183.35,254.87,183.25,252.12,183Zm1.22-6.1h.79q9.25-.15,18.5-.53c6.29-.24,12.57-.51,18.87-.58,2.19,0,4.41,0,6.64.11,2.85.09,5.71.18,8.54.07-1.08-2.84-.91-7.3-1.5-10.23s-.79-6.38-2-9.11c-1.32-3.08-2.46-2.37-5.9-2.14s-7.06.58-10.59.87c-7.75.64-15.52,1-23.28,1.58-4,.28-7.87,1.43-11.81,1.88-.06,1.41-.26,2.82-.24,3.85.07,3,.37,6,.63,9,.11,1.23.61,3.34.69,5.19Z"/></g><g id="Cells" class="cls-6"><path id="Fill_5" data-name="Fill 5" class="cls-7" d="M322.37,7.13c-1.58,1.57-1,7.16-1,9.22-.05,3.22.15,6.4.42,9.61.18,2.14,1.2,22.62,4,21,1.59-.88.59-6.81.59-8.68,0-4.16-.18-8.32-.46-12.47a111.08,111.08,0,0,1-.27-11.54c0-.94.92-11.41-3.3-7.18"/><path id="Fill_7" data-name="Fill 7" class="cls-7" d="M390.87,4.61c-13.52.11-27,.77-40.54,1.18-6.5.2-13,.45-19.48.81-2.21.12-7-.59-8.8.59-4.09,2.62,2.51,3.23,4.27,3.17,26.73-1,53.47-2.25,80.21-2.31,13.13,0,26.25.35,39.37.26,5,0,10.57-2.19,11.84,3.65,1.43,6.59-.21,13.93-.66,20.55a115.55,115.55,0,0,0,0,13.16c.12,2.83-.2,6,.3,8.8s2.4,4.27,4.16,1.28c1.06-1.79.53-6.21.6-8.28.1-2.8,0-5.59,0-8.38,0-6.82,1-13.61.83-20.42-.08-4.4-.31-12.36-5.86-13.42-6.1-1.16-13.6,0-19.85-.07-15.48-.17-30.93-.69-46.41-.57"/><path id="Fill_9" data-name="Fill 9" class="cls-7" d="M353.63,47.25q-7.63,0-15.29.11c-4.37.08-11.24-.84-15.3.73-2.79,1.07-3.53,4.17,0,5,3.84.9,9.63-.57,13.65-.64,20.17-.36,40.53-.82,60.66.46,18.87,1.19,38.1,2.35,57,1.09,1.59-.11,9.7-.43,6-3.47-2.16-1.77-10.91-.61-13.72-.69-9.89-.3-19.8-.37-29.69-.74s-19.48-1.47-29.24-1.74c-11.35-.32-22.72-.11-34.07-.11"/><path id="face" class="cls-7" d="M349.46,41.39h0c-6.91,0-14.44-3.31-15.72-10.72a7.28,7.28,0,0,1,0-1.32,6.07,6.07,0,0,0-.08-1.41,2.88,2.88,0,0,0-.44-.83,2.15,2.15,0,0,1-.48-1.05c0-2,1.15-3.12,2.5-4.39a19.42,19.42,0,0,0,1.5-1.51c2.7-3.12,4.4-4.65,8-6.05a9.43,9.43,0,0,1,3.44-.62,17.05,17.05,0,0,1,10,3.89c3.15,2.45,5.32,5.53,6,8.45A12.06,12.06,0,0,1,362.44,35a13.76,13.76,0,0,1-8.67,6A19.47,19.47,0,0,1,349.46,41.39ZM338.67,25.45h0a7.86,7.86,0,0,0,.76,7.52c2,2.85,5.95,4.7,10.13,4.7a11.82,11.82,0,0,0,6.74-2,7.54,7.54,0,0,0,3-3.94,7.75,7.75,0,0,0,0-4.55,13.11,13.11,0,0,0-4.1-6.09,11.32,11.32,0,0,0-6.68-2.85,1.72,1.72,0,0,1-.95.47.89.89,0,0,1-.39-.12h0a.81.81,0,0,0-.72-.08,11.82,11.82,0,0,0-3.4,2l-.25.19-.28.21a19.51,19.51,0,0,0-2.93,2.51l-.24.51c-.25.56-.67,1.48-.7,1.49h0Z"/><path id="Fill_13" data-name="Fill 13" class="cls-7" d="M341.35,26.61c0,3.21,5.09,3.21,5.09,0s-5.09-3.32-5.09,0"/><path id="Fill_15" data-name="Fill 15" class="cls-7" d="M347.72,26c0,2.57,4,2.57,4,0s-4-2.63-4,0"/><path id="Fill_17" data-name="Fill 17" class="cls-7" d="M349,31.23c-1.3.5-2.94-.53-4,.14-1.88,1.2,0,2.3,1,2.78,4.54,2.18,5.35-3.83,3-2.92"/><path id="Fill_19" data-name="Fill 19" class="cls-7" d="M373.46,30.39a2.35,2.35,0,0,1-.6-.08c-1.08-.3-1.56-.9-1.44-1.79.2-1.49,2-3.38,3.68-4.66,2.08-1.61,4.23-2.62,5.6-2.62l.34,0a9.48,9.48,0,0,1,3.7,1.71,9,9,0,0,0,3.84,1.74,5.07,5.07,0,0,0,.68,0,11.54,11.54,0,0,0,5.37-1.87,16.17,16.17,0,0,1,3.91-1.69,9.79,9.79,0,0,1,1.95-.22c2.51,0,4.66,1.09,6.75,2.13l0,0c2.06,1,4.2,2.11,6.6,2.11a8.58,8.58,0,0,0,3-.55,11.36,11.36,0,0,0,1.11-.47h0l1.2-.59a11.86,11.86,0,0,1,4.43-1.56l.38,0c2.13,0,4,1.18,5.73,2.32.7.44,1.42.91,2.14,1.28A4.45,4.45,0,0,0,433,26c.84.2,1.64.4,1.75,1.4a1.32,1.32,0,0,1-.24,1.07,1.45,1.45,0,0,1-1.14.36,8.24,8.24,0,0,1-1-.07l-.38,0a8.77,8.77,0,0,1-3.9-1.76,8.67,8.67,0,0,0-3.76-1.72,3,3,0,0,0-.42,0,12.85,12.85,0,0,0-5,1.67,16.59,16.59,0,0,1-3.8,1.49,10.1,10.1,0,0,1-1.82.17,13.53,13.53,0,0,1-6.32-1.86l-.66-.34c-2-1.07-3.64-1.9-5.59-1.9a8.07,8.07,0,0,0-3.13.67c-.87.35-1.71.76-2.52,1.16-2.06,1-4,1.94-6.33,1.94a9.15,9.15,0,0,1-1.48-.13,11.17,11.17,0,0,1-3.08-1.31,9.13,9.13,0,0,0-3.73-1.39h-.27C379,25.51,378,26.7,377,27.84S374.82,30.39,373.46,30.39Z"/><path id="Fill_21" data-name="Fill 21" class="cls-7" d="M404.55,67.57c-13.89.13-27.82.34-41.67,1.45-3.29.26-36.81,3.43-36.75,3.66.12.42,4.43,1.06,4.4,1.16-.29-.72-.95-1-2-.89,31.8,0,63.49-2.85,95.33-2.34,8,.13,16,.08,24,.33,2,.06,6.94,1.49,8.51.59,4.11-2.36-3.36-2.64-4.6-2.74-15.67-1.25-31.55-1.37-47.26-1.22"/><path id="Fill_23" data-name="Fill 23" class="cls-7" d="M322,74.32c-2.07,2.08-.16,9.57-.08,12.39.12,4.07,0,8.16.38,12.22A81.8,81.8,0,0,0,324.57,113c.67,2.47,3,6.41,3.95,1.91.66-3.22-.35-7.48-.7-10.76a124.77,124.77,0,0,1-.6-13.11c0-3.84-.09-7.69-.4-11.52-.17-2-1.17-8.83-4.81-5.21"/><path id="Fill_25" data-name="Fill 25" class="cls-7" d="M374.25,112.46c-9.85.17-19.73.4-29.57,1-4,.25-8.06.63-12.08,1-.82.09-9.9.46-5.84,3.8,1.83,1.51,9.36-.58,11.85-.8,4.18-.37,8.36-.6,12.55-.78,9.72-.41,19.47-.78,29.2-.61,17.76.31,35.42.45,53.19,0,2.52,0,22.3.47,23-2.15.54-2.12-6.54-1.15-7.83-1.11-4.73.14-9.46.11-14.2.08-20.05-.1-40.21-.9-60.25-.56"/><path id="Fill_27" data-name="Fill 27" class="cls-7" d="M453.17,70.81c.32,8.77,1.81,17.54,2.29,26.34.22,4,.47,8,.67,12.07.07,1.3-.46,4.43,1.08,5.17,2.1,1,2.39-1,2.78-2.43,1.14-4,.37-9.27.27-13.42s-.11-8-.4-12-1.13-8.1-1.51-12.18c-.16-1.73.4-4.59-1.43-5.66a2.51,2.51,0,0,0-3.42.94,2.54,2.54,0,0,0-.33,1.2"/><path id="face-2" class="cls-7" d="M351.81,107.72h-.16c-2.63,0-7.66-.37-11.8-2.42a11.84,11.84,0,0,1-4.45-3.58A9.68,9.68,0,0,1,333.58,96a18.6,18.6,0,0,1,4.22-11.3,17.24,17.24,0,0,1,4.64-4.08,12.41,12.41,0,0,1,5.7-1.77c.23,0,.47,0,.7,0a16,16,0,0,1,5.68,1.1,20.41,20.41,0,0,1,9.32,7.33,15.92,15.92,0,0,1,2.39,5.25,11.1,11.1,0,0,1-2,9.77,13.85,13.85,0,0,1-5.44,4,17.82,17.82,0,0,1-7,1.41h0Zm-3.88-24.91a10.75,10.75,0,0,0-7.82,3.93,13.93,13.93,0,0,0-3.23,8.31,7.28,7.28,0,0,0,2,5.54,11.78,11.78,0,0,0,5.77,3,28.67,28.67,0,0,0,6.79.74h.46c3.92,0,7.53-1.63,9.42-4.12a7.68,7.68,0,0,0,1.13-6.86,11.78,11.78,0,0,0-2.3-4.28,20.36,20.36,0,0,0-3.53-3.41,12.13,12.13,0,0,0-5.91-2.25A25.84,25.84,0,0,1,347.93,82.81Z"/><path id="Fill_31" data-name="Fill 31" class="cls-7" d="M340,91.28c0,2.59,4.09,2.59,4.09,0s-4.09-2.66-4.09,0"/><path id="Fill_33" data-name="Fill 33" class="cls-7" d="M348.57,90.15c0,2.61,4.13,2.61,4.13,0s-4.13-2.69-4.13,0"/><path id="Fill_35" data-name="Fill 35" class="cls-7" d="M343.85,96.05c-2.66,2.66,6.68,7.31,8.89,3.62,1.81-3-2.13-2-3.53-2.19s-4.12-2.67-5.36-1.43"/><path id="Fill_37" data-name="Fill 37" class="cls-7" d="M373.85,95.08h0a1.92,1.92,0,0,1-1.47-.52,2.68,2.68,0,0,1-.56-2c.12-3.17,8.89-6.16,11.66-6.68a7.72,7.72,0,0,1,1.44-.14,13.36,13.36,0,0,1,5.89,1.86l0,0a13.28,13.28,0,0,0,6,1.87,7.74,7.74,0,0,0,1.79-.2,22.07,22.07,0,0,0,3.25-1.07A17.11,17.11,0,0,1,406.32,87l.73,0a7.78,7.78,0,0,1,4.47,1.58A17,17,0,0,0,414,89.86a4.73,4.73,0,0,0,1.82.36,9.79,9.79,0,0,0,1.32-.11h0a9.36,9.36,0,0,1,1.41-.11h.4c1.33.09,2.18.54,2.32,1.23s-.59,1.65-1.93,2.3a6.32,6.32,0,0,1-2.82.73,8.73,8.73,0,0,1-4.42-1.63,10.63,10.63,0,0,0-4.35-1.77,5.48,5.48,0,0,0-.7,0,15.19,15.19,0,0,0-5.68,1.57l-.09,0a15.82,15.82,0,0,1-6,1.6h-.33a14.39,14.39,0,0,1-5.4-1.58,11.58,11.58,0,0,0-4.77-1.38,7.25,7.25,0,0,0-2.76.57c-.33.14-.87.43-1.54.8C378.69,93.5,375.79,95.08,373.85,95.08Z"/><path id="point" class="cls-7" d="M438.88,97h0a6,6,0,0,1-4.12-1.9,8.68,8.68,0,0,1-2.38-4.24,5.7,5.7,0,0,1,.24-3.44,5.11,5.11,0,0,1,2.72-2.61,3,3,0,0,1,1.28-.25,10.13,10.13,0,0,1,5.76,2.5,5.42,5.42,0,0,1,1.7,4.15,6.2,6.2,0,0,1-2.1,4.59A4.75,4.75,0,0,1,438.88,97Zm-1.95-8.54a2.59,2.59,0,0,0-.24,2.74c.42,1,1.15,1.71,1.89,1.71a1.24,1.24,0,0,0,.27,0c.76-.17,1.18-.47,1.25-.9C440.32,90.58,437,88.46,436.93,88.44Z"/><path id="Fill_41" data-name="Fill 41" class="cls-7" d="M362.93,134.38c-9.62,0-19.33-.2-28.94.37-1.62.1-7.78-.21-8.61,1.48-1.53,3.1,4.81,1.56,5.73,1.47,19.14-1.92,39.13-.82,58.33-.27,15.7.45,31.32.72,47,1.53q6.18.33,12.36.7c1.34.08,4.72,1,5-1.17s-4-1.54-5-1.59q-12.56-.68-25.11-1.38c-20.16-1.14-40.58-1.14-60.77-1.14"/><path id="Fill_43" data-name="Fill 43" class="cls-7" d="M325.07,137.82c-1.8,1.79-1,8.61-1,10.87-.08,3.94-.27,7.88-.36,11.83-.08,4.12,0,8.26.28,12.38.1,1.72,1.52,10.08,3.76,5.3,1-2.14,0-8.09,0-10.51,0-4.4.26-8.79.48-13.19.19-3.78.2-7.56.36-11.35.05-1.2.2-9-3.5-5.33"/><path id="Fill_45" data-name="Fill 45" class="cls-7" d="M455.44,173.06c-9.37,1-18.89.5-28.29,1.21-8.1.61-16.2.86-24.32,1-18.4.38-36.83.76-55.17,2.3-4.18.34-8.35.72-12.55.9-2.09.1-10.89-.86-11.54,1.35-1.12,3.77,8.29,2.28,10.32,2.22,4.46-.13,8.9-.45,13.35-.79,18.7-1.43,37.48-1.85,56.22-2.45,10.19-.32,20.32-1.06,30.49-1.74,5.07-.34,10.15-.35,15.22-.68,1.33-.08,6,.08,7-1,.65-.74.82-2.52-.71-2.38"/><path id="Fill_47" data-name="Fill 47" class="cls-7" d="M452.26,138.46c.32,9,.83,18,1.13,26.94.1,2.7-.72,7.54.78,9.93,2.42,3.83,4.31-.23,4.75-2.61,1.4-7.54-.1-15.86-.5-23.44-.15-2.89.75-9.33-.64-11.91s-5.64-2.22-5.52,1.09"/><path id="hola_:_" data-name="hola : " class="cls-7" d="M436.59,163.83a7.57,7.57,0,0,1-2.45-.44,6.83,6.83,0,0,1-2.7-1.83,7.39,7.39,0,0,1-1.64-2.83,5.63,5.63,0,0,1,.56-4.39,8.19,8.19,0,0,0,.82-2.61,6,6,0,0,0-.08-.94,2.93,2.93,0,0,1,.14-2.08c.32-.43,1.1-.63,2.39-.63.47,0,.93,0,1.34,0l.56,0a7.48,7.48,0,0,1,1.15-.12,4.93,4.93,0,0,1,4.22,2.47,10.28,10.28,0,0,1,1.46,5.43,9.14,9.14,0,0,1-2.19,6.43A4.88,4.88,0,0,1,436.59,163.83Zm0-12.57h0c-2.16,1-4,5-3.44,7.41a2.47,2.47,0,0,0,2.7,2,5.39,5.39,0,0,0,.8-.06,2.92,2.92,0,0,0,2-1.32,5.17,5.17,0,0,0,.77-2.54,7.2,7.2,0,0,0-.64-3.42A3.67,3.67,0,0,0,436.54,151.26Z"/><path id="Fill_51" data-name="Fill 51" class="cls-7" d="M346.36,168.08h0a13.93,13.93,0,0,1-11.68-6.43,11.77,11.77,0,0,1-.28-11.84,1.36,1.36,0,0,1-.83.36c-.73,0-1.08-1-1.23-1.55-.23-.91,1.21-2.5,2.16-3.56.22-.24.41-.45.54-.61,2-2.52,4.47-4.87,8.21-5h.4a13.6,13.6,0,0,1,8.6,3.28,18.59,18.59,0,0,1,5.56,7.76,14.71,14.71,0,0,1,.87,7.6,11.15,11.15,0,0,1-3.75,6.7A12.79,12.79,0,0,1,346.36,168.08ZM343,146a3.17,3.17,0,0,0-.92.1,7.41,7.41,0,0,0-3.52,2.78,12.56,12.56,0,0,0-2,4.09,9.47,9.47,0,0,0,.72,7.37,9.3,9.3,0,0,0,5.95,4.2,11.66,11.66,0,0,0,3.05.4,9.66,9.66,0,0,0,5.43-1.54,8.19,8.19,0,0,0,3.34-4.68,10.43,10.43,0,0,0-1.36-8.94,17.42,17.42,0,0,0-7.2-5.85l.06.54c0,.18.05.36.07.55-.25.9-1.19,1-2.08,1l-.79,0h0Zm.2-3.17a6.78,6.78,0,0,0-4.13,1.56,8.4,8.4,0,0,1,4.13-1.56Z"/><path id="Fill_53" data-name="Fill 53" class="cls-7" d="M339.93,151.5a1.34,1.34,0,1,0,1.31-1.31,1.34,1.34,0,0,0-1.31,1.31"/><path id="Fill_55" data-name="Fill 55" class="cls-7" d="M344.5,151.79a1.36,1.36,0,1,0,1.31-1.31,1.36,1.36,0,0,0-1.31,1.31"/><path id="Fill_57" data-name="Fill 57" class="cls-7" d="M346.57,158c-1.27.1-5.93-.33-6.74.78-1.37,1.86.81,1.93,1.88,2.13s5.16.08,5.75-.78.4-2.24-.89-2.13"/><path id="Fill_59" data-name="Fill 59" class="cls-7" d="M361.59,161.12h0c-.67,0-1.19-.46-1.58-1.42-.83-2,2.23-4.58,3.23-5.44a6.52,6.52,0,0,1,4.36-1.81,8.69,8.69,0,0,1,2.61.46,18.73,18.73,0,0,1,2,.76,8.22,8.22,0,0,0,3.3.88,7.06,7.06,0,0,0,1.59-.2,22.54,22.54,0,0,0,3.26-1.15,16.2,16.2,0,0,1,4.78-1.38l.6,0a15.86,15.86,0,0,1,5.34,1.27,23.15,23.15,0,0,0,3.55,1.1,11.74,11.74,0,0,0,2.36.24,15.52,15.52,0,0,0,5.54-1.21,14.67,14.67,0,0,1,5.22-1.2,12,12,0,0,1,3.61.62l.89.26c2.06.58,6.36,1.79,6.57,2.52a1.27,1.27,0,0,1-1.42,1.85,13.24,13.24,0,0,1-3.67-.85h0l-.19-.06-1.43-.51a14.55,14.55,0,0,0-5-1.17,8.6,8.6,0,0,0-2.31.33c-.88.25-1.7.52-2.49.78a19.6,19.6,0,0,1-6.38,1.34,13.16,13.16,0,0,1-1.77-.12,20.31,20.31,0,0,1-3.43-.88,15.27,15.27,0,0,0-4.53-1h-.06a14.16,14.16,0,0,0-5.44,1.53,20.51,20.51,0,0,1-3.74,1.32,6.12,6.12,0,0,1-1.28.14,11.22,11.22,0,0,1-3.61-.78l-.09,0a10.6,10.6,0,0,0-3.33-.75,4.43,4.43,0,0,0-.81.07,7.07,7.07,0,0,0-2.49,1.92C364.1,159.76,362.72,161.12,361.59,161.12Z"/></g><path class="cls-3" d="M521.31,357.9l-6.1-22.67a39.37,39.37,0,0,0-33.14-29.43l-14.17-2-4.14-12.43a58.42,58.42,0,0,0,23.54-35.32C491.44,253.91,498,248.46,498,235c0-9.81-1.52-15.92-5-19a22.66,22.66,0,0,0-2.4-1.74c-3.27-29.87-27.25-53.19-57.11-53.19-29.65,0-53.85,23.1-57.12,53.41a5.51,5.51,0,0,0-2.18,1.52c-3.71,3.49-5.23,9.38-5.23,19.19,0,13.51,6.54,19,10.68,21.14a60.36,60.36,0,0,0,23.54,35.32L399,303.84l-14.17,2a39.64,39.64,0,0,0-33.14,29.43l-6.1,22.67a7.86,7.86,0,0,0,1.53,7.2,8,8,0,0,0,6.32,3h160a7.45,7.45,0,0,0,6.32-3A7.74,7.74,0,0,0,521.31,357.9ZM395.52,201.38a3.72,3.72,0,0,1,4.8-3.49,155.09,155.09,0,0,0,33.35,3.27c13.08,0,24.86-1.31,33.36-3.27,2.18-.66,4.36,1.09,4.79,3.49.66,4.79,1.09,10.9,1.75,16.13H393.78C394.21,212.06,394.87,206.17,395.52,201.38Zm67.58,22.67-.65,12.86a4.09,4.09,0,0,1-4.14,3.92H447.19a4.06,4.06,0,0,1-4.14-3.7l-1.53-13.08Zm-37.71,0-1.53,13.08a4,4,0,0,1-4.14,3.7H408.6a4.09,4.09,0,0,1-4.14-3.92l-.65-12.86ZM407.3,308.63l4.14-12.42a51.31,51.31,0,0,0,22.23,5.23,54.08,54.08,0,0,0,22-5l4.14,12.43A44.46,44.46,0,0,1,407.3,308.63Zm25.94-16.57c-21.8,0-40.77-16.78-45.13-40.11a5,5,0,0,0-3.49-3.7c-.65-.22-6.54-2-6.54-13.08,0-5.89.66-8.94,1.31-10.69h1.53c0,1.53,1.09,7.63,2.39,7.63h6.54a2.61,2.61,0,0,0,2.4-2.61s.22-2.18.44-5.45h3.92l.66,13.08a10.84,10.84,0,0,0,10.9,10.46h11.12a11,11,0,0,0,10.9-9.59l1.74-13.95h2.4L436.07,238a10.88,10.88,0,0,0,10.9,9.59h11.12A10.84,10.84,0,0,0,469,237.13l.65-13.08h3.93c.22,3.27.43,5.45.43,5.45a2.47,2.47,0,0,0,2.4,2.61h6.54c1.31,0,2.4-6.1,2.4-7.63h1.53c.65,1.75,1.3,4.58,1.3,10.69,0,11.11-5.88,12.86-6.32,13.08a5.27,5.27,0,0,0-3.7,3.7C474.44,275.28,455.47,292.06,433.24,292.06Z"/><circle cx="414.49" cy="232.55" r="5.01"/><circle cx="452.42" cy="232.55" r="5.01"/><path class="cls-8" d="M446.31,270.42c0,2.76-5.82,5-13,5s-13-2.24-13-5"/><path class="cls-3" d="M429.89,243.73a36.4,36.4,0,0,0-1.59,13.2,1.53,1.53,0,0,0,1.5,1.5,7.86,7.86,0,0,1,4.4,1.18c1.65,1,3.16-1.58,1.51-2.59a10.79,10.79,0,0,0-5.91-1.59l1.5,1.5a34,34,0,0,1,1.48-12.4c.58-1.85-2.31-2.64-2.89-.8Z"/><polygon class="cls-2" points="36.03 366.55 40.9 369.16 45.81 366.63 44.84 372.06 48.76 375.95 43.29 376.7 40.8 381.64 38.4 376.66 32.93 375.83 36.92 372 36.03 366.55"/><polygon class="cls-2" points="49.14 347.63 52.21 349.28 55.3 347.68 54.69 351.11 57.16 353.56 53.71 354.04 52.14 357.15 50.63 354.01 47.19 353.48 49.7 351.07 49.14 347.63"/><polygon class="cls-2" points="73.18 374.91 76.25 376.56 79.34 374.96 78.73 378.39 81.2 380.84 77.75 381.31 76.19 384.42 74.67 381.29 71.23 380.76 73.74 378.35 73.18 374.91"/><circle class="cls-3" cx="61.41" cy="368.54" r="1.25"/><circle class="cls-3" cx="28.63" cy="350.17" r="1.25"/><circle class="cls-3" cx="45.37" cy="327.15" r="1.25"/><polygon class="cls-9" points="237.57 362.99 234 367.9 227.92 367.74 231.49 372.67 229.46 378.39 235.24 376.52 240.06 380.22 240.07 374.14 245.08 370.7 239.3 368.82 237.57 362.99"/><rect class="cls-10" x="181.31" y="321.42" width="49" height="26"/><ellipse class="cls-10" cx="205.81" cy="266.42" rx="51.5" ry="55"/><path class="cls-3" d="M285,380l-5.4-20.59a35.41,35.41,0,0,0-30-26.59l-13-1.8-4-11.6c.8-.6,1.8-1.2,2.6-1.79,12.8-1.8,26.59-4.6,35-9.4a3.46,3.46,0,0,0,1-4.8c-4-7-7.4-17.39-9.4-24.79A25.36,25.36,0,0,0,264,268c0-9-1.4-14.4-4.6-17.2a7,7,0,0,0-2-1.6c-2.4-28-24.59-49.77-52-49.77s-49.57,21.59-52,49.77a6.23,6.23,0,0,0-1.8,1.4c-3.2,3-4.8,8.4-4.8,17.4a25.36,25.36,0,0,0,2.2,10.59c-2,7.4-5.4,17.79-9.4,24.79-.8,1.8-.6,3.8,1,4.8,8.4,4.8,22.19,7.6,35,9.4.8.59,1.8,1.19,2.6,1.79l-4,11.6-13,1.8a35.68,35.68,0,0,0-30,26.59L125.9,380a6.71,6.71,0,0,0,1.4,6.4,7.41,7.41,0,0,0,5.8,2.79H278.43a6.87,6.87,0,0,0,5.8-2.79A8.77,8.77,0,0,0,285,380ZM175.88,243.65a3.43,3.43,0,0,0,3.2,2.2h52.57a3.43,3.43,0,0,0,3.2-2.2l3-7.8c.6,4.8,1,10.4,2.4,16H170.48c1.4-5.59,1.8-11,2.4-16ZM232.25,258l-.6,11.6a3.75,3.75,0,0,1-3.8,3.59H217.66a3.72,3.72,0,0,1-3.8-3.39l-1.4-12h19.79Zm-34.18,0-1.4,12a3.72,3.72,0,0,1-3.8,3.39h-10.2a3.75,3.75,0,0,1-3.79-3.59l-.6-11.6h19.79Zm-16.59,77.17,4-11.6a45.32,45.32,0,0,0,39.79,0l4,11.6A41.14,41.14,0,0,1,181.48,335.21Zm23.58-15.6c-19.79,0-37-15.39-41-36.38a4.6,4.6,0,0,0-3.2-3.4c-.6-.2-5.79-1.8-5.79-12,0-8.6,1.6-10.8,2.4-11.4a1,1,0,0,0,.6-.2,44.83,44.83,0,0,1,4.59,13,51.14,51.14,0,0,0,5.8-11.4h3.6l.6,12a9.78,9.78,0,0,0,10,9.39h10.2a9.93,9.93,0,0,0,9.8-8.79l1.6-12.6h2.19l1.6,12.6a9.93,9.93,0,0,0,9.8,8.79h10.19a10.06,10.06,0,0,0,10-9.39l.6-12h3.8a51.14,51.14,0,0,0,5.8,11.4,44.53,44.53,0,0,1,4.59-13,1.5,1.5,0,0,1,1,.2c.4.4,2,2.6,2,11.2,0,10-5.19,11.79-5.79,12a4.29,4.29,0,0,0-3.2,3.4C242.45,304.22,225.26,319.61,205.06,319.61Z"/><polygon class="cls-10" points="247.31 271.42 165.31 271.42 171.31 250.42 239.31 250.42 247.31 271.42"/><rect class="cls-10" x="165.31" y="270.42" width="79" height="10"/><circle class="cls-3" cx="187.31" cy="263.42" r="4"/><circle class="cls-3" cx="220.31" cy="263.42" r="4"/><path class="cls-2" d="M204.12,273.62c-2.34,1-3.74,2.86-3.53,4.66s2,3.49,4.56,4.27"/><path class="cls-8" d="M217.17,298.78c0,2.76-5.82,5-13,5s-13-2.24-13-5"/><path class="cls-11" d="M143.14,337.44c8.91-5.38,19.72-6.47,30.12-6.64a10.28,10.28,0,0,1,4.45.59c1.54.7,2.64,2.07,3.86,3.24,7.09,6.88,18.06,7.21,27.94,7.14a32.14,32.14,0,0,0,13.8-3.35c3.11-1.52,5.82-3.12,8.93-4.64,15.07-7.36,30.24.51,40.07,10.64,7.42,7.63,11.56,23.16,14,38,1.37,8.34,2.61,21.35,4,29.7.39,2.4.76,5-.4,7.15-2.2,4.06-8,3.82-12.55,3A607.86,607.86,0,0,1,142.39,380c-7.15-3.19-13.08-1.55-13.08-10.55,1.37.06,0,0,.69-7.29C130.31,349.42,134.56,342.61,143.14,337.44Z"/><polygon class="cls-12" points="210.01 357.04 203.11 366.52 191.39 366.21 198.27 375.7 194.36 386.76 205.51 383.14 214.81 390.28 214.82 378.56 224.49 371.92 213.34 368.29 210.01 357.04"/><path class="cls-11" d="M521.26,357c.85,5.78,1.2,12.13-1,16.72-3.35,7.16-15.51,4.79-21.56,8.65-2.56,1.64-4.3,4.63-6.66,6.64-19.42,16.58-31.49,24.16-43.44,28.28-35.34,12.17-91.34,11.15-114.34,10.14-.82-37.39,5.1-63.12,18.32-97a64.36,64.36,0,0,1,6.46-13.16c5.78-8.43,14.27-12.79,22.9-15.43,10.88-3.33,15.34-4,24,3.61,13.85,12.21,33.5,14.91,49.08,6,5.43-3.12,10.4-7.49,16.18-9.52,11.79-4.14,28.79,4.24,37.05,15.11s9.32,20.12,12,34.45c.33,1.73.67,3.62,1,5.57"/><polygon class="cls-12" points="435.26 332.09 427.27 343.06 413.71 342.7 421.68 353.68 417.15 366.47 430.05 362.29 440.81 370.55 440.82 356.98 452 349.3 439.11 345.1 435.26 332.09"/><path class="cls-13" d="M591.07,256.67c-15.73,115.23-158.23,190.94-318.3,169.1S-4.31,292.8,11.42,177.57"/></g></g></svg>
