<svg id="Partner_Page" data-name="Partner Page" xmlns="http://www.w3.org/2000/svg" viewBox="0 0 186 186"><defs><style>.cls-1{fill:#f7f8fc;}.cls-1,.cls-2{stroke:#282d33;stroke-miterlimit:10;}.cls-2{fill:none;}.cls-3{fill:#282d33;}</style></defs><g id="Benefits"><g id="Strategy_icon" data-name="Strategy icon"><path class="cls-1" d="M66.08,126.07a.75.75,0,0,0,.1.17H44.66a.34.34,0,0,0-.14,0c1.06-10.09,4.9-21.69,13.07-37.24a31.53,31.53,0,0,0-6.83,1.63,35.15,35.15,0,0,1,8-2q2.22-4.15,4.86-8.68c-18,3.93-23.78,15.62-25.18,19.35,0,0,0,0,.09-.09l-.45.6-8.41-7.37L29.34,85l18-20.38h.1c13.65,0,24.72,16.4,24.72,36.64C72.17,105.64,68.36,121.51,66.08,126.07Z"/><path class="cls-2" d="M63.61,79.93Q61,84.46,58.75,88.61a35.15,35.15,0,0,0-8,2,1.69,1.69,0,0,1-.27.1,28.45,28.45,0,0,0-11.22,7.54,4.09,4.09,0,0,1-.33.38,6.41,6.41,0,0,0-.42.52s-.07,0-.09.09C39.83,95.55,45.61,83.86,63.61,79.93Z"/><path class="cls-2" d="M86.58,106.25a54.42,54.42,0,0,1-4.14,20H66.18a.75.75,0,0,1-.1-.17c2.28-4.56,6.09-20.43,6.09-24.77,0-20.24-11.07-36.64-24.72-36.64h-.1l3.74-4.22C72.66,61.61,87,82.55,86.58,106.25Z"/><path class="cls-2" d="M86.58,106.25a54.42,54.42,0,0,1-4.14,20H66.18a.75.75,0,0,1-.1-.17c2.28-4.56,6.09-20.43,6.09-24.77,0-20.24-11.07-36.64-24.72-36.64h-.1l3.74-4.22C72.66,61.61,87,82.55,86.58,106.25Z"/><path class="cls-1" d="M91.53,99.41c0,1.3-.11,2.57-.21,3.83s-.24,2.4-.42,3.58-.41,2.39-.67,3.57c-.1.47-.2,1-.34,1.44-.21.85-.44,1.71-.7,2.54-.14.49-.29,1-.46,1.45A47.12,47.12,0,0,1,86.22,122c-.22.48-.46.94-.7,1.38s-.53,1-.8,1.47-.54,1-.83,1.42H82.44a54.42,54.42,0,0,0,4.14-20C87,82.55,72.66,61.61,51.09,60.44l-1.56-6.52A28.82,28.82,0,0,1,56,53.26C76.07,53.63,92,74.3,91.53,99.41Z"/><path class="cls-2" d="M45.92,131.48h0Z"/><path class="cls-2" d="M84.23,131.48h-.07c-.43-.22-.85-.42-1.3-.63C83.32,131,83.78,131.26,84.23,131.48Z"/><path class="cls-2" d="M87.77,165h-57a2.62,2.62,0,1,1,0-5.24h57a2.62,2.62,0,1,0,0,5.24Z"/><path class="cls-2" d="M84.35,131.54h0v0h0l0,0,0,0c.68,0,1.19.65,1.77,1s1.16.77,1.74,1.19c.38.29.75.56,1.11.87s1,.82,1.41,1.26a26.16,26.16,0,0,1,3.28,3.76"/><path class="cls-2" d="M84.41,131.57s0,0-.06,0h0v0h0l0,0"/><path class="cls-2" d="M84.23,131.48l0,0,0,0h0l0,0h0v0h0l0,0,0,0a1.42,1.42,0,0,0-.16,0"/><path class="cls-1" d="M65,134.73v25H31c-.07-.82-.1-1.65-.1-2.48,0-11.39,6.12-21.2,15-25.8h.07a26.15,26.15,0,0,0,3,1.06C53.49,131.43,59.38,133.51,65,134.73Z"/><path class="cls-2" d="M45.85,131.48h.07"/><path class="cls-2" d="M65,134.73c5.22,1.13,10.22,1.54,13.73-2a2.76,2.76,0,0,0,.65-1.28h4.76l0,0,0,0h0"/><path class="cls-2" d="M93.54,139.6a26.16,26.16,0,0,0-3.28-3.76c-.46-.44-.93-.85-1.41-1.26s-.73-.58-1.11-.87c-.58-.42-1.16-.81-1.74-1.19s-1.21-.71-1.84-1H79.4a2.76,2.76,0,0,1-.65,1.28c-3.51,3.51-8.51,3.1-13.73,2"/><path class="cls-1" d="M88.05,128.86a2.62,2.62,0,0,1-2.63,2.62h-6a2.76,2.76,0,0,1-.65,1.28c-3.51,3.5-8.51,3.1-13.73,2-5.64-1.22-11.53-3.3-16-2.19a26.15,26.15,0,0,1-3-1.06H44.66a2.61,2.61,0,0,1-.14-5.22.34.34,0,0,1,.14,0H85.42A2.63,2.63,0,0,1,88.05,128.86Z"/><path class="cls-2" d="M45.92,131.48h0Z"/><path class="cls-3" d="M61.57,81.46c-1.23,2.14-2.39,4.23-3.47,6.23a37,37,0,0,0-7.71,2,1,1,0,0,1-.21.08h0l0,0a33.19,33.19,0,0,0-7.85,4.41c3.09-4.4,8.88-10,19.3-12.78m2-1.53c-18,3.93-23.78,15.62-25.18,19.35,0,0,0,0,.09-.09a6.41,6.41,0,0,1,.42-.52,4.09,4.09,0,0,0,.33-.38,31.19,31.19,0,0,1,11.22-7.54,1.69,1.69,0,0,0,.27-.1,35.15,35.15,0,0,1,8-2q2.22-4.15,4.86-8.68Z"/><path class="cls-3" d="M121.06,75.08v50.16H104.24c4.65-7.59,7.36-17.11,7.85-27.65a77.42,77.42,0,0,0-2.21-22.51h11.18m1-1H108.58a75.71,75.71,0,0,1,2.51,23.46c-.51,11-3.55,21.07-8.68,28.7h19.65V74.08Z"/><path class="cls-3" d="M139.9,130.85c.44.21.87.41,1.29.63h.07c-.44-.22-.9-.44-1.36-.63Z"/><path class="cls-3" d="M156.37,160.76a1.62,1.62,0,1,1,0,3.24H87.77a1.62,1.62,0,1,1,0-3.24h33.29v3l1.7-1.69a.93.93,0,0,1-.64.26v-1.6h34.25m0-1H87.77a2.62,2.62,0,1,0,0,5.24h68.6a2.62,2.62,0,1,0,0-5.24Zm-34.31,1.63v0h.06a.09.09,0,0,0-.06,0Z"/><path class="cls-3" d="M122.12,161.36h-.06v0a.09.09,0,0,1,.06,0Z"/><path class="cls-3" d="M122.06,68.83H106.52A2.65,2.65,0,0,0,108.7,70h13.36V68.83Z"/><path class="cls-3" d="M139.8,70.2c.06.14.13.28.18.43a1.33,1.33,0,0,0,0-.19,1.12,1.12,0,0,0-.13-.24Z"/><path class="cls-3" d="M121.06,132.48v26.28H88.93c0-.49,0-1,0-1.48a28.86,28.86,0,0,1,5.46-17.09,26.27,26.27,0,0,1,8.78-7.71h17.93m1-1H102.89a27.07,27.07,0,0,0-9.35,8.12,30,30,0,0,0-5.65,17.68c0,.83,0,1.66.11,2.48h34.06V131.48Z"/><path class="cls-3" d="M139.9,130.85c.44.21.87.41,1.29.63.63.33,1.25.69,1.85,1a15.89,15.89,0,0,0-1.78-1c-.44-.22-.9-.44-1.36-.63Z"/><path class="cls-3" d="M151,140.19a30.07,30.07,0,0,1,2.2,3.78,26.81,26.81,0,0,0-2.2-3.78Z"/><path class="cls-3" d="M156.22,158.52c0,.42-.05.83-.09,1.24h0c0-.41,0-.82.07-1.24Z"/><path class="cls-3" d="M122.07,22.9a5.84,5.84,0,0,1,.73.05A7.63,7.63,0,0,0,119.33,33h-.87a5.7,5.7,0,0,1,3.61-10.12m0-1A6.7,6.7,0,0,0,118.12,34h3a6.66,6.66,0,0,1,4.74-10.91,6.67,6.67,0,0,0-3.81-1.21Z"/><path class="cls-3" d="M125.61,24.14a5.89,5.89,0,0,1,.72.7,4.92,4.92,0,0,1,.79,1.12,4.7,4.7,0,0,1,.3.63,1.44,1.44,0,0,1,.07.23l0,.05v0a3,3,0,0,1,.13.49v.09l0,.09a.65.65,0,0,1,0,.17.17.17,0,0,1,0,.07c0,.08,0,.16,0,.22a3.4,3.4,0,0,1,0,.57,6.07,6.07,0,0,1-.11,1.12,3.71,3.71,0,0,1-.14.53l0,.12c-.06.17-.12.35-.21.55s-.15.31-.25.49a4.28,4.28,0,0,1-.37.57l-.11.13a3.4,3.4,0,0,1-.32.38,4.87,4.87,0,0,1-.78.68l-.43.31V35h1.55a1.31,1.31,0,0,1,.44.07l.06,0h.07l.08,0a1.31,1.31,0,0,1,.35.22l0,0,.07.08.06,0,0,0,0,0h0l0,.06,0,.06a1.54,1.54,0,0,1,.29.65v.72l.76.18a32.91,32.91,0,0,1,3.89,1.21l.12,0c.8.32,1.55.64,2.26,1,1.13.54,2.22,1.12,3.23,1.73l.08,0,0,0h0l1.16.75c.55.36,1.11.77,1.71,1.23.35.27.69.54,1,.79l.08.06.85.77.36.35.25.26c.16.17.32.33.46.5l.12.14.14.15,0,0v0l.52.66.16.23,0,0c.12.2.22.38.31.56l0,.05.06.15a.58.58,0,0,0,.05.14v.12l0,0v.34l0,0,0,.07v0a25.12,25.12,0,0,1-1.3,3.73c-.17.4-.33.76-.49,1.1v0c-.08.18-.17.36-.26.55l-.31.62c-.1.21-.21.43-.32.64-.26.5-.48.9-.72,1.3-.43.78-1,1.65-1.63,2.63-.15.23-.31.44-.47.66l-.45.64h0l0,0c-.35.46-.71.89-1.06,1.32l-.24.29c-.25.29-.51.58-.79.88s-.82.85-1.37,1.39l-.71.7.7.71.23.19,0,0,0,0,0,.06,0,0,0,.05,0,0,0,.07,0,.06,0,.08,0,.06s0,0,0,.07l0,0v0A.58.58,0,0,1,137,67v0l0,0a2.3,2.3,0,0,1,0,.28,2.11,2.11,0,0,1,0,.26c0,.06,0,.11,0,.12a1.92,1.92,0,0,1-.24.54l-1,1.54h1.84l.24,0H138a1,1,0,0,1,.2.08,1.24,1.24,0,0,1,.38.25l.12.12,0,0h0v0l.05,0,0,0h0a.35.35,0,0,0,0,.08h0l.07.12.08.16v.24l.05,0v.17h0v.54h0a1.64,1.64,0,0,1-1.6,1.23h-2.68l-.21.73c-.19.67-.41,1.46-.57,2.25-.16.58-.3,1.21-.43,1.9l0,.09c-.05.2-.09.39-.12.59-.15.67-.26,1.33-.39,2.11a1.3,1.3,0,0,0,0,.28c-.14.77-.24,1.54-.34,2.25s-.22,1.67-.31,2.54-.16,1.62-.22,2.63-.11,1.87-.14,2.69c-.09,2-.07,4.2,0,6.45a67.69,67.69,0,0,0,1.25,10.15l0,.21c.09.46.18.92.29,1.37a56.57,56.57,0,0,0,1.68,6,35.18,35.18,0,0,0,1.34,3.52c.25.6.49,1.16.74,1.69a17.28,17.28,0,0,0,.8,1.65c.5,1,1.07,2,1.71,3.1H123.06V73.08H106.64a1.62,1.62,0,0,1-.52-3.16A3.65,3.65,0,0,0,108.7,71h14.36V67.83H118.7a1.89,1.89,0,0,0-1.5-3H108l-.24-.22a36.07,36.07,0,0,1-9.51-16.11,1.15,1.15,0,0,1,0-.14c1.24-1.35,11.11-4.39,23.89-5.44l.92-.07V38.26h-5.49a1.63,1.63,0,0,1-1.63-1.62,2.13,2.13,0,0,1,0-.25,1.6,1.6,0,0,1,1.6-1.37h5.69l-1.35-1.64a5.66,5.66,0,0,1,3.7-9.24m.28-1h0A6.66,6.66,0,0,0,121.14,34h-3.57A2.61,2.61,0,0,0,115,36.26a2.22,2.22,0,0,0,0,.38,2.63,2.63,0,0,0,2.63,2.62h4.49v2.62c-12.69,1-23.63,4.18-24.73,6a1.07,1.07,0,0,0-.09.43,2.64,2.64,0,0,0,.05.36,37,37,0,0,0,9.81,16.64,2.63,2.63,0,0,0-1,2.09,2.67,2.67,0,0,0,.44,1.46h15.54V70H108.7a2.65,2.65,0,0,1-2.18-1.16,2.62,2.62,0,0,0,.12,5.24h15.42v52.16h19.66a38.76,38.76,0,0,1-2.64-4.54c-.29-.53-.55-1.07-.79-1.61s-.49-1.09-.73-1.67c-.49-1.12-.92-2.26-1.31-3.46a56,56,0,0,1-1.66-5.86c-.12-.51-.22-1-.32-1.55a67.13,67.13,0,0,1-1.23-10c-.1-2.16-.12-4.28,0-6.36,0-.9.07-1.77.13-2.65s.12-1.74.22-2.59.19-1.7.31-2.52.21-1.53.34-2.28a.53.53,0,0,1,0-.18c.12-.74.24-1.43.39-2.13a5,5,0,0,1,.14-.65c.12-.64.25-1.27.42-1.89s.36-1.49.57-2.21h1.92a2.64,2.64,0,0,0,2.65-2.62,1.93,1.93,0,0,0-.06-.49v0s0,0,0-.07h0s0,0,0,0,0,0,0-.09a.11.11,0,0,0,0-.08.06.06,0,0,0,0-.05c0-.15-.12-.29-.18-.43l-.06-.08a.17.17,0,0,0-.06-.12c-.06-.07-.09-.14-.16-.21a1,1,0,0,0-.17-.18.41.41,0,0,0-.1-.09,2.66,2.66,0,0,0-.65-.44,1.7,1.7,0,0,0-.41-.15s0,0-.07,0h0a2.44,2.44,0,0,0-.46-.07A3.42,3.42,0,0,0,138,68c0-.07,0-.15,0-.24a2.77,2.77,0,0,0,0-.42,1.94,1.94,0,0,0,0-.49,1.52,1.52,0,0,0-.12-.41,1.11,1.11,0,0,0-.12-.27,1.26,1.26,0,0,0-.13-.26,2.51,2.51,0,0,0-.19-.24,1.07,1.07,0,0,0-.21-.22c-.06-.07-.15-.12-.22-.19h0c.48-.46.94-.92,1.38-1.4s.72-.8,1.06-1.19.73-.9,1.09-1.36l0,0c.32-.46.64-.9,1-1.36.61-.92,1.19-1.84,1.69-2.72.27-.46.51-.9.73-1.33l.63-1.27c.1-.21.21-.41.29-.62.19-.39.36-.78.51-1.15A26.55,26.55,0,0,0,146.77,49a1,1,0,0,0,.07-.33s0,0,0,0,0-.05,0-.07h0a.2.2,0,0,1,0-.07.84.84,0,0,0,0-.19,1.47,1.47,0,0,0,0-.27s0-.05,0-.07,0-.05,0-.09a2,2,0,0,0-.2-.25c.08.07.13.14.19.2-.06-.13-.11-.3-.18-.46h0a5.9,5.9,0,0,0-.36-.63l-.22-.32c-.17-.23-.36-.46-.57-.72a3.36,3.36,0,0,0-.32-.37c-.22-.26-.48-.51-.73-.79L144,44.1l-.92-.83c-.32-.27-.68-.56-1-.83-.55-.43-1.13-.85-1.77-1.28L139,40.38l-.1-.05c-1-.61-2.13-1.21-3.31-1.77-.78-.36-1.58-.7-2.44-1h0a33.56,33.56,0,0,0-4-1.24v0a2.54,2.54,0,0,0-.51-1.19,1.3,1.3,0,0,0-.19-.22.31.31,0,0,0-.1-.1.77.77,0,0,0-.19-.17,2.15,2.15,0,0,0-.56-.34,1.34,1.34,0,0,0-.26-.09,2.5,2.5,0,0,0-.78-.13H126v0a6.07,6.07,0,0,0,.94-.82c.17-.17.32-.37.48-.56a5,5,0,0,0,.47-.73,3.92,3.92,0,0,0,.29-.58c.11-.22.19-.48.28-.71s.12-.43.17-.65a7.34,7.34,0,0,0,.13-1.34,4.21,4.21,0,0,0,0-.72c0-.1,0-.2,0-.3a2.72,2.72,0,0,0-.07-.33,3.18,3.18,0,0,0-.17-.66,2.19,2.19,0,0,0-.14-.41,5.35,5.35,0,0,0-.34-.73,5.93,5.93,0,0,0-.92-1.29,6.19,6.19,0,0,0-1.18-1.06ZM108.12,67.55a.89.89,0,1,1,0-1.77h9.08a.89.89,0,1,1,0,1.77Z"/><path class="cls-3" d="M114.06,37.54a3.63,3.63,0,0,0,3.51,2.72h3.49V41c-7.94.72-15.69,2.28-20.35,4a33,33,0,0,1,13.35-7.38m.92-1.28c-10,2.47-16.94,9-17.65,11.6,1.1-1.8,12-5,24.73-6V39.26h-4.49a2.63,2.63,0,0,1-2.63-2.62,2.22,2.22,0,0,1,0-.38Z"/><path class="cls-3" d="M129.17,36.26v0a33.56,33.56,0,0,1,4,1.24,31.85,31.85,0,0,0-4-1.26Z"/><path class="cls-3" d="M146.62,47.61a2,2,0,0,1,.2.25.43.43,0,0,1,0,0c-.06-.06-.11-.13-.19-.2Z"/><path class="cls-3" d="M146.84,47.86h0s0,.06,0,.09a.18.18,0,0,0,0-.09Z"/><path class="cls-3" d="M97.33,47.86a.42.42,0,0,0-.09.43,1.07,1.07,0,0,1,.09-.43Z"/><path class="cls-3" d="M117.2,65.78h-9.08a.87.87,0,0,0-.37.08,18.82,18.82,0,0,0,2.11,1.69h7.34a.89.89,0,1,0,0-1.77Z"/><path class="cls-3" d="M122.06,68.83H111.82A22.88,22.88,0,0,0,114.14,70h7.92V68.83Z"/><path class="cls-3" d="M146.62,47.61a2,2,0,0,1,.2.25.43.43,0,0,1,0,0c-.06-.06-.11-.13-.19-.2Z"/><path class="cls-3" d="M146.84,47.86h0s0,.06,0,.09,0,0,0,.07a.28.28,0,0,1,0,.17.43.43,0,0,0-.08-.33Z"/><path class="cls-3" d="M137.05,65.29h0c.07.07.16.12.22.19a1.26,1.26,0,0,0-.2-.2Z"/><path class="cls-3" d="M117.2,65.78h-9.08a.89.89,0,0,0,0,1.77h9.08a.89.89,0,1,0,0-1.77Z"/><path class="cls-3" d="M122.06,68.83H106.52A2.65,2.65,0,0,0,108.7,70h13.36V68.83Z"/><path class="cls-3" d="M136.25,115c.39,1.2.82,2.34,1.31,3.46-.48-1.12-.92-2.28-1.31-3.46Z"/><path class="cls-3" d="M139.08,121.7a38.76,38.76,0,0,0,2.64,4.54h0a40.45,40.45,0,0,1-2.68-4.54Z"/><path class="cls-3" d="M139.9,130.85c.44.21.87.41,1.29.63h.07c-.44-.22-.9-.44-1.36-.63Z"/><path class="cls-3" d="M122.12,161.36h-.06v0a.09.09,0,0,1,.06,0Z"/><path class="cls-3" d="M139.8,70.2c.06.14.13.28.18.43a1.33,1.33,0,0,0,0-.19,1.12,1.12,0,0,0-.13-.24Z"/><path class="cls-3" d="M140.07,70.88h0s0,0,0,.07a.17.17,0,0,0,0-.07Z"/><path class="cls-3" d="M141,132.48c.56.3,1.1.62,1.54.88.65.42,1.19.79,1.67,1.14l.32.25c.26.19.51.38.75.59.46.39.94.8,1.38,1.22a27.66,27.66,0,0,1,3.58,4.2,28.19,28.19,0,0,1,2.13,3.66,13.31,13.31,0,0,1,.59,1.29c.23.53.46,1.12.71,1.82a8.51,8.51,0,0,1,.27.85v.06c.09.29.19.59.27.9.2.74.36,1.38.48,2,.07.31.11.6.16.91s.14.79.19,1.23.07.61.1.91v0l0,.68.05.64c0,.5,0,1,0,1.54s0,.8,0,1.2c0,.09,0,.19,0,.28H123.06V132.48H141m.24-1H122.06v28.28h34.07c0-.41.07-.82.09-1.24s0-.84,0-1.24,0-1.06,0-1.57-.07-.9-.1-1.36-.07-.7-.12-1-.12-.83-.19-1.24-.1-.63-.17-.95c-.14-.68-.31-1.36-.49-2-.09-.33-.19-.65-.29-1s-.19-.64-.31-1c-.22-.63-.46-1.26-.72-1.85s-.39-.91-.61-1.35a30.07,30.07,0,0,0-2.2-3.78,28.76,28.76,0,0,0-3.72-4.35c-.46-.44-.94-.85-1.42-1.26s-.73-.58-1.1-.87c-.58-.42-1.16-.81-1.74-1.19s-1.22-.71-1.85-1Z"/><path class="cls-3" d="M146.62,47.61a2,2,0,0,1,.2.25.43.43,0,0,1,0,0c-.06-.06-.11-.13-.19-.2Z"/><path class="cls-3" d="M122.06,68.83H106.52A2.65,2.65,0,0,0,108.7,70h13.36V68.83Z"/><path class="cls-3" d="M139.8,70.2c.06.14.13.28.18.43a1.33,1.33,0,0,0,0-.19,1.12,1.12,0,0,0-.13-.24Z"/><path class="cls-2" d="M145.08,128.86a2.62,2.62,0,0,1-2.64,2.62h-1.18c-.44-.22-.9-.44-1.36-.63.44.21.87.41,1.29.63h-39.5a2.62,2.62,0,0,1,0-5.24h40.75a2.26,2.26,0,0,1,.53.06,2.58,2.58,0,0,1,.42.11,2.77,2.77,0,0,1,.48.26.77.77,0,0,1,.19.14,1.24,1.24,0,0,1,.22.18,2.53,2.53,0,0,1,.22.26,1.31,1.31,0,0,1,.19.27l.15.27c0,.09.07.19.11.29a.43.43,0,0,0,.05.12.09.09,0,0,0,0,.05,1.17,1.17,0,0,0,0,.26A2.07,2.07,0,0,1,145.08,128.86Z"/><path class="cls-2" d="M141.26,131.48h-.07c-.42-.22-.85-.42-1.29-.63C140.36,131,140.82,131.26,141.26,131.48Z"/><path class="cls-2" d="M141.26,131.48h-.07c-.42-.22-.85-.42-1.29-.63C140.36,131,140.82,131.26,141.26,131.48Z"/><path class="cls-3" d="M117.2,66a.64.64,0,0,1,.65.63.65.65,0,0,1-.65.64h-9.08a.63.63,0,0,1-.63-.64.6.6,0,0,1,.37-.57.55.55,0,0,1,.26-.06h9.08m0-.25h-9.08a.89.89,0,0,0,0,1.77h9.08a.89.89,0,1,0,0-1.77Z"/></g></g></svg>