<svg id="Partner_Page" data-name="Partner Page" xmlns="http://www.w3.org/2000/svg" viewBox="0 0 186 186"><defs><style>.cls-1{fill:none;}.cls-1,.cls-2{stroke:#282d33;stroke-miterlimit:10;}.cls-2{fill:#cdd5d7;}</style></defs><g id="Benefits"><g id="Resources_icon" data-name="Resources icon"><polygon class="cls-1" points="84.14 165 51.42 128.49 18.7 91.98 84.14 91.98 149.58 91.98 116.86 128.49 84.14 165"/><polygon class="cls-1" points="84.14 165 69.71 128.49 55.29 91.98 84.14 91.98 112.99 91.98 98.56 128.49 84.14 165"/><polygon class="cls-1" points="18.7 92.15 84.14 92.15 149.58 92.15 131.58 68.94 36.7 68.94 18.7 92.15"/><polygon class="cls-1" points="84.14 68.71 55.29 92.15 84.14 92.15 112.99 92.15 84.14 68.71"/><polygon class="cls-1" points="55.05 92.15 36.75 68.94 36.7 68.94 18.7 92.15 55.05 92.15"/><polygon class="cls-1" points="113.23 92.15 131.53 68.94 131.58 68.94 149.58 92.15 113.23 92.15"/><polygon class="cls-2" points="116.77 21.35 118.13 27.47 124.25 28.83 118.13 30.19 116.77 36.3 115.42 30.19 109.3 28.83 115.42 27.47 116.77 21.35"/><polygon class="cls-2" points="145.46 25.53 147.15 45.54 167.17 47.23 147.15 48.93 145.46 68.94 143.76 48.93 123.75 47.23 143.76 45.54 145.46 25.53"/><polygon class="cls-2" points="46.47 75.77 48.78 89.5 62.52 91.81 48.78 94.13 46.47 107.86 44.15 94.13 30.42 91.81 44.15 89.5 46.47 75.77"/></g></g></svg>