<svg xmlns="http://www.w3.org/2000/svg" viewBox="0 0 222.93 27.87"><defs><style>.cls-1{fill:#231f20;}.cls-2{fill:none;stroke:#231f20;stroke-miterlimit:10;}</style></defs><title>esteemed-talent-logo</title><g id="Layer_2" data-name="Layer 2"><g id="Layer_1-2" data-name="Layer 1"><path class="cls-1" d="M41.59,23.32a6.18,6.18,0,0,1-6.48-6.6c0-4.07,2.67-6.6,6.48-6.6A6,6,0,0,1,48,16.51a11.43,11.43,0,0,1-.07,1.15H39a2.38,2.38,0,0,0,2.43,2.46,2.09,2.09,0,0,0,2-1.24h4.19A6,6,0,0,1,41.59,23.32ZM39,15.47H44a2.21,2.21,0,0,0-2.41-2.2A2.43,2.43,0,0,0,39,15.47Z"/><path class="cls-1" d="M55.16,23.32c-3.42,0-5.72-1.91-5.91-4.4h3.89a1.8,1.8,0,0,0,2,1.5c1,0,1.54-.46,1.54-1,0-2.07-7-.57-7-5.29,0-2.18,1.86-4,5.22-4S60,12,60.29,14.49H56.66A1.69,1.69,0,0,0,54.77,13c-.92,0-1.42.36-1.42,1,0,2,6.94.59,7,5.38C60.36,21.64,58.38,23.32,55.16,23.32Z"/><path class="cls-1" d="M63.28,13.57H61.72V10.3h1.56V7.17h3.94V10.3h2.57v3.27H67.22v5.15c0,.76.32,1.08,1.19,1.08h1.4v3.33h-2c-2.66,0-4.53-1.12-4.53-4.46Z"/><path class="cls-1" d="M77.59,23.32a6.19,6.19,0,0,1-6.49-6.6c0-4.07,2.67-6.6,6.49-6.6A6,6,0,0,1,84,16.51a9.09,9.09,0,0,1-.07,1.15H75a2.38,2.38,0,0,0,2.44,2.46,2.11,2.11,0,0,0,2-1.24h4.18A6,6,0,0,1,77.59,23.32ZM75,15.47H80a2.22,2.22,0,0,0-2.42-2.2A2.42,2.42,0,0,0,75,15.47Z"/><path class="cls-1" d="M91.64,23.32a6.18,6.18,0,0,1-6.48-6.6c0-4.07,2.66-6.6,6.48-6.6A6,6,0,0,1,98,16.51,9.09,9.09,0,0,1,98,17.66H89.07a2.37,2.37,0,0,0,2.43,2.46,2.09,2.09,0,0,0,2-1.24h4.18A6,6,0,0,1,91.64,23.32Zm-2.55-7.85H94a2.21,2.21,0,0,0-2.41-2.2A2.43,2.43,0,0,0,89.09,15.47Z"/><path class="cls-1" d="M117.67,16.16a2.46,2.46,0,1,0-4.92,0v7h-3.91v-7a2.46,2.46,0,1,0-4.92,0v7H100V10.3h3.93v1.61a4.54,4.54,0,0,1,3.75-1.75A4.79,4.79,0,0,1,112,12.55a5.17,5.17,0,0,1,4.32-2.39c3.18,0,5.22,2,5.22,5.48v7.49h-3.91Z"/><path class="cls-1" d="M129.94,23.32a6.19,6.19,0,0,1-6.49-6.6c0-4.07,2.67-6.6,6.49-6.6a6,6,0,0,1,6.39,6.39,9.09,9.09,0,0,1-.07,1.15h-8.9a2.38,2.38,0,0,0,2.44,2.46,2.08,2.08,0,0,0,2-1.24H136A6,6,0,0,1,129.94,23.32Zm-2.56-7.85h4.92a2.21,2.21,0,0,0-2.41-2.2A2.43,2.43,0,0,0,127.38,15.47Z"/><path class="cls-1" d="M143.16,10.12a4.74,4.74,0,0,1,4,2V6.12h3.93v17h-3.93V21.29a4.44,4.44,0,0,1-4,2c-3.15,0-5.66-2.58-5.66-6.63S140,10.12,143.16,10.12Zm1.15,3.42a2.86,2.86,0,0,0-2.8,3.15,2.9,2.9,0,0,0,2.8,3.2,2.87,2.87,0,0,0,2.81-3.17A2.87,2.87,0,0,0,144.31,13.54Z"/><path class="cls-1" d="M160.58,11.93h-1.75V10.58h1.75V7.43h1.63v3.15h3.45v1.35h-3.45v7.8c0,1.54.53,2,2,2h1.47v1.38h-1.72c-2.19,0-3.36-.9-3.36-3.4Z"/><path class="cls-1" d="M173.46,10.39a5.23,5.23,0,0,1,5,2.95V10.58H180V23.13h-1.61V20.35a5.3,5.3,0,0,1-5,3c-3.42,0-6-2.56-6-6.49S170,10.39,173.46,10.39Zm.3,1.41c-2.65,0-4.67,1.84-4.67,5s2,5.08,4.67,5.08,4.66-1.93,4.66-5.06S176.33,11.8,173.76,11.8Z"/><path class="cls-1" d="M183.6,6.12h1.61v17H183.6Z"/><path class="cls-1" d="M194.18,23.32c-3.56,0-6.16-2.49-6.16-6.47s2.55-6.46,6.16-6.46a5.64,5.64,0,0,1,5.93,5.82,12.44,12.44,0,0,1,0,1.26H189.65A4.39,4.39,0,0,0,194.18,22a3.89,3.89,0,0,0,4-2.81h1.7A5.53,5.53,0,0,1,194.18,23.32Zm-4.53-7.16h8.83a4.11,4.11,0,0,0-4.37-4.39A4.33,4.33,0,0,0,189.65,16.16Z"/><path class="cls-1" d="M212.35,16c0-2.78-1.52-4.21-3.82-4.21s-4,1.47-4,4.53v6.85h-1.61V10.58h1.61v2.14a4.59,4.59,0,0,1,4.28-2.37c2.85,0,5.11,1.74,5.11,5.42v7.36h-1.59Z"/><path class="cls-1" d="M217.85,11.93H216.1V10.58h1.75V7.43h1.63v3.15h3.45v1.35h-3.45v7.8c0,1.54.53,2,2,2h1.47v1.38H221.2c-2.18,0-3.35-.9-3.35-3.4Z"/><polygon class="cls-2" points="8.99 11.9 11.43 16.86 16.9 17.65 12.95 21.51 13.88 26.95 8.99 24.38 4.1 26.95 5.03 21.51 1.07 17.65 6.54 16.86 8.99 11.9"/><polygon class="cls-2" points="20.65 1.13 22.19 4.25 25.63 4.75 23.14 7.18 23.73 10.62 20.65 9 17.56 10.62 18.15 7.18 15.66 4.75 19.11 4.25 20.65 1.13"/></g></g></svg>
