<svg id="Layer_1" data-name="Layer 1" xmlns="http://www.w3.org/2000/svg" viewBox="0 0 185.98 25.88"><defs><style>.cls-1{fill:#231f20;}.cls-2{fill:#ecc01c;}</style></defs><title>esteemed-logo-color-final-2</title><path class="cls-1" d="M45.51,24.73c-4.92,0-8.46-3.3-8.46-8.61s3.48-8.61,8.46-8.61,8.34,3.24,8.34,8.34a13,13,0,0,1-.09,1.5H42.15c.18,2.19,1.53,3.21,3.18,3.21A2.73,2.73,0,0,0,48,18.94h5.46A7.82,7.82,0,0,1,45.51,24.73ZM42.18,14.5H48.6a2.89,2.89,0,0,0-3.15-2.88A3.17,3.17,0,0,0,42.18,14.5Z" transform="translate(-2.09 -0.37)"/><path class="cls-1" d="M63.18,24.73c-4.47,0-7.47-2.49-7.71-5.73h5.07A2.35,2.35,0,0,0,63.12,21c1.32,0,2-.6,2-1.35,0-2.7-9.12-.75-9.12-6.9,0-2.85,2.43-5.19,6.81-5.19s6.72,2.4,7.05,5.7H65.13a2.21,2.21,0,0,0-2.46-1.89c-1.2,0-1.86.48-1.86,1.29,0,2.67,9.06.78,9.15,7C70,22.54,67.38,24.73,63.18,24.73Z" transform="translate(-2.09 -0.37)"/><path class="cls-1" d="M73.74,12h-2V7.75h2V3.67h5.13V7.75h3.36V12H78.87v6.72c0,1,.42,1.41,1.56,1.41h1.83v4.35H79.65c-3.48,0-5.91-1.47-5.91-5.82Z" transform="translate(-2.09 -0.37)"/><path class="cls-1" d="M92.37,24.73c-4.92,0-8.46-3.3-8.46-8.61s3.48-8.61,8.46-8.61,8.34,3.24,8.34,8.34a13,13,0,0,1-.09,1.5H89c.18,2.19,1.53,3.21,3.18,3.21a2.73,2.73,0,0,0,2.67-1.62h5.46A7.82,7.82,0,0,1,92.37,24.73ZM89,14.5h6.42a2.89,2.89,0,0,0-3.15-2.88A3.17,3.17,0,0,0,89,14.5Z" transform="translate(-2.09 -0.37)"/><path class="cls-1" d="M110.67,24.73c-4.92,0-8.46-3.3-8.46-8.61s3.48-8.61,8.46-8.61S119,10.75,119,15.85a13,13,0,0,1-.09,1.5H107.31c.18,2.19,1.53,3.21,3.18,3.21a2.73,2.73,0,0,0,2.67-1.62h5.46A7.82,7.82,0,0,1,110.67,24.73ZM107.34,14.5h6.42a2.89,2.89,0,0,0-3.15-2.88A3.17,3.17,0,0,0,107.34,14.5Z" transform="translate(-2.09 -0.37)"/><path class="cls-1" d="M144.6,15.4c0-2.19-1.26-3.39-3.21-3.39s-3.21,1.2-3.21,3.39v9.09h-5.1V15.4c0-2.19-1.26-3.39-3.21-3.39s-3.21,1.2-3.21,3.39v9.09h-5.13V7.75h5.13v2.1a5.91,5.91,0,0,1,4.89-2.28,6.25,6.25,0,0,1,5.7,3.12,6.73,6.73,0,0,1,5.64-3.12c4.14,0,6.81,2.64,6.81,7.14v9.78h-5.1Z" transform="translate(-2.09 -0.37)"/><path class="cls-1" d="M160.56,24.73c-4.92,0-8.46-3.3-8.46-8.61s3.48-8.61,8.46-8.61,8.34,3.24,8.34,8.34a13,13,0,0,1-.09,1.5H157.2c.18,2.19,1.53,3.21,3.18,3.21a2.73,2.73,0,0,0,2.67-1.62h5.46A7.82,7.82,0,0,1,160.56,24.73ZM157.23,14.5h6.42a2.89,2.89,0,0,0-3.15-2.88A3.17,3.17,0,0,0,157.23,14.5Z" transform="translate(-2.09 -0.37)"/><path class="cls-1" d="M177.78,7.51a6.14,6.14,0,0,1,5.16,2.55V2.29h5.13v22.2h-5.13v-2.4a5.79,5.79,0,0,1-5.16,2.64c-4.11,0-7.38-3.36-7.38-8.64S173.67,7.51,177.78,7.51Zm1.5,4.47c-1.92,0-3.66,1.44-3.66,4.11s1.74,4.17,3.66,4.17,3.66-1.47,3.66-4.14S181.23,12,179.28,12Z" transform="translate(-2.09 -0.37)"/><polygon class="cls-2" points="13.6 0 17.81 8.52 27.21 9.88 20.41 16.51 22.01 25.88 13.6 21.46 5.2 25.88 6.8 16.51 0 9.88 9.4 8.52 13.6 0"/></svg>