<svg id="Partner_Page" data-name="Partner Page" xmlns="http://www.w3.org/2000/svg" viewBox="0 0 186 186"><defs><style>.cls-1,.cls-3{fill:none;}.cls-1,.cls-2,.cls-4,.cls-5{stroke:#282d33;}.cls-1,.cls-2,.cls-3,.cls-4,.cls-5{stroke-miterlimit:10;}.cls-2{fill:#b7bec0;}.cls-3{stroke:#30363d;}.cls-4{fill:#cdd5d7;}.cls-5{fill:#484f59;}</style></defs><g id="Benefits"><g id="Consulting_icon" data-name="Consulting icon"><path class="cls-1" d="M135,107.63a4.89,4.89,0,0,1-6.56,2.18l-7.74-3.88a4.81,4.81,0,0,1-1-.69,5.06,5.06,0,0,1-1.17-.4l-4.26-2.13c-.09.3-.2.59-.32.89l9.7,4.86a4.88,4.88,0,1,1-4.37,8.73l-9.66-4.83-.42.85,4.11,2.05a4.89,4.89,0,0,1-4.37,8.74l-4.15-2.07a13.53,13.53,0,0,1-.78,1.19,4.88,4.88,0,0,1-6,7.36l-6.47-3.24L90.7,127a0,0,0,0,0,0,0c.16-.11.32-.24.48-.37a4.36,4.36,0,0,0,.43-.43,4.67,4.67,0,0,0,.71-1l1.72-3.44a4.89,4.89,0,1,0-8.74-4.37l-1.72,3.43a3.54,3.54,0,0,0-.23.53,3.12,3.12,0,0,0-.14.5.15.15,0,0,0,0,.09,2.26,2.26,0,0,0-.08.44,2,2,0,0,0,0,.35,4,4,0,0,0,0,.6h0l-3.4-1.7.25-.18.26-.2.22-.21a1.75,1.75,0,0,0,.23-.24,5.58,5.58,0,0,0,.38-.47c.13-.2.25-.4.36-.61l5-10a4.89,4.89,0,1,0-8.74-4.38l-5,10a4,4,0,0,0-.23.53c-.06.17-.11.35-.16.53a1.52,1.52,0,0,0,0,.21,1.13,1.13,0,0,0-.06.36,3.27,3.27,0,0,0,0,.54v.17a.88.88,0,0,0,0,.17h0l-3.41-1.7.26-.18c.08-.07.17-.13.24-.2l.24-.22c.08-.07.15-.15.22-.22a1.64,1.64,0,0,0,.21-.25,3.43,3.43,0,0,0,.24-.33l.13-.21c.06-.1.1-.2.16-.29l4.07-8.12a4.89,4.89,0,1,0-8.74-4.37l-4.06,8.11a3.93,3.93,0,0,0-.23.52c0,.14-.09.28-.13.42a2.29,2.29,0,0,0-.07.36,2.38,2.38,0,0,0-.06.37,2,2,0,0,0,0,.42.81.81,0,0,0,0,.15s0,.06,0,.09a1.1,1.1,0,0,0,0,.18h0l-3.85-1.92.26-.18.25-.2.23-.21a1.75,1.75,0,0,0,.23-.24c.13-.15.26-.31.38-.47s.25-.4.36-.61L60.77,105A4.89,4.89,0,0,0,52,100.66l-1.72,3.43a4.76,4.76,0,0,0-.5,2.42,11.39,11.39,0,0,1-4.38-5.24L55.93,69.7l1,.45L77,63.44v0L83.3,64l0-.07,6.52.69,5.74.55v.06h.14l1.79,5.69L91.55,69.6v-.06l-.14,0-.07,0s0,0,0,0l-6,1.2v-.07L79,72.06l-5.71,1.15,0,.06-.14,0L69.78,89.93l.34.09,2.76.57a8.5,8.5,0,0,0,10-6.62l.34-1.82,9.53-1,0-.12h0l.12,0s0,0,0,0c.1.15.21.29.32.43l0,0c.06.08.13.15.2.23l.07.09c.11.14.24.29.37.43s.37.41.56.61.39.39.61.58a5.7,5.7,0,0,0,.52.46c.18.15.36.31.55.45a6.07,6.07,0,0,0,.57.43l.53.38.55.36,0,0,.67.41a.6.6,0,0,1,.11.06l.64.34.18.09.57.27,0,0,.24.1.54.23.35.14.52.2.41.14.45.15.54.16c.13,0,.23.07.35.09l.92.23,1,.19h.13l.83.14h.07c.62.07,1.24.12,1.84.14l14.73,7.37a4.67,4.67,0,0,1,1,.7,4.77,4.77,0,0,1,1.17.4l7.54,3.78.19.09A4.89,4.89,0,0,1,135,107.63Z"/><path class="cls-2" d="M91.87,115.14a4.88,4.88,0,0,0-6.56,2.18l-1.71,3.43a4.88,4.88,0,1,0,8.73,4.37l1.72-3.43A4.87,4.87,0,0,0,91.87,115.14Z"/><path class="cls-2" d="M58.59,98.48A4.88,4.88,0,0,0,52,100.66l-1.72,3.43a4.89,4.89,0,1,0,8.74,4.37L60.77,105A4.88,4.88,0,0,0,58.59,98.48Z"/><path class="cls-2" d="M84.22,103.07a4.9,4.9,0,0,0-6.56,2.17l-5,10a4.88,4.88,0,1,0,8.73,4.37l5-10A4.89,4.89,0,0,0,84.22,103.07Z"/><path class="cls-2" d="M72.31,99.49a4.89,4.89,0,0,0-6.55,2.18l-4.06,8.12a4.88,4.88,0,1,0,8.73,4.37L74.5,106A4.89,4.89,0,0,0,72.31,99.49Z"/><path class="cls-2" d="M139.25,98.77,132.62,101l-7.54-3.78a4.77,4.77,0,0,0-1.17-.4,4.67,4.67,0,0,0-1-.7l-14.73-7.37-.94,0h0l-.9-.09h-.07l-.83-.14h-.13l-1-.19-.92-.23c-.12,0-.22-.07-.35-.09l-.54-.16-.45-.15-.41-.14-.52-.2-.32-.12,0,0-.54-.23-.24-.1,0,0-.57-.27-.18-.09-.64-.34a.6.6,0,0,0-.11-.06l-.67-.41,0,0-.55-.36-.53-.38a6.07,6.07,0,0,1-.57-.43c-.19-.14-.37-.3-.55-.45A5.7,5.7,0,0,1,95,83.5c-.22-.19-.42-.38-.61-.58s-.39-.41-.56-.61-.26-.29-.37-.43l-.07-.09c-.07-.08-.14-.15-.2-.23l0,0c-.11-.14-.22-.28-.32-.43,0,0,0,0,0,0s-.09-.11-.14-.17V81h0v.12l-9.53,1L82.89,84a8.5,8.5,0,0,1-10,6.62L70.12,90l-.34-.09L73.19,73.3l.14,0,0-.06L79,72.06l6.35-1.34v.07l6-1.2s0,0,0,0l.07,0,.14,0v.06l5.91,1.31,16.06,3.54,15.87-5.28Z"/><polygon class="cls-3" points="144.15 104.92 141.58 105.78 139.25 98.77 129.39 69.17 128.63 66.89 131.2 66.04 131.95 68.31 141.82 97.91 144.15 104.92"/><path class="cls-3" d="M154.86,101.35l-5.34,1.79a3.18,3.18,0,0,1-.07-.62,2.83,2.83,0,0,1,5.41-1.17Z"/><path class="cls-1" d="M158.25,55.34l-27.56,9.17L131.2,66l.75,2.27,9.87,29.6,2.33,7,2.51,7.54,27.56-9.18Zm-6,50a2.83,2.83,0,0,1-2.76-2.22,3.18,3.18,0,0,1-.07-.62,2.83,2.83,0,0,1,5.41-1.17,2.89,2.89,0,0,1,.25,1.17A2.84,2.84,0,0,1,152.28,105.36Z"/><path class="cls-1" d="M155.11,102.52a2.83,2.83,0,0,1-5.59.62,3.18,3.18,0,0,1-.07-.62,2.83,2.83,0,0,1,5.41-1.17A2.89,2.89,0,0,1,155.11,102.52Z"/><path class="cls-3" d="M37.12,103.47a2.61,2.61,0,0,1-.11.75l-5.37-1.78a2.84,2.84,0,0,1,5.48,1Z"/><polygon class="cls-3" points="56.83 67 55.93 69.7 45.43 101.27 43.7 106.45 41.09 105.58 43.51 98.31 53.42 68.53 54.22 66.13 56.83 67"/><path class="cls-1" d="M27.21,55.34l-16,48,27.56,9.18,2.29-6.89,2.42-7.27,9.91-29.78.8-2.4.54-1.62ZM37,104.22a2.83,2.83,0,0,1-5.56-.75,2.94,2.94,0,0,1,.19-1,2.84,2.84,0,0,1,5.48,1A2.61,2.61,0,0,1,37,104.22Z"/><path class="cls-1" d="M37.12,103.47a2.61,2.61,0,0,1-.11.75,2.83,2.83,0,0,1-5.56-.75,2.94,2.94,0,0,1,.19-1,2.84,2.84,0,0,1,5.48,1Z"/><path class="cls-4" d="M37.12,103.47a2.61,2.61,0,0,1-.11.75,2.83,2.83,0,0,1-5.56-.75,2.94,2.94,0,0,1,.19-1,2.84,2.84,0,0,1,5.48,1Z"/><path class="cls-5" d="M155.11,102.52a2.83,2.83,0,0,1-5.59.62,3.18,3.18,0,0,1-.07-.62,2.83,2.83,0,0,1,5.41-1.17A2.89,2.89,0,0,1,155.11,102.52Z"/></g></g></svg>