<svg id="Partner_Page" data-name="Partner Page" xmlns="http://www.w3.org/2000/svg" xmlns:xlink="http://www.w3.org/1999/xlink" viewBox="0 0 186 186"><defs><style>.cls-1,.cls-3,.cls-6{fill:none;}.cls-1,.cls-2,.cls-3,.cls-4{stroke:#282d33;}.cls-1,.cls-2,.cls-3,.cls-4,.cls-6{stroke-miterlimit:10;}.cls-2,.cls-4{fill:#cdd5d7;}.cls-2,.cls-3{stroke-width:0.5px;}.cls-5{clip-path:url(#clip-path);}.cls-6{stroke:#ccc;}</style><clipPath id="clip-path"><path class="cls-1" d="M92.84,23.69a68,68,0,1,0,68,68A68,68,0,0,0,92.84,23.69Zm0,107.7a39.74,39.74,0,1,1,39.73-39.73A39.74,39.74,0,0,1,92.84,131.39Z"/></clipPath></defs><g id="Benefits"><g id="Support_icon" data-name="Support icon"><path class="cls-2" d="M155.25,68.1c-3.27-3.25-7.83-13.39-11.5-21.54-2.55-5.67-4.76-10.56-6.1-12.3-2.91-3.73-16.19-12.58-26.27-12.58a14,14,0,0,0-2.74.25c-4.44.84-14.3,1.33-27,1.33-8.31,0-15.36-.22-17.4-.42-4.29-.42-9.17,3.31-15,11.44a150.43,150.43,0,0,1-12.4,14.47c-4.65,5-8.65,9.24-10.43,13-3.27,7-3.59,29.44-3.59,30.34-2.19,22.17,9.88,43.61,13.83,50.66S64.29,164.28,77,164.28a12.48,12.48,0,0,0,2.61-.26,54.08,54.08,0,0,1,10.87-1,129.74,129.74,0,0,1,19.08,1.74l1.39.2c.16,0,.31,0,.49,0,5.71,0,22.28-13.19,36.09-24.67,1.33-1.11,2.36-2,3-2.45,4.71-3.77,7.45-13.35,11.86-33.37C167.28,82.25,158.16,71,155.25,68.1ZM161,104.21c-4.24,19.3-7,29.09-11.37,32.57l-3,2.48c-8,6.66-29.28,24.34-35.2,24.34h-.3l-1.38-.21a134.88,134.88,0,0,0-19.28-1.73,55.54,55.54,0,0,0-11.16,1,11.65,11.65,0,0,1-2.32.22c-12.1,0-35.44-14.08-39.21-20.78C33.93,135.15,22,114,24.17,92.21c0-.23.32-23.07,3.47-29.83,1.7-3.6,5.63-7.81,10.18-12.67A147.56,147.56,0,0,0,50.34,35.09c5.45-7.58,10-11.24,13.76-10.86,2.05.21,9.17.42,17.53.42,7.52,0,21.07-.18,27.26-1.36a13,13,0,0,1,2.49-.22c9.51,0,22.46,8.57,25.17,12,1.25,1.6,3.52,6.66,5.93,12,3.92,8.69,8.34,18.53,11.77,21.95C157.05,71.87,165.76,82.64,161,104.21Z"/><path class="cls-3" d="M161,104.21c-4.24,19.3-7,29.09-11.37,32.57l-3,2.48c-8,6.66-29.28,24.34-35.2,24.34h-.3l-1.38-.21a134.88,134.88,0,0,0-19.28-1.73,55.54,55.54,0,0,0-11.16,1,11.65,11.65,0,0,1-2.32.22c-12.1,0-35.44-14.08-39.21-20.78C33.93,135.15,22,114,24.17,92.21c0-.23.32-23.07,3.47-29.83,1.7-3.6,5.63-7.81,10.18-12.67A147.56,147.56,0,0,0,50.34,35.09c5.45-7.58,10-11.24,13.76-10.86,2.05.21,9.17.42,17.53.42,7.52,0,21.07-.18,27.26-1.36a13,13,0,0,1,2.49-.22c9.51,0,22.46,8.57,25.17,12,1.25,1.6,3.52,6.66,5.93,12,3.92,8.69,8.34,18.53,11.77,21.95C157.05,71.87,165.76,82.64,161,104.21Z"/><rect class="cls-4" x="88.2" y="20.98" width="9.29" height="3.72"/><rect class="cls-4" x="88.2" y="159.7" width="9.29" height="3.71"/><path class="cls-1" d="M92.84,24.23a68,68,0,1,0,68,68A68,68,0,0,0,92.84,24.23Zm0,107.7A39.74,39.74,0,1,1,132.57,92.2,39.72,39.72,0,0,1,92.84,131.93Z"/><g class="cls-5"><polygon class="cls-6" points="92.84 92.5 71.93 44.57 51.01 -3.37 92.84 -3.37 134.66 -3.37 113.75 44.57 92.84 92.5"/><polygon class="cls-6" points="92.84 92.31 113.75 140.25 134.66 188.19 92.84 188.19 51.01 188.19 71.93 140.25 92.84 92.31"/><polygon class="cls-6" points="92.93 92.41 45 113.32 -2.94 134.23 -2.94 92.41 -2.94 50.58 45 71.5 92.93 92.41"/><polygon class="cls-6" points="92.75 92.41 140.68 71.5 188.62 50.59 188.62 92.41 188.62 134.23 140.68 113.32 92.75 92.41"/></g><path class="cls-1" d="M92.84,23.69a68,68,0,1,0,68,68A68,68,0,0,0,92.84,23.69Zm0,107.7a39.74,39.74,0,1,1,39.73-39.73A39.74,39.74,0,0,1,92.84,131.39Z"/></g></g></svg>