<svg xmlns="http://www.w3.org/2000/svg" viewBox="0 0 145 145"><defs><style>.cls-1{fill:#dde3e9;}.cls-2{fill:#b8cfeb;}.cls-3{font-size:11px;font-family:Lato-Bold, Lato;font-weight:700;}.cls-4{fill:#d4a181;}.cls-5{fill:#231f20;}.cls-6{fill:#ecc01c;}</style></defs><title>icon-brands</title><g id="Layer_2" data-name="Layer 2"><g id="Layer_1-2" data-name="Layer 1"><circle class="cls-1" cx="72.5" cy="72.5" r="72.5"/><rect class="cls-2" x="40" y="32" width="65" height="47"/><rect class="cls-1" x="88" y="52" width="28" height="28"/><rect class="cls-1" x="75" y="66" width="13" height="20.06"/><rect x="101.14" y="85.75" width="2.62" height="2.62"/><path d="M116.45,49.89h-9.16V33.36a3.59,3.59,0,0,0-3.59-3.59H40.88a3.59,3.59,0,0,0-3.59,3.59v44.5a3.59,3.59,0,0,0,3.59,3.59l23.53,0v7h-3.5V91H72.28v2.39a2,2,0,0,0,2,2H88.6a2,2,0,0,0,2-2v-.63h25.81a3.07,3.07,0,0,0,3.06-3.07V53A3.07,3.07,0,0,0,116.45,49.89ZM40.88,80.13V78.82a1,1,0,0,1-1-1V33.36a1,1,0,0,1,1-1h62.81a1,1,0,0,1,1,1V49.89H88.46A3.06,3.06,0,0,0,85.4,53V63.87l-11.15,0a2.1,2.1,0,0,0-2.1,2.11l.11,12.83-31.38.06ZM67,88.37v-7h5.25v7ZM88,92.8H74.9V81.38h0V66.51H88V92.8Zm28.86-3.12a.44.44,0,0,1-.43.44H90.64V65.93a2,2,0,0,0-2-2.05H88V53a.44.44,0,0,1,.44-.44h28a.44.44,0,0,1,.43.44Z"/><rect x="80.15" y="88.37" width="2.62" height="2.62"/><text class="cls-3" transform="translate(64.11 58.1)">&lt;/&gt;</text><ellipse class="cls-4" cx="44" cy="67.79" rx="16" ry="17.3"/><rect class="cls-4" x="36" y="85" width="16" height="7"/><path d="M49.62,73.5H38.78a1.59,1.59,0,0,0-1.13.5,1.93,1.93,0,0,0-.37,1.12,6.91,6.91,0,0,0,13.71,0A1.27,1.27,0,0,0,50.62,74,1.23,1.23,0,0,0,49.62,73.5Zm-.56,2.87H39.28a8.23,8.23,0,0,1-.5-1.37H49.5A4.59,4.59,0,0,1,49.06,76.37Z"/><path class="cls-5" d="M69.31,103.42l-1.74-6.48a11.26,11.26,0,0,0-9.47-8.42L54.05,88l-1.19-3.55a16.7,16.7,0,0,0,6.73-10.1c1.19-.62,3.06-2.18,3.06-6,0-2.81-.44-4.55-1.44-5.42a5.72,5.72,0,0,0-.68-.5c-.94-8.54-7.79-15.21-16.33-15.21S28.8,53.75,27.87,62.41a1.57,1.57,0,0,0-.62.44c-1.06,1-1.5,2.68-1.5,5.48,0,3.87,1.87,5.42,3.05,6a17.22,17.22,0,0,0,6.74,10.09L34.35,88l-4.05.56a11.33,11.33,0,0,0-9.47,8.42l-1.75,6.48a2.27,2.27,0,0,0,.44,2.06,2.31,2.31,0,0,0,1.81.87H67.07a2.14,2.14,0,0,0,1.81-.87A2.21,2.21,0,0,0,69.31,103.42Zm-36-44.75a1.08,1.08,0,0,1,1.38-1,43.64,43.64,0,0,0,9.53.94,43.74,43.74,0,0,0,9.54-.94,1.16,1.16,0,0,1,1.37,1c.18,1.37.31,3.12.5,4.61H32.86C33,61.73,33.17,60,33.35,58.67Zm19.32,6.48-.18,3.68A1.17,1.17,0,0,1,51.3,70H48.12a1.15,1.15,0,0,1-1.18-1.06l-.44-3.74Zm-10.78,0-.43,3.74A1.16,1.16,0,0,1,40.27,70H37.09a1.17,1.17,0,0,1-1.18-1.12l-.19-3.68ZM36.72,89.33l1.18-3.55a14.65,14.65,0,0,0,6.36,1.5,15.45,15.45,0,0,0,6.3-1.44l1.18,3.56A12.71,12.71,0,0,1,36.72,89.33Zm7.42-4.73c-6.24,0-11.66-4.8-12.9-11.47a1.45,1.45,0,0,0-1-1.06c-.19-.06-1.87-.56-1.87-3.74a9.11,9.11,0,0,1,.37-3h.44c0,.43.31,2.18.68,2.18h1.87a.75.75,0,0,0,.69-.75s.06-.62.12-1.56h1.13l.18,3.74a3.11,3.11,0,0,0,3.12,3h3.18a3.14,3.14,0,0,0,3.11-2.74l.5-4h.69l.5,4a3.1,3.1,0,0,0,3.11,2.74h3.18a3.11,3.11,0,0,0,3.12-3l.18-3.74h1.13c.06.94.12,1.56.12,1.56a.71.71,0,0,0,.69.75h1.87c.37,0,.68-1.75.68-2.18h.44a8.83,8.83,0,0,1,.37,3c0,3.18-1.68,3.68-1.81,3.74A1.55,1.55,0,0,0,57,73.13,13.2,13.2,0,0,1,44.14,84.6Z"/><circle cx="38.78" cy="67.58" r="1.43"/><circle cx="49.62" cy="67.58" r="1.43"/><polygon class="cls-6" points="44.75 95.51 41.88 99.45 37.01 99.33 39.87 103.27 38.24 107.87 42.88 106.36 46.75 109.33 46.75 104.46 50.77 101.7 46.13 100.19 44.75 95.51"/><rect class="cls-1" x="28.89" y="106.3" width="30.14" height="6.7"/></g></g></svg>
