<svg xmlns="http://www.w3.org/2000/svg" viewBox="0 0 145 145"><defs><style>.cls-1{fill:#dde3e9;}.cls-2{fill:#ecc01c;}.cls-3{fill:#4389c8;}.cls-4{fill:#fff;}.cls-5,.cls-6{fill:none;}.cls-5{stroke:#231f20;stroke-miterlimit:10;stroke-width:3px;}.cls-6{stroke:#1a1a1a;stroke-linecap:round;stroke-linejoin:round;stroke-width:2px;}</style></defs><title>icon-talent</title><g id="Layer_2" data-name="Layer 2"><g id="Layer_1-2" data-name="Layer 1"><circle class="cls-1" cx="72.5" cy="72.5" r="72.5"/><polygon class="cls-2" points="111.45 67.39 112.95 70.41 116.28 70.9 113.87 73.25 114.44 76.57 111.45 75 108.47 76.57 109.04 73.25 106.63 70.9 109.96 70.41 111.45 67.39"/><polygon class="cls-3" points="22.27 43.57 23.87 46.82 27.45 47.34 24.86 49.87 25.47 53.44 22.27 51.76 19.06 53.44 19.67 49.87 17.07 47.34 20.66 46.82 22.27 43.57"/><rect class="cls-4" x="46.27" y="38.01" width="51.41" height="71.53" rx="4"/><rect class="cls-5" x="46.27" y="38.01" width="51.41" height="71.53" rx="4"/><line class="cls-6" x1="60.04" y1="71.92" x2="85.04" y2="71.92"/><line class="cls-6" x1="59.69" y1="82.99" x2="84.69" y2="82.99"/><line class="cls-6" x1="60.03" y1="93.34" x2="85.03" y2="93.34"/><polygon class="cls-2" points="72.6 43.55 76.01 50.47 83.64 51.57 78.12 56.95 79.42 64.55 72.6 60.96 65.78 64.55 67.08 56.95 61.56 51.57 69.19 50.47 72.6 43.55"/><polygon class="cls-3" points="122.38 51.53 123.98 54.78 127.57 55.3 124.98 57.83 125.59 61.4 122.38 59.71 119.17 61.4 119.79 57.83 117.19 55.3 120.78 54.78 122.38 51.53"/><polygon class="cls-3" points="26.4 83.96 28 87.21 31.59 87.73 29 90.26 29.61 93.83 26.4 92.15 23.19 93.83 23.8 90.26 21.21 87.73 24.8 87.21 26.4 83.96"/><polygon class="cls-2" points="33.4 64.31 34.89 67.33 38.23 67.81 35.81 70.17 36.38 73.49 33.4 71.92 30.42 73.49 30.99 70.17 28.57 67.81 31.91 67.33 33.4 64.31"/><polygon class="cls-3" points="124.4 83.96 126 87.21 129.59 87.73 127 90.26 127.61 93.83 124.4 92.15 121.19 93.83 121.81 90.26 119.21 87.73 122.8 87.21 124.4 83.96"/></g></g></svg>
