<svg xmlns="http://www.w3.org/2000/svg" viewBox="0 0 145 145"><defs><style>.cls-1{fill:#dde3e9;}.cls-2{fill:#b8cfeb;}.cls-3,.cls-4{fill:none;}.cls-12,.cls-3,.cls-4{stroke:#231f20;stroke-miterlimit:10;}.cls-3{stroke-width:3px;}.cls-12,.cls-5{fill:#ecc01c;}.cls-6{fill:#d4a181;}.cls-7{fill:#231f20;}.cls-8{fill:#b28b67;}.cls-9{fill:#ec7249;}.cls-10{fill:#fff;}.cls-11{fill:#4388c7;}</style></defs><title>icon-agencies</title><g id="Layer_2" data-name="Layer 2"><g id="Layer_1-2" data-name="Layer 1"><circle class="cls-1" cx="72.5" cy="72.5" r="72.5"/><rect class="cls-2" x="31.3" y="38.84" width="86.7" height="62.16" rx="4"/><rect class="cls-3" x="63.02" y="100.48" width="16.17" height="14.02"/><line class="cls-3" x1="53.31" y1="114.5" x2="88.89" y2="114.5"/><line class="cls-4" x1="73.26" y1="37.41" x2="73.26" y2="99.41"/><polygon class="cls-5" points="53.21 93.93 51.83 95.83 49.48 95.77 50.86 97.67 50.07 99.88 52.3 99.16 54.17 100.58 54.17 98.24 56.1 96.91 53.87 96.18 53.21 93.93"/><rect class="cls-6" x="48.4" y="89.28" width="7.84" height="4.48"/><ellipse class="cls-6" cx="52.3" cy="80.85" rx="7.86" ry="9.07"/><path class="cls-7" d="M64.45,98.46l-.85-3.15A5.47,5.47,0,0,0,59,91.22L57,91l-.58-1.73a8.06,8.06,0,0,0,3.27-4.9,3,3,0,0,0,1.49-2.94c0-1.36-.22-2.21-.7-2.64a3.14,3.14,0,0,0-.33-.24,8,8,0,0,0-15.87,0,.77.77,0,0,0-.3.21,3.51,3.51,0,0,0-.73,2.67,3,3,0,0,0,1.48,2.94A8.41,8.41,0,0,0,48,89.25L47.46,91l-2,.27a5.49,5.49,0,0,0-4.6,4.09L40,98.46a1.11,1.11,0,0,0,.21,1,1.13,1.13,0,0,0,.88.42H63.36a1,1,0,0,0,.87-.42A1.07,1.07,0,0,0,64.45,98.46ZM47,76.72a.52.52,0,0,1,.67-.49,23.58,23.58,0,0,0,9.27,0,.55.55,0,0,1,.66.49c.09.66.15,1.51.24,2.24H46.73C46.79,78.2,46.88,77.38,47,76.72Zm9.39,3.15-.09,1.78a.57.57,0,0,1-.58.55H54.15a.57.57,0,0,1-.57-.52l-.22-1.81Zm-5.24,0-.21,1.81a.57.57,0,0,1-.57.52H48.79a.57.57,0,0,1-.57-.55l-.1-1.78ZM48.61,91.61l.57-1.72a7.19,7.19,0,0,0,3.09.72,7.6,7.6,0,0,0,3.06-.69l.58,1.72A6.17,6.17,0,0,1,48.61,91.61Zm3.6-2.3a6.57,6.57,0,0,1-6.27-5.57.69.69,0,0,0-.48-.51c-.09,0-.91-.28-.91-1.82a4.31,4.31,0,0,1,.18-1.48H45c0,.21.15,1.06.33,1.06h.91a.37.37,0,0,0,.33-.37s0-.3.06-.75h.55l.09,1.81a1.51,1.51,0,0,0,1.51,1.46h1.54a1.54,1.54,0,0,0,1.52-1.34L52,79.87h.33l.25,1.93a1.51,1.51,0,0,0,1.51,1.34h1.54a1.51,1.51,0,0,0,1.52-1.46l.09-1.81h.54c0,.45.07.75.07.75a.35.35,0,0,0,.33.37h.91c.18,0,.33-.85.33-1.06h.21a4.18,4.18,0,0,1,.18,1.48c0,1.54-.81,1.79-.87,1.82a.73.73,0,0,0-.52.51A6.41,6.41,0,0,1,52.21,89.31Z"/><circle cx="49.61" cy="81.05" r="0.7"/><circle cx="54.88" cy="81.05" r="0.7"/><polygon class="cls-5" points="52.56 94.05 51.29 95.79 49.14 95.73 50.4 97.47 49.68 99.5 51.73 98.84 53.44 100.15 53.44 98 55.22 96.78 53.17 96.11 52.56 94.05"/><rect class="cls-8" x="49.78" y="57.75" width="7.82" height="4.31"/><ellipse class="cls-8" cx="53.89" cy="50.49" rx="7.89" ry="7.62"/><path d="M65.74,66.92l-.82-3.11a5.35,5.35,0,0,0-4.52-4l-2-.27-.6-1.75.39-.27A16.35,16.35,0,0,0,63.5,56.1a.52.52,0,0,0,.16-.73,17.13,17.13,0,0,1-1.42-3.73,3.89,3.89,0,0,0,.33-1.6c0-1.36-.21-2.17-.69-2.59a1.05,1.05,0,0,0-.3-.24,7.85,7.85,0,0,0-15.68,0,.93.93,0,0,0-.27.21A3.49,3.49,0,0,0,44.91,50a3.89,3.89,0,0,0,.33,1.6,17.13,17.13,0,0,1-1.42,3.73.56.56,0,0,0,.15.73,16.48,16.48,0,0,0,5.28,1.41l.39.27L49,59.53l-2,.27a5.39,5.39,0,0,0-4.52,4l-.82,3.11a1,1,0,0,0,.21,1,1.13,1.13,0,0,0,.88.42H64.74a1,1,0,0,0,.87-.42A1.27,1.27,0,0,0,65.74,66.92ZM49.28,46.36a.51.51,0,0,0,.48.33h7.93a.51.51,0,0,0,.48-.33l.45-1.17A19.87,19.87,0,0,0,59,47.6H48.46a17.49,17.49,0,0,0,.37-2.41Zm8.5,2.17-.09,1.75a.57.57,0,0,1-.58.54H55.58a.56.56,0,0,1-.57-.51l-.22-1.81h3Zm-5.16,0-.21,1.81a.56.56,0,0,1-.57.51H50.3a.56.56,0,0,1-.57-.54l-.09-1.75h3Zm-2.5,11.64.61-1.75a6.84,6.84,0,0,0,6,0l.61,1.75A6.24,6.24,0,0,1,50.12,60.17Zm3.56-2.36a6.49,6.49,0,0,1-6.18-5.48.69.69,0,0,0-.48-.51c-.09,0-.88-.27-.88-1.81,0-1.3.24-1.63.37-1.72a.15.15,0,0,0,.09,0,6.75,6.75,0,0,1,.69,2,7.73,7.73,0,0,0,.87-1.72h.55l.09,1.81a1.48,1.48,0,0,0,1.5,1.42h1.54a1.51,1.51,0,0,0,1.48-1.33l.24-1.9h.33l.24,1.9a1.5,1.5,0,0,0,1.48,1.33h1.54a1.52,1.52,0,0,0,1.5-1.42l.09-1.81h.58a7.73,7.73,0,0,0,.87,1.72,6.75,6.75,0,0,1,.69-2,.22.22,0,0,1,.15,0c.06.06.3.39.3,1.69,0,1.51-.78,1.78-.87,1.81a.64.64,0,0,0-.48.51A6.63,6.63,0,0,1,53.68,57.81Z"/><polygon class="cls-5" points="53.79 62.77 52.43 64.63 50.13 64.57 51.48 66.43 50.71 68.61 52.9 67.89 54.73 69.3 54.73 66.99 56.63 65.69 54.44 64.98 53.79 62.77"/><ellipse class="cls-8" cx="93" cy="53" rx="7" ry="8"/><circle class="cls-7" cx="89.5" cy="53.5" r="0.5"/><circle class="cls-7" cx="95.5" cy="53.5" r="0.5"/><path class="cls-7" d="M84.76,62.35l2.72,1,.4-2.94-2.76.24a1.62,1.62,0,0,0-1.06.43,1.51,1.51,0,0,0,0,2.13,1.52,1.52,0,0,0,1.06.44l2.76-.24A1.59,1.59,0,0,0,88.94,63a1.51,1.51,0,0,0,.41-.86,1.4,1.4,0,0,0-.17-1l-.24-.3a1.49,1.49,0,0,0-.66-.39l-2.73-1a1.49,1.49,0,0,0-1.15.15,1.52,1.52,0,0,0-.69.9,1.49,1.49,0,0,0,.15,1.15l.23.31a1.54,1.54,0,0,0,.67.38Z"/><path class="cls-7" d="M89.78,47.41a6.66,6.66,0,0,0,3.77,2.78,12.94,12.94,0,0,0,2.76.46,18,18,0,0,1,2.76.18c.43.1.34.1.36.51s0,1,0,1.54c0,1,0,2,0,3.08a60,60,0,0,0,.16,6.29l.83-1.08a8.57,8.57,0,0,1-2.81.18l1,.56c-.26-.55-.2-.65.22-1s.69-.57,1-.86a4.9,4.9,0,0,0,1.73-2.2l-2,.27c-.14-.33,0-.16-.24.16s-.26.4-.37.6a4.58,4.58,0,0,0-.33.71c-.08.25-.31.65.1.65a1.13,1.13,0,0,0,0,2.25,1.86,1.86,0,0,0,1.65-.91c.3-.49.26-1.07.52-1.56.56-1.06,1.15-1.82.61-3-.42-1-1.78-.55-2,.27-.22.64-1.08,1.15-1.58,1.55a3.91,3.91,0,0,0-1.65,2.19c-.16.94.26,2.42,1.29,2.64a8.58,8.58,0,0,0,3.56-.24,1.13,1.13,0,0,0,.82-1.09,63.06,63.06,0,0,1-.16-6.45c0-1.12,0-2.25,0-3.38a4.64,4.64,0,0,0-.53-2.85c-1.09-1.43-3.45-1-5-1.18s-3.52-.61-4.45-2.12c-.76-1.22-2.71-.1-1.94,1.14Z"/><path class="cls-7" d="M88.91,60c-1.17-.4-.77-1.7-1.57-2.41a1.62,1.62,0,0,0-1.52-.36,1.52,1.52,0,0,0-.64.42,1.56,1.56,0,0,0-.27.4q-.3.51.42-.09l1,.55c.06.11.35-.6.39-.74a2.08,2.08,0,0,0,0-1.28,2.29,2.29,0,0,1-.29-.83c0-.42.08-.84.09-1.26,0-1.73-.46-3.47,0-5.17l-.52.67a4.13,4.13,0,0,0,1.17-1.6,6.7,6.7,0,0,1,1.37-1.72,6.58,6.58,0,0,1,3.86-1.71,7,7,0,0,1,4.28,1.08,9.83,9.83,0,0,1,3.17,4l1.77-1.37a8.29,8.29,0,0,0-4.34-1.85,16.17,16.17,0,0,0-2.31.1c-.68,0-1.24-.75-1.8-1.09-1.19-.73-3.34-1.42-4.45-.24-.56.59-.75,1.19-1.51,1.6a2.84,2.84,0,0,0-1.51,1.28c-.29.69,0,1.79,1,1.7a2.17,2.17,0,0,0,2-2.14c.06-.49.06-.84.52-1.12a3.13,3.13,0,0,1,1.6-.29,4.55,4.55,0,0,1,1.6.17c.56.19,1,.55,1.6.76,1.06.41,2.29.16,3.32.6s2.34-.79,1.36-1.77A8.92,8.92,0,0,0,93,43.65c-1.45-.13-1.44,2.13,0,2.25a6.53,6.53,0,0,1,4,1.93l1.37-1.76c-1.18-.51-2.42-.31-3.59-.72-.65-.23-1.21-.66-1.87-.87a6.64,6.64,0,0,0-1.77-.25A5.52,5.52,0,0,0,87.7,45a3.22,3.22,0,0,0-1,1.19,3,3,0,0,0-.23.77c0,.2-.06.4-.07.6s0,.38.25.18l1,1.69c.16-.37.79-.51,1.14-.75a4.8,4.8,0,0,0,1.31-1.31c.25-.36.17-.43.6-.29a6,6,0,0,1,.83.24A7.44,7.44,0,0,1,93,48.43c1.16.85,2.23.43,3.54.45A5.69,5.69,0,0,1,100,50.13a1.13,1.13,0,0,0,1.77-1.37,11.11,11.11,0,0,0-5.16-5.38,8.92,8.92,0,0,0-9.87,1.77,10.73,10.73,0,0,0-1.08,1.26c-.33.47-.51,1-.84,1.48a3.33,3.33,0,0,0-.68,1.47A9.93,9.93,0,0,0,84,51.47a39.11,39.11,0,0,1,.09,4.05,3.16,3.16,0,0,0,.09,1.06,2.87,2.87,0,0,0,.15.37c0,.09.16.48.17.21,0,.26-.29.61-.36.87a2.15,2.15,0,0,0,0,1,1.35,1.35,0,0,0,1.39,1.14,1.43,1.43,0,0,0,.85-.35c.24-.22.33-.56.56-.76l-.8.33c-.28,0-.39-.68-.37-.14a2.18,2.18,0,0,0,.15.57,3.46,3.46,0,0,0,.54,1,3.86,3.86,0,0,0,1.87,1.3c1.37.46,2-1.71.6-2.17Z"/><ellipse cx="94" cy="79" rx="10" ry="9"/><rect class="cls-8" x="90" y="89.16" width="7.82" height="4.31"/><ellipse class="cls-8" cx="94.21" cy="81.9" rx="7.79" ry="7.62"/><path d="M106,98.33l-.82-3.11a5.33,5.33,0,0,0-4.52-4l-2-.28-.6-1.74.39-.28a16.48,16.48,0,0,0,5.28-1.41.53.53,0,0,0,.15-.73,17.13,17.13,0,0,1-1.42-3.73,3.89,3.89,0,0,0,.33-1.6c0-1.36-.21-2.17-.69-2.59a1.05,1.05,0,0,0-.3-.24,7.85,7.85,0,0,0-15.68,0,.93.93,0,0,0-.27.21,3.49,3.49,0,0,0-.72,2.62,3.89,3.89,0,0,0,.33,1.6A17.13,17.13,0,0,1,84,86.78a.55.55,0,0,0,.16.73,16.35,16.35,0,0,0,5.27,1.41l.39.28-.6,1.74-2,.28a5.37,5.37,0,0,0-4.52,4L82,98.33a1,1,0,0,0,.21,1,1.11,1.11,0,0,0,.87.42H105a1,1,0,0,0,.88-.42A1.32,1.32,0,0,0,106,98.33ZM89.5,77.77a.51.51,0,0,0,.48.33h7.93a.51.51,0,0,0,.48-.33l.45-1.17A18.2,18.2,0,0,0,99.21,79H88.69a19,19,0,0,0,.36-2.41Zm.84,13.81L91,89.83a6.87,6.87,0,0,0,6,0l.6,1.75A6.24,6.24,0,0,1,90.34,91.58Zm3.56-2.35a6.5,6.5,0,0,1-6.18-5.49.69.69,0,0,0-.48-.51c-.09,0-.87-.27-.87-1.81,0-1.3.24-1.63.36-1.72a.15.15,0,0,0,.09,0,6.75,6.75,0,0,1,.69,2,8.24,8.24,0,0,0,.88-1.72h.54L89,81.72a1.48,1.48,0,0,0,1.51,1.42h1.53a1.5,1.5,0,0,0,1.48-1.33l.24-1.9h.33l.24,1.9a1.51,1.51,0,0,0,1.48,1.33h1.54a1.52,1.52,0,0,0,1.5-1.42L99,79.91h.58a7.73,7.73,0,0,0,.87,1.72,6.75,6.75,0,0,1,.69-2c.07,0,.13,0,.16,0s.3.39.3,1.69c0,1.51-.79,1.78-.88,1.81a.64.64,0,0,0-.48.51A6.62,6.62,0,0,1,93.9,89.23Z"/><circle cx="91.34" cy="81.09" r="0.69"/><circle cx="96.52" cy="81.09" r="0.69"/><polygon class="cls-5" points="94.01 94.18 92.65 96.04 90.35 95.98 91.7 97.84 90.93 100.02 93.12 99.31 94.95 100.71 94.95 98.41 96.85 97.1 94.66 96.39 94.01 94.18"/><path class="cls-2" d="M82.35,86.67a5.92,5.92,0,0,0,1.43,2.16,4.75,4.75,0,0,0,1.31.8l1.37.58a1.16,1.16,0,0,0,.56.18,1.22,1.22,0,0,0,.6,0,1.51,1.51,0,0,0,.9-.69,1.54,1.54,0,0,0,.15-1.15,1.43,1.43,0,0,0-.69-.9l-1.24-.53a4.27,4.27,0,0,1-1.06-.55l.3.24a3,3,0,0,1-.49-.51l.23.3a6.75,6.75,0,0,1-.78-1.42,1.49,1.49,0,0,0-.9-.69,1.5,1.5,0,0,0-1.84,1.05l0,.4a1.57,1.57,0,0,0,.2.76Z"/><path class="cls-2" d="M83.48,85.63a1.5,1.5,0,0,0,0-3,1.5,1.5,0,0,0,0,3Z"/><path class="cls-2" d="M104.11,88.87a5,5,0,0,0,1.24-1.47,1.53,1.53,0,0,0-.23-1.82,1.56,1.56,0,0,0-1.82-.23,9.55,9.55,0,0,0-2.06,1.8l-.22.2.08-.06-.15.11a6.16,6.16,0,0,1-.55.33,12.09,12.09,0,0,1-1.26.6L101,90.69s.24-.2,0-.06,0,0,.06,0l.33-.22a6.2,6.2,0,0,0,.86-.67,9.93,9.93,0,0,0,1.23-1.59,8,8,0,0,0,.45-.73c.07-.13.12-.26.18-.39s.11-.27.17-.4,0-.06,0,0,0,0,0-.08c.26-.52.65-1,.92-1.48a1.5,1.5,0,1,0-2.59-1.51c-.26.48-.62.91-.87,1.39a5.05,5.05,0,0,0-.24.53l-.11.26.07-.18-.08.18a7.37,7.37,0,0,1-.45.77l-.48.68s-.16.22,0,0l0,.06-.27.3-.13.12c-.19.16,0,0,.06,0a1.9,1.9,0,0,0-.33.22,5.37,5.37,0,0,0-.89.68,1.5,1.5,0,0,0-.12,2,1.44,1.44,0,0,0,.78.54,1.71,1.71,0,0,0,1.15-.16,9.52,9.52,0,0,0,2.59-1.53c.3-.27.57-.58.85-.87a5.33,5.33,0,0,1,.42-.4c.11-.1.08-.08-.12.08l.14-.1.28-.16-2-2.06-.18.3-.1.14c.06-.1.2-.25,0-.07a4.18,4.18,0,0,1-.53.5,1.5,1.5,0,0,0,0,2.12,1.52,1.52,0,0,0,1.06.44,1.76,1.76,0,0,0,1.06-.44Z"/><path class="cls-2" d="M88.78,88.29c-.2-.09.12.11.11.12a.57.57,0,0,1-.11-.11c-.09-.09-.16-.18-.24-.27L88,87.38a15.24,15.24,0,0,1-1-1.23l.07.1-.09-.15c-.06-.11-.12-.21-.17-.32s-.2-.44-.32-.65a5.11,5.11,0,0,0-.41-.62c-.12-.18-.26-.35-.39-.51l-.12-.13c-.06-.07,0-.05,0,.06a.68.68,0,0,1,.18.32l.05.4v-.06l-.06.4,0-.06-.39.66,0,0-1.81.24c.13.07.08,0-.14-.13q.1.11,0-.06c-.17-.23,0,0,0,0l-.09-.2s0,.09,0,.13,0,.14,0,.2c.1.42.17.84.23,1.27l-.06-.4c0,.36.08.72.11,1.08a1.5,1.5,0,0,0,3,0,18.24,18.24,0,0,0-.32-2.45,2.82,2.82,0,0,0-1.3-2.08,1.54,1.54,0,0,0-1.82.24,1.75,1.75,0,0,0-.23,2.11,3.22,3.22,0,0,0,.44.55l.11.13c-.28-.28-.1-.12,0,0,.34.48.52,1,.84,1.52a17.79,17.79,0,0,0,1.35,1.66,5.39,5.39,0,0,0,1.51,1.5,1.54,1.54,0,0,0,1.15.15,1.49,1.49,0,0,0,.9-.69,1.52,1.52,0,0,0-.54-2Z"/><path class="cls-9" d="M80,67.82V65.41C80,64.08,81.8,63,84,63h18c2.2,0,4,1.08,4,2.41v2.41"/><rect class="cls-8" x="88" y="63" width="3" height="2"/><polygon class="cls-8" points="95.47 65.38 92.99 66.91 90.43 65.53 90.34 62.63 92.81 61.1 95.38 62.47 95.47 65.38"/><rect class="cls-8" x="90" y="60" width="6" height="3"/><polygon class="cls-8" points="99 64 94 66 94 63 97 63 99 64"/><path class="cls-7" d="M102.76,62.84h-.42V51.36a9.36,9.36,0,0,0-18.72,0V62.84H83.2a3,3,0,0,0-3,3v1.7h.85v-1.7a2.13,2.13,0,0,1,2.13-2.13h3.08l1.19,4,.81-.24-1-3.2,5.44,3.26a.43.43,0,0,0,.22.06.46.46,0,0,0,.22-.06l5.44-3.26-1,3.2.81.24,1.19-4h3.08a2.14,2.14,0,0,1,2.13,2.13v1.7h.85v-1.7A3,3,0,0,0,102.76,62.84Zm-14.63.85h1.45a.42.42,0,0,0,.42-.42V60.86a6.59,6.59,0,0,0,2.89.7h.17a6.6,6.6,0,0,0,2.9-.7v2.41a.42.42,0,0,0,.42.42h1.44L93,66.6Zm10.8-12.08-.58.58a2.49,2.49,0,0,0-.54-.88c.37,0,.74,0,1.12,0v.26Zm-5.49,1h-.92A2.57,2.57,0,0,0,90,50.51a2.54,2.54,0,0,0-2.39,1.68L87,51.61V50.48a3.42,3.42,0,0,0,2.68-2c.84,1,2.62,1.88,4.92,2.38A2.55,2.55,0,0,0,93.44,52.63ZM87,52.81l.44.43a2.55,2.55,0,0,0,5.06.24h.92a2.55,2.55,0,0,0,5.06-.24l.43-.43v1.85a6,6,0,0,1-5.88,6.05H92.9A6,6,0,0,1,87,54.66Zm12.34,10H96.81V60.36a6.93,6.93,0,0,0,3-5.7V50.93a.42.42,0,0,0-.42-.42c-5.6,0-9.36-1.76-9.36-3.41a.43.43,0,0,0-.85,0,2.56,2.56,0,0,1-2.55,2.56.42.42,0,0,0-.43.42v4.58a6.94,6.94,0,0,0,3,5.7v2.48H84.47V51.36a8.51,8.51,0,1,1,17,0V62.84Z"/><line class="cls-4" x1="116.09" y1="68.22" x2="29.59" y2="68.22"/><polygon class="cls-6" points="58 84 46 83 47 78 57 78 58 84"/><path class="cls-6" d="M54.66,79a4.09,4.09,0,0,0,.07.6,2.83,2.83,0,0,0,.23.54l-.16-.36a.19.19,0,0,1,0,.07l0-.4a1.77,1.77,0,0,0,0,.23,2.87,2.87,0,0,0,.07.5l0,.11a1.26,1.26,0,0,0,.27.51,1,1,0,0,0,.42.38l.36.15a1,1,0,0,0,.6,0,.69.69,0,0,0,.37-.1,1.11,1.11,0,0,0,.49-.31l.23-.3a1.48,1.48,0,0,0,.21-.76c0-.31,0-.61,0-.92a1.06,1.06,0,0,0-.13-.58,1.08,1.08,0,0,0-.31-.48,1,1,0,0,0-.48-.31,1.06,1.06,0,0,0-.58-.13l-.4,0a1.49,1.49,0,0,0-.66.39l-.23.3a1.48,1.48,0,0,0-.21.76c0,.31,0,.61,0,.92l2.94-.4a.75.75,0,0,1,0-.16l.06.4a.65.65,0,0,1,0-.24,1.41,1.41,0,0,0-.07-.5c-.06-.16-.13-.3-.19-.45l.15.36a.57.57,0,0,1,0-.14l.05.4s0-.11,0-.16a1.06,1.06,0,0,0-.13-.58,1.14,1.14,0,0,0-.31-.48,1.08,1.08,0,0,0-.48-.31,1.15,1.15,0,0,0-.58-.13l-.4,0a1.59,1.59,0,0,0-.66.39l-.23.3a1.48,1.48,0,0,0-.21.76Z"/><path class="cls-6" d="M48.25,80.74a1.5,1.5,0,0,0,0-3,1.5,1.5,0,0,0,0,3Z"/><path class="cls-6" d="M48.22,80.74a1.5,1.5,0,0,0,0-3,1.5,1.5,0,0,0,0,3Z"/><path class="cls-6" d="M48.22,80.74a1.5,1.5,0,0,0,0-3,1.5,1.5,0,0,0,0,3Z"/><path class="cls-6" d="M48.22,80.68a1.5,1.5,0,0,0,0-3,1.5,1.5,0,0,0,0,3Z"/><path class="cls-6" d="M48.19,80.74a1.5,1.5,0,0,0,0-3,1.5,1.5,0,0,0,0,3Z"/><path class="cls-6" d="M48.16,81.07a1.5,1.5,0,0,0,0-3,1.5,1.5,0,0,0,0,3Z"/><path class="cls-6" d="M48.09,81.48a1.5,1.5,0,0,0,0-3,1.5,1.5,0,0,0,0,3Z"/><path class="cls-6" d="M48.05,81.53a1.5,1.5,0,0,0,0-3,1.5,1.5,0,0,0,0,3Z"/><path class="cls-8" d="M88.64,54a1.5,1.5,0,0,0,0-3,1.5,1.5,0,0,0,0,3Z"/><path class="cls-8" d="M88.45,53.76a1.5,1.5,0,0,0,0-3,1.5,1.5,0,0,0,0,3Z"/><path class="cls-8" d="M89.42,53.3c-.32.05.12,0,.23,0-.12,0-.2,0,0,0l.25,0c.36.09.71.22,1.06.34a5.82,5.82,0,0,0,2.33.41,6.77,6.77,0,0,0,1.34-.27c-.13,0-.12,0,0,0s.17,0,0,0c.19.06.37.11.55.18a3.49,3.49,0,0,0,3,.06,1.49,1.49,0,0,0,.71-1.5,1.53,1.53,0,0,0-1.07-1.25,4,4,0,0,0-1.68-.2,1.5,1.5,0,0,0,0,3,2.81,2.81,0,0,1,.58,0c-.3,0,.24.08.3.11l-.36-2.75a.42.42,0,0,1,.27-.06c-.18,0-.18,0,0,0a2.35,2.35,0,0,1-.52-.14,7.19,7.19,0,0,0-1.1-.39,3.78,3.78,0,0,0-1.64.07l-.55.14c.32-.08-.15,0-.24,0s-.17,0,0,0l-.25,0a4.43,4.43,0,0,1-.49-.13l-1-.34a5.39,5.39,0,0,0-2.55-.21,1.49,1.49,0,0,0-1,1.84,1.55,1.55,0,0,0,1.84,1Z"/><path class="cls-8" d="M88.43,55.81c1.71.25,3.42.41,5.15.51.8,0,1.61.09,2.42.12a2.39,2.39,0,0,0,2.32-1.09,1.5,1.5,0,1,0-2.59-1.51,1,1,0,0,1,.55-.4c-.13,0-.13,0,0,0h-.15l-1-.05-2-.11c-.67,0-1.34-.09-2-.16l-1-.1L89.63,53h-.08l-.32-.05A1.54,1.54,0,0,0,87.39,54a1.52,1.52,0,0,0,1,1.85Z"/><path class="cls-8" d="M89.08,78.86l-.19.18a1.21,1.21,0,0,0-.31.49,1.11,1.11,0,0,0-.13.57,1.15,1.15,0,0,0,.13.58,1.11,1.11,0,0,0,.31.48l.31.24a1.5,1.5,0,0,0,.75.2l.4,0a1.39,1.39,0,0,0,.66-.39L91.2,81a1.11,1.11,0,0,0,.31-.49,1.14,1.14,0,0,0,.13-.57,1.15,1.15,0,0,0-.13-.58,1,1,0,0,0-.31-.48l-.3-.24a1.47,1.47,0,0,0-.76-.2l-.4,0a1.49,1.49,0,0,0-.66.39Z"/><path class="cls-8" d="M91.32,79.79l0-.08v.8l0-.08-.39.66L91,81l-.66.38.07,0-1.84-1.05c.2,1.4.19,3.11,1.61,3.88a5.28,5.28,0,0,0,2.32.45c.68,0,1.36,0,2,0a7.11,7.11,0,0,1,1.75.19,3.73,3.73,0,0,0,2.63,0,1.67,1.67,0,0,0,.86-1.13,3.88,3.88,0,0,0-.12-1.44c0,.26,0-.14,0-.19s0-.3,0-.45c0-.33-.06.11,0-.19s.1-.38.17-.57a1.52,1.52,0,0,0-1.05-1.84,1.53,1.53,0,0,0-1.85,1A6.35,6.35,0,0,0,96.65,82a5,5,0,0,0,.06.87c0,.17,0,.33.07.49l0,.15c.08.4.13.19.16-.63l.53-.54-.1.06.75-.21a1.23,1.23,0,0,1-.27,0c-.1,0-.22,0-.06,0a5.61,5.61,0,0,1-.59-.13,11.07,11.07,0,0,0-1.49-.26,23.74,23.74,0,0,0-2.67-.09c-.43,0-.86,0-1.29-.07-.26,0,.19.07,0,0,0,0-.3-.07-.13,0s-.08-.11,0,0a1.93,1.93,0,0,0,.17.21c.09.1,0,0,0-.11a2,2,0,0,1-.05-.24c0-.2-.06-.39-.09-.58l-.19-1.34a1.51,1.51,0,0,0-1.85-1,1.75,1.75,0,0,0-1.19,2.09,1.51,1.51,0,0,0,1.85,1,1.55,1.55,0,0,0,1-1.84Z"/><path class="cls-8" d="M99.42,83.1a1.5,1.5,0,0,0,0-3,1.5,1.5,0,0,0,0,3Z"/><path class="cls-8" d="M88.36,83.2a1.5,1.5,0,0,0,0-3,1.5,1.5,0,0,0,0,3Z"/><path class="cls-8" d="M91.33,81.85l1.14.24a1.58,1.58,0,0,0,1.7-.69,1.8,1.8,0,0,0,.27-1l-1.5,1.5q2.7-.21,5.38-.64l-1.9-1.44c0-.25,0-.3,0-.14s0,.12-.05.17c.1-.21.11-.25,0-.11l0,.08-.1.15c.15-.18.17-.22.06-.1l-.13.12c.18-.13.22-.16.12-.1l-.12.07c-.15.07-.12.06.08,0l-.19,0,.15,0a.75.75,0,0,1-.15,0c-.16,0-.13,0,.1,0,0,0-.35-.1-.38-.11a1.5,1.5,0,0,0-1.84,1,1.53,1.53,0,0,0,1,1.84,3.24,3.24,0,0,0,2.9-.34,3.49,3.49,0,0,0,1.5-2.61,1.41,1.41,0,0,0-.59-1.18,1.57,1.57,0,0,0-1.31-.27c-.4.07-.81.12-1.21.18s.17,0,0,0l-.31,0-.6.08c-.81.09-1.63.17-2.44.23a1.53,1.53,0,0,0-1.5,1.5l.14-.52,1.69-.69L92.13,79a1.5,1.5,0,1,0-.8,2.89Z"/><path d="M89.38,77a.11.11,0,0,1,0,0l0,.39v-.13l0,.39a.74.74,0,0,1,0-.14l-.15.36a.5.5,0,0,1,.08-.14L89.1,78a.47.47,0,0,1,.1-.1l-.3.23L89,78l-.36.15.14,0-.4.06h.16l-.4-.06.14,0L87.93,78l.13.07-.31-.23h0a1.21,1.21,0,0,0,.49.31,1.22,1.22,0,0,0,.57.13,1.27,1.27,0,0,0,.58-.13,1.11,1.11,0,0,0,.48-.31l.24-.31a1.5,1.5,0,0,0,.2-.75l0-.4a1.39,1.39,0,0,0-.39-.66,2.24,2.24,0,0,0-.38-.29,2.8,2.8,0,0,0-.43-.19l-.08,0-.48-.07h-.09a3.85,3.85,0,0,0-.49.07,4,4,0,0,0-.44.18l-.08,0-.18.14-.18.14-.06.07a2.57,2.57,0,0,0-.28.37,3,3,0,0,0-.19.43,2.28,2.28,0,0,0-.1.56v.09a2.65,2.65,0,0,0,.07.48,1,1,0,0,0,.26.51,1.08,1.08,0,0,0,.43.39,1.09,1.09,0,0,0,.55.18,1.22,1.22,0,0,0,.6,0l.36-.15a1.55,1.55,0,0,0,.54-.54l.15-.36a1.51,1.51,0,0,0,0-.79Z"/><path d="M97.26,78a8.17,8.17,0,0,1,1.27.41l-.36-.15a7.19,7.19,0,0,1,1.25.68,1.52,1.52,0,0,0,1.16.15,1.49,1.49,0,0,0,.89-.69,1.45,1.45,0,0,0,.15-1.15l-.15-.36a1.47,1.47,0,0,0-.54-.54,6.87,6.87,0,0,0-1.22-.67,8.8,8.8,0,0,0-1.66-.57,1.54,1.54,0,0,0-1.15.15,1.52,1.52,0,0,0-.69.9A1.5,1.5,0,0,0,97.26,78Z"/><polygon class="cls-8" points="59.47 53 47.47 52 48.47 47 58.47 47 59.47 53"/><path class="cls-8" d="M56,48.23v.11l3-.4a0,0,0,0,1,0,0l.05.4v0l-.05.4a0,0,0,0,1,0,0l-.15.36a.05.05,0,0,1,0,0l-.24.3,0,0-.3.24,0,0-.36.15h0l-.4,0h0l-1.45-1.1c.07.21.16.42.25.63s.08.17.13.26a1.31,1.31,0,0,0,.39.42,1.14,1.14,0,0,0,.51.27,1.22,1.22,0,0,0,.6,0,1.16,1.16,0,0,0,.56-.18l.3-.24a1.51,1.51,0,0,0,.38-.66l.06-.4a1.48,1.48,0,0,0-.21-.76,2.1,2.1,0,0,1-.13-.26l.15.36a1.43,1.43,0,0,1-.09-.27l-.15-.36a1.31,1.31,0,0,0-.39-.42.69.69,0,0,0-.33-.19,1.06,1.06,0,0,0-.58-.13,1.58,1.58,0,0,0-.43.05h0l-.36.15h0a1.54,1.54,0,0,0-.58.58s0,0,0,0a1.8,1.8,0,0,0-.16.38l0,.21,0,.21v0a1.59,1.59,0,0,0,.06.43,1.26,1.26,0,0,0,.27.51,1.18,1.18,0,0,0,.42.38l.36.16a1.11,1.11,0,0,0,.6,0,.72.72,0,0,0,.38-.1,1.08,1.08,0,0,0,.48-.31l.24-.3a1.57,1.57,0,0,0,.2-.76v-.11a1.15,1.15,0,0,0-.13-.58,1.11,1.11,0,0,0-.31-.48,1.14,1.14,0,0,0-.48-.31,1.08,1.08,0,0,0-.58-.13l-.4.05a1.44,1.44,0,0,0-.66.39l-.24.3a1.57,1.57,0,0,0-.2.76Z"/><rect class="cls-3" x="29.99" y="38.25" width="87.01" height="62.1" rx="4"/><rect class="cls-10" x="46.57" y="8" width="53.79" height="38.13" rx="4"/><rect class="cls-4" x="46.57" y="8" width="53.79" height="38.13" rx="4"/><circle class="cls-4" cx="55.26" cy="38.12" r="2.72"/><path class="cls-11" d="M62.34,37.79a2,2,0,0,1,2-2H93a2,2,0,1,1,0,3.94H64.34A2,2,0,0,1,62.34,37.79Z"/><circle class="cls-12" cx="55.36" cy="26.95" r="2.72"/><path class="cls-11" d="M62.44,26.62a2,2,0,0,1,2-2H93.1a2,2,0,1,1,0,3.93H64.44A2,2,0,0,1,62.44,26.62Z"/><circle class="cls-4" cx="55.36" cy="15.95" r="2.72"/><path class="cls-11" d="M62.44,15.62a2,2,0,0,1,2-2H93.1a2,2,0,1,1,0,3.93H64.44A2,2,0,0,1,62.44,15.62Z"/></g></g></svg>
