<svg xmlns="http://www.w3.org/2000/svg" viewBox="0 0 210 178"><defs><style>.cls-1,.cls-3{fill:none;}.cls-1,.cls-2,.cls-4,.cls-5{stroke:#282d33;}.cls-1,.cls-2,.cls-3,.cls-4,.cls-5{stroke-miterlimit:10;}.cls-2{fill:#b7bec0;}.cls-3{stroke:#30363d;}.cls-4{fill:#cdd5d7;}.cls-5{fill:#484f59;}</style></defs><g id="What_is_Talent_Sourcing" data-name="What is Talent Sourcing"><g id="What_is_Talent_Sourcing-2" data-name="What is Talent Sourcing"><path class="cls-1" d="M145.64,103.54a4.12,4.12,0,0,1-5.53,1.85l-6.54-3.28a4.19,4.19,0,0,1-.86-.58,4,4,0,0,1-1-.34l-3.59-1.8c-.08.26-.17.5-.27.75l8.19,4.11a4.12,4.12,0,0,1-3.69,7.37l-8.15-4.08-.36.71,3.47,1.74a4.12,4.12,0,0,1-3.69,7.37l-3.51-1.74a10.68,10.68,0,0,1-.65,1,4.12,4.12,0,0,1-5.1,6.21l-5.46-2.73-.66-.22h0l.41-.31a4.21,4.21,0,0,0,.36-.37,3.6,3.6,0,0,0,.6-.88l1.45-2.9a4.13,4.13,0,0,0-7.38-3.69l-1.45,2.9a3,3,0,0,0-.19.45,2,2,0,0,0-.12.42.19.19,0,0,0,0,.07c0,.13,0,.25-.07.37s0,.2,0,.3a4.17,4.17,0,0,0,0,.5h0L99,115.29l.21-.15.22-.17.19-.18a.91.91,0,0,0,.19-.2,2.08,2.08,0,0,0,.32-.4,4.33,4.33,0,0,0,.31-.51l4.23-8.45a4.12,4.12,0,1,0-7.37-3.7L93,110a3.49,3.49,0,0,0-.2.44c0,.15-.09.3-.13.45l0,.18a1.57,1.57,0,0,0,0,.3,3.52,3.52,0,0,0,0,.45V112s0,.1,0,.14h0l-2.88-1.44.22-.16.21-.16.2-.18.18-.2a1.12,1.12,0,0,0,.18-.2,3,3,0,0,0,.2-.29l.11-.17.13-.25,3.44-6.85a4.13,4.13,0,0,0-7.38-3.69l-3.43,6.85a3.43,3.43,0,0,0-.19.44c0,.12-.07.24-.1.36s0,.2-.07.29a1.87,1.87,0,0,0,0,.32,1.42,1.42,0,0,0,0,.35v.21a.61.61,0,0,0,0,.14h0l-3.24-1.63a1.53,1.53,0,0,0,.21-.14l.22-.17.19-.18a1.19,1.19,0,0,0,.19-.2,3,3,0,0,0,.32-.4,4.33,4.33,0,0,0,.31-.51l1.45-2.9a4.12,4.12,0,0,0-7.37-3.69l-1.45,2.9a3.92,3.92,0,0,0-.43,2A9.63,9.63,0,0,1,70,98.17l8.87-26.64.81.38,17-5.66v0l5.3.49,0,0,5.51.58,4.84.46v0h.11L114,72.56l-5-1.11v0l-.12,0h-.06a0,0,0,0,0,0,0l-5,1v-.06l-5.37,1.14-4.82,1,0,0-.11,0-2.89,14,.29.07,2.34.48a7.16,7.16,0,0,0,8.44-5.58L102,82l8-.84v-.1h0l.1,0s0,0,0,0,.17.25.26.37,0,0,0,0,.11.13.17.2a.19.19,0,0,0,.06.07c.09.12.2.25.31.37l.47.51c.16.17.34.33.51.49a4.19,4.19,0,0,0,.45.39c.15.12.3.26.46.38s.32.25.48.36l.45.32c.15.1.31.21.47.3l0,0c.2.12.38.24.57.34l.09.06.54.29.15.07.48.23,0,0,.2.09.46.19a2.68,2.68,0,0,0,.3.12l.43.17.35.12.38.13.46.13L119,87l.77.19.81.16h.1l.71.11h.06c.52.06,1,.11,1.55.13l12.43,6.21a3.81,3.81,0,0,1,.87.59,3.91,3.91,0,0,1,1,.35l6.36,3.18.17.08A4.13,4.13,0,0,1,145.64,103.54Z"/><path class="cls-2" d="M109.24,109.88a4.14,4.14,0,0,0-5.54,1.84l-1.44,2.9a4.12,4.12,0,1,0,7.37,3.69l1.45-2.9A4.12,4.12,0,0,0,109.24,109.88Z"/><path class="cls-2" d="M81.15,95.82a4.12,4.12,0,0,0-5.53,1.84l-1.45,2.9a4.12,4.12,0,0,0,7.37,3.69l1.45-2.9A4.13,4.13,0,0,0,81.15,95.82Z"/><path class="cls-2" d="M102.78,99.69a4.13,4.13,0,0,0-5.53,1.84L93,110a4.12,4.12,0,1,0,7.38,3.68l4.23-8.45A4.14,4.14,0,0,0,102.78,99.69Z"/><path class="cls-2" d="M92.74,96.68a4.13,4.13,0,0,0-5.54,1.84l-3.43,6.85a4.13,4.13,0,0,0,7.38,3.69l3.43-6.85A4.13,4.13,0,0,0,92.74,96.68Z"/><path class="cls-2" d="M149.22,96.07l-5.59,1.86-6.36-3.18a3.91,3.91,0,0,0-1-.35,3.81,3.81,0,0,0-.87-.59L123,87.6l-.79,0h0l-.75-.08h-.06l-.71-.11h-.1l-.81-.16L119,87l-.29-.08-.46-.13-.38-.13-.35-.12-.43-.17-.28-.1s0,0,0,0l-.46-.19-.2-.09,0,0-.48-.23-.15-.07-.54-.29-.09-.06c-.19-.1-.37-.22-.57-.34l0,0c-.16-.09-.32-.2-.47-.3l-.45-.32c-.16-.11-.33-.24-.48-.36s-.31-.26-.46-.38a4.19,4.19,0,0,1-.45-.39c-.17-.16-.35-.32-.51-.49l-.47-.51c-.11-.12-.22-.25-.31-.37a.19.19,0,0,1-.06-.07c-.06-.07-.12-.13-.17-.2s0,0,0,0-.18-.24-.26-.37,0,0,0,0S110,81,110,81v.11h0v.1L102,82l-.29,1.54a7.16,7.16,0,0,1-8.44,5.58l-2.34-.48-.29-.07,2.89-14,.11,0,0,0,4.82-1,5.37-1.14v.06l5-1a0,0,0,0,1,0,0h.06l.12,0v0l5,1.11,13.55,3,13.4-4.46Z"/><polygon class="cls-3" points="153.36 101.26 151.19 101.98 149.22 96.07 140.91 71.08 140.27 69.16 142.43 68.44 143.07 70.36 151.39 95.34 153.36 101.26"/><path class="cls-3" d="M162.4,98.25l-4.5,1.5a2.18,2.18,0,0,1-.06-.52,2.38,2.38,0,0,1,4.56-1Z"/><path class="cls-1" d="M165.27,59.41,142,67.15l.43,1.29.64,1.92,8.32,25,2,5.91,2.12,6.37,23.27-7.74Zm-5.05,42.22a2.37,2.37,0,0,1-2.32-1.88,2.18,2.18,0,0,1-.06-.52,2.38,2.38,0,0,1,4.56-1,2.34,2.34,0,0,1,.22,1A2.41,2.41,0,0,1,160.22,101.63Z"/><path class="cls-1" d="M162.62,99.23a2.41,2.41,0,0,1-2.4,2.4,2.37,2.37,0,0,1-2.32-1.88,2.18,2.18,0,0,1-.06-.52,2.38,2.38,0,0,1,4.56-1A2.34,2.34,0,0,1,162.62,99.23Z"/><path class="cls-3" d="M63,100a2.2,2.2,0,0,1-.09.64l-4.53-1.5A2.39,2.39,0,0,1,63,100Z"/><polygon class="cls-3" points="79.66 69.25 78.91 71.53 70.04 98.17 68.58 102.55 66.38 101.82 68.43 95.68 76.79 70.55 77.46 68.52 79.66 69.25"/><path class="cls-1" d="M54.67,59.41,41.19,99.89l23.26,7.74,1.93-5.81,2.05-6.14,8.36-25.13.67-2,.46-1.37Zm8.27,41.26a2.39,2.39,0,0,1-4.7-.64,2.24,2.24,0,0,1,.17-.86A2.39,2.39,0,0,1,63,100,2.2,2.2,0,0,1,62.94,100.67Z"/><path class="cls-1" d="M63,100a2.2,2.2,0,0,1-.09.64,2.39,2.39,0,0,1-4.7-.64,2.24,2.24,0,0,1,.17-.86A2.39,2.39,0,0,1,63,100Z"/><path class="cls-4" d="M63,100a2.2,2.2,0,0,1-.09.64,2.39,2.39,0,0,1-4.7-.64,2.24,2.24,0,0,1,.17-.86A2.39,2.39,0,0,1,63,100Z"/><path class="cls-5" d="M162.62,99.23a2.41,2.41,0,0,1-2.4,2.4,2.37,2.37,0,0,1-2.32-1.88,2.18,2.18,0,0,1-.06-.52,2.38,2.38,0,0,1,4.56-1A2.34,2.34,0,0,1,162.62,99.23Z"/></g></g></svg>