<svg xmlns="http://www.w3.org/2000/svg" xmlns:xlink="http://www.w3.org/1999/xlink" viewBox="0 0 196 211"><defs><style>.cls-1,.cls-3{fill:#fff;}.cls-2,.cls-4{fill:none;}.cls-2,.cls-9{stroke:#000;stroke-miterlimit:10;}.cls-3,.cls-4{opacity:0.2;}.cls-5{fill:#484f59;}.cls-6{fill:#30363d;}.cls-7{fill:#e5e8ec;}.cls-8{fill:#cdd5d7;}.cls-9{fill:#acb9c4;}.cls-10{fill:#f0ca67;}.cls-11{clip-path:url(#clip-path);}.cls-12{fill:#4389c8;}.cls-13{fill:#10303f;}</style><clipPath id="clip-path"><path class="cls-1" d="M77.36,91.38c-11.8,0-22.08,4.28-27.49,10.61,5.41,6.33,15.69,10.61,27.49,10.61s22.09-4.28,27.49-10.61C99.45,95.66,89.16,91.38,77.36,91.38Z"/></clipPath></defs><g id="What_is_Talent_Sourcing" data-name="What is Talent Sourcing"><g id="What_is_Talent_Sourcing-2" data-name="What is Talent Sourcing"><path class="cls-2" d="M108.82,81.33a29.15,29.15,0,0,0-45.28,5.1,26.49,26.49,0,0,1,3.18-1.63,26,26,0,0,1,4.88-1.59,22.71,22.71,0,0,1,2.72-.46,23.71,23.71,0,1,1,.14,38.5,25.06,25.06,0,0,1-2.73-.45,26.39,26.39,0,0,1-4.9-1.57,27.81,27.81,0,0,1-3.18-1.6A29.11,29.11,0,0,0,88.21,131.1,28.82,28.82,0,0,0,106,125a27.66,27.66,0,0,0,2.84-2.49,29.13,29.13,0,0,0-.05-41.18Z"/><path class="cls-3" d="M86.85,106.28a1.78,1.78,0,1,1-.34-2.49A1.78,1.78,0,0,1,86.85,106.28Z"/><path class="cls-3" d="M85,100.8a3.9,3.9,0,1,1,5.47-.74A3.9,3.9,0,0,1,85,100.8Z"/><path class="cls-4" d="M111.85,101.94a23.63,23.63,0,0,1-37.22,19.33c.53,0,1.06.09,1.6.12l1.13,0,.92,0C89.7,121,99.59,113.28,104.86,102c-4.29-9.2-11.65-16-20.41-18.46a26.15,26.15,0,0,0-7.09-1c-.43,0-.86,0-1.28,0s-1.07.07-1.6.13a23.64,23.64,0,0,1,37.37,19.21Z"/><path class="cls-3" d="M78.28,121.39a21.39,21.39,0,0,0,3.06,2.34,22.06,22.06,0,0,1-5.11-2.34l1.13,0Z"/><path class="cls-3" d="M100.47,82.68a22.9,22.9,0,0,0-6.88-1.05h0a22.67,22.67,0,0,0-9.11,1.91,26.15,26.15,0,0,0-7.09-1c-.43,0-.86,0-1.28,0a22.64,22.64,0,0,1,12.09-3.5h0A22.61,22.61,0,0,1,100.47,82.68Z"/><path d="M71.6,83.21a26,26,0,0,0-4.88,1.59,25.17,25.17,0,0,1,2-2.26,27.32,27.32,0,0,1,19.42-8.1h0v2.45A24.81,24.81,0,0,0,71.6,83.21Z"/><path d="M88.22,127v2.45a27.45,27.45,0,0,1-21.38-10.22,26.39,26.39,0,0,0,4.9,1.57A24.89,24.89,0,0,0,88.21,127Z"/><path class="cls-2" d="M115,123.49c-1.55-1.58-3.09-3.17-4.64-4.76a3.67,3.67,0,0,0-2.6-1.09c-.55.67-1.14,1.31-1.76,1.94a26.61,26.61,0,0,1-2,1.82,3.68,3.68,0,0,0,1.08,2.6c1.55,1.59,3.11,3.18,4.66,4.79s3.27,1,4.74-.53h0C116,126.75,116.47,125,115,123.49Z"/><rect class="cls-5" x="119.29" y="120.39" width="11.91" height="37.16" transform="translate(-61.59 129.24) rotate(-44.99)"/><rect class="cls-6" x="124.58" y="118.59" width="4.92" height="37.16" transform="translate(-59.79 130.06) rotate(-45.02)"/><rect class="cls-7" x="107.16" y="125.41" width="11.91" height="2.86" transform="translate(-56.56 117.16) rotate(-45.01)"/><rect class="cls-8" x="112.19" y="124.44" width="5.26" height="1.97" transform="translate(-55.06 117.89) rotate(-44.99)"/><path class="cls-7" d="M144.61,149.92a8.42,8.42,0,0,1-8.42,8.42l-2-2,8.42-8.42C143.26,148.58,143.93,149.25,144.61,149.92Z"/><rect class="cls-8" x="138.44" y="150.44" width="5.26" height="2.46" transform="translate(-65.93 144.09) rotate(-44.98)"/><path class="cls-9" d="M84.45,83.54a26.15,26.15,0,0,0-7.09-1c-.43,0-.86,0-1.28,0s-1.07.07-1.6.13l-.16,0a22.71,22.71,0,0,0-2.72.46,26,26,0,0,0-4.88,1.59,26.49,26.49,0,0,0-3.18,1.63A35,35,0,0,0,49.88,102a35,35,0,0,0,13.77,15.63,27.81,27.81,0,0,0,3.18,1.6,26.39,26.39,0,0,0,4.9,1.57,25.06,25.06,0,0,0,2.73.45l.17,0c.53,0,1.06.09,1.6.12l1.13,0,.92,0C89.7,121,99.59,113.28,104.86,102,100.57,92.8,93.21,86,84.45,83.54Zm2.4,22.74a1.78,1.78,0,1,1-.34-2.49A1.78,1.78,0,0,1,86.85,106.28Zm3.57-6.22a3.9,3.9,0,1,1-.74-5.47A3.91,3.91,0,0,1,90.42,100.06Z"/><path class="cls-10" d="M86.85,106.28a1.78,1.78,0,1,1-.34-2.49A1.78,1.78,0,0,1,86.85,106.28Z"/><path class="cls-10" d="M90.42,100.06a3.9,3.9,0,1,1-.74-5.47A3.91,3.91,0,0,1,90.42,100.06Z"/><path class="cls-1" d="M77.36,91.38c-11.8,0-22.08,4.28-27.49,10.61,5.41,6.33,15.69,10.61,27.49,10.61s22.09-4.28,27.49-10.61C99.45,95.66,89.16,91.38,77.36,91.38Z"/><g class="cls-11"><path class="cls-12" d="M94.89,102A17.53,17.53,0,1,1,77.36,84.46,17.53,17.53,0,0,1,94.89,102Z"/><path class="cls-13" d="M87.62,102A10.26,10.26,0,1,1,77.36,91.73,10.26,10.26,0,0,1,87.62,102Z"/></g><path class="cls-1" d="M90.42,100.06a3.9,3.9,0,1,1-.74-5.47A3.91,3.91,0,0,1,90.42,100.06Z"/><path class="cls-1" d="M86.85,106.28a1.78,1.78,0,1,1-.34-2.49A1.78,1.78,0,0,1,86.85,106.28Z"/></g></g></svg>