<svg xmlns="http://www.w3.org/2000/svg" viewBox="0 0 175 194"><defs><style>.cls-1{fill:none;stroke:#080717;stroke-miterlimit:10;}.cls-2{fill:#4389c8;}.cls-3{fill:#ffa38f;}.cls-4{fill:#ff876c;}.cls-5{fill:#e5e8ec;}.cls-6{fill:#cdd5d7;}.cls-7{fill:#140906;}.cls-8{fill:#584e4d;}.cls-9{fill:#3f3534;}.cls-10{fill:#5e5452;}.cls-11{fill:#7c633d;}</style></defs><g id="What_is_Talent_Sourcing" data-name="What is Talent Sourcing"><g id="What_is_Talent_Sourcing-2" data-name="What is Talent Sourcing"><path class="cls-1" d="M65.93,89a1.05,1.05,0,0,0-1.47.08l-4.85,5.43A1,1,0,0,0,59.69,96l3.47,3.1a1,1,0,0,1-.07-1.45L68,92.18a1,1,0,0,1,1.43-.11Zm3.49,3.12,0,0L65.93,89a1.05,1.05,0,0,0-1.47.08l-4.85,5.43A1,1,0,0,0,59.69,96l3.47,3.1v0l1.33,1.19h0a23.11,23.11,0,0,1,6.24-7Zm.67-16-1.16-.25h0a40,40,0,0,0-22.58,25.45l-.12.45c0,.12-.07.24-.1.36-.1.36-.19.72-.28,1.09s-.17.72-.24,1.09l0,.13a.3.3,0,0,0,0,.1c0,.2-.08.41-.12.62-.07.37-.14.75-.19,1.13,0,.22-.07.44-.09.66-.1.64-.17,1.29-.22,2,0,.22,0,.44,0,.66s-.05.7-.06,1c0,.14,0,.28,0,.42,0,.44,0,.87,0,1.31a39.69,39.69,0,0,0,.44,5.9c.31.34.63.65,1,1a38.94,38.94,0,0,1,23.91-43.1Zm54.59,29.66c0-.21-.07-.41-.11-.61-.26.34-.5.67-.74,1l-6.37,8.62c-3.49,4.71-7,9.47-11.19,15.2a6.65,6.65,0,0,0-.59-.46l-.25-.17c4.61-6.95,8.28-12.55,12.09-18.34h0c1.79-2.72,3.61-5.49,5.58-8.46.2-.31.41-.63.63-1h0c0-.19-.1-.38-.16-.56a40.15,40.15,0,0,0-38-28.46A39.78,39.78,0,0,1,123,102c-1.93,2.91-3.72,5.63-5.47,8.3-3.92,6-7.67,11.69-12.44,18.87h0l-.06.1a2.34,2.34,0,0,0-.47-.05l.34.23a6,6,0,0,0-4.09-.34c.47-.44.93-.91,1.37-1.4A23.39,23.39,0,0,0,70.74,93.29L69.42,92.1l0,0L65.93,89a1.05,1.05,0,0,0-1.47.08l-4.85,5.43A1,1,0,0,0,59.69,96l3.47,3.1v0l1.33,1.19a23.38,23.38,0,0,0,31.84,32.07l-.27.46c-1.85,3.27-3,8.56-1.26,10.9a2.41,2.41,0,0,0,.57.58c2.68,1.75,7.87-1.47,10.54-4.61a7.81,7.81,0,0,0,1.83-3.88,32.84,32.84,0,0,0,9.63-20.14c2.15-2.91,4.28-5.78,6.54-8.86a38.81,38.81,0,0,1,.39,5.53,39.76,39.76,0,0,1-38.73,39.75,40,40,0,0,0,39.64-39.75A40.39,40.39,0,0,0,124.68,105.77Zm-17.86,30.9a7.2,7.2,0,0,1-1.43,2.55c-2.75,3.23-7.59,5.9-9.73,4.5a1.37,1.37,0,0,1-.25-.23h0c-1.13-1.19-1.12-3.92-.38-6.64-.11,1.79.21,3.31,1.13,4,2.14,1.4,7-1.27,9.73-4.5a7.36,7.36,0,0,0,1.27-2.08,6.39,6.39,0,0,1-.32,2.41ZM80.23,79.59h0l1.58.77C81.29,80.1,80.76,79.84,80.23,79.59ZM53.67,124c.24.66.51,1.32.8,2,0,0,0,0,0,0C54.2,125.31,53.92,124.65,53.67,124ZM65.93,89a1.05,1.05,0,0,0-1.47.08l-4.85,5.43A1,1,0,0,0,59.69,96l3.47,3.1a1,1,0,0,1-.07-1.45L68,92.18a1,1,0,0,1,1.43-.11Z"/><path class="cls-1" d="M65.93,89a1.05,1.05,0,0,0-1.47.08l-4.85,5.43A1,1,0,0,0,59.69,96l3.47,3.1a1,1,0,0,1-.07-1.45L68,92.18a1,1,0,0,1,1.43-.11Zm3.49,3.12,0,0L65.93,89a1.05,1.05,0,0,0-1.47.08l-4.85,5.43A1,1,0,0,0,59.69,96l3.47,3.1v0l1.33,1.19h0a23.11,23.11,0,0,1,6.24-7ZM84,72.56a39.58,39.58,0,0,0-15.19,3.26h0c-.88.38-1.75.79-2.59,1.24-.4.2-.79.42-1.18.63l-1,.61c-.24.14-.48.3-.72.45-.49.31-1,.63-1.45,1s-.89.64-1.32,1l-.6.47c-.72.56-1.42,1.16-2.1,1.78q-.56.5-1.08,1c-.34.33-.67.67-1,1-.1.11-.2.21-.29.32-.3.32-.6.65-.88,1a.05.05,0,0,0,0,0c-.35.39-.69.8-1,1.21s-.47.59-.69.89l-.41.54c-.59.81-1.15,1.64-1.67,2.49s-1,1.64-1.42,2.49-.86,1.71-1.24,2.59c-.16.37-.32.75-.47,1.13-.07.17-.14.35-.2.53-.14.34-.26.68-.38,1s-.21.6-.3.9-.17.51-.24.77a3.17,3.17,0,0,0-.12.44l-.12.45c0,.12-.07.24-.1.36s-.07.26-.11.39-.07.26-.1.39a2.82,2.82,0,0,0-.07.31c-.06.21-.1.42-.15.64,0,0,0,0,0,0s0,0,0,.08l0,.16a0,0,0,0,0,0,0l0,.14a.51.51,0,0,0,0,.13.3.3,0,0,0,0,.1c0,.2-.08.41-.12.62-.07.37-.14.75-.19,1.13,0,.22-.07.44-.09.66-.1.64-.17,1.29-.22,2,0,.22,0,.44,0,.66s-.05.7-.06,1c0,.14,0,.28,0,.42,0,.44,0,.87,0,1.31a39.69,39.69,0,0,0,.44,5.9c.31.34.63.65,1,1a38.94,38.94,0,0,1,23.91-43.1l-1.16-.25A40.4,40.4,0,0,1,84,72.56Zm39.87,33.6-6.37,8.62c-3.49,4.71-7,9.47-11.19,15.2a6.65,6.65,0,0,0-.59-.46l-.25-.17c4.61-6.95,8.28-12.55,12.09-18.34h0c1.79-2.72,3.61-5.49,5.58-8.46L123,102c-1.93,2.91-3.72,5.63-5.47,8.3-3.92,6-7.67,11.69-12.44,18.87h0l-.06.1a2.34,2.34,0,0,0-.47-.05l.34.23a6,6,0,0,0-4.09-.34c.47-.44.93-.91,1.37-1.4A23.39,23.39,0,0,0,70.74,93.29L69.42,92.1l0,0L65.93,89a1.05,1.05,0,0,0-1.47.08l-4.85,5.43A1,1,0,0,0,59.69,96l3.47,3.1v0l1.33,1.19a23.38,23.38,0,0,0,31.84,32.07l-.27.46c-1.85,3.27-3,8.56-1.26,10.9a2.41,2.41,0,0,0,.57.58c2.68,1.75,7.87-1.47,10.54-4.61a7.81,7.81,0,0,0,1.83-3.88,32.84,32.84,0,0,0,9.63-20.14c2.15-2.91,4.28-5.78,6.54-8.86Q123.89,106.48,123.83,106.16Zm-17,30.51a7.2,7.2,0,0,1-1.43,2.55c-2.75,3.23-7.59,5.9-9.73,4.5a1.37,1.37,0,0,1-.25-.23h0c-1.13-1.19-1.12-3.92-.38-6.64-.11,1.79.21,3.31,1.13,4,2.14,1.4,7-1.27,9.73-4.5a7.36,7.36,0,0,0,1.27-2.08,6.39,6.39,0,0,1-.32,2.41ZM80.23,79.59h0l1.58.77C81.29,80.1,80.76,79.84,80.23,79.59ZM46.84,125A39.76,39.76,0,0,0,84,152.07,40.23,40.23,0,0,1,46.84,125Zm6.83-1c.24.66.51,1.32.8,2,0,0,0,0,0,0C54.2,125.31,53.92,124.65,53.67,124ZM65.93,89a1.05,1.05,0,0,0-1.47.08l-4.85,5.43A1,1,0,0,0,59.69,96l3.47,3.1a1,1,0,0,1-.07-1.45L68,92.18a1,1,0,0,1,1.43-.11Z"/><path class="cls-1" d="M117.48,110.26c-3.92,6-7.67,11.69-12.44,18.87h0l-.06.1a2.34,2.34,0,0,0-.47-.05l.34.23a6,6,0,0,0-4.09-.34c.47-.44.93-.91,1.37-1.4A23.39,23.39,0,0,0,70.74,93.29L69.42,92.1l0,0L65.93,89a1.05,1.05,0,0,0-1.47.08l-4.85,5.43A1,1,0,0,0,59.69,96l3.47,3.1v0l1.33,1.19a23.38,23.38,0,0,0,31.84,32.07l-.27.46c-1.85,3.27-3,8.56-1.26,10.9a33.09,33.09,0,0,1-40.34-17.76s0,0,0,0c-.3-.65-.58-1.31-.83-2s-.49-1.35-.7-2l-.24-.81c-.15-.55-.28-1.1-.41-1.65-.06-.28-.11-.56-.17-.84s-.12-.64-.17-1c-.1-.58-.18-1.17-.24-1.76q0-.32-.06-.63a29.24,29.24,0,0,1-.14-3c0-.52,0-1,0-1.56,0-.33,0-.66.06-1a.81.81,0,0,1,0-.16l.06-.65v0c0-.4.09-.79.14-1.18l0-.18q.07-.56.18-1.11c0-.17.06-.35.1-.53.06-.36.14-.72.22-1.08.14-.59.29-1.18.46-1.76.12-.4.24-.8.37-1.2l.06-.18c.15-.44.31-.87.48-1.3a1.8,1.8,0,0,1,.08-.21c.15-.39.31-.78.48-1.16l.48-1q.43-.9.93-1.77c.19-.35.39-.7.6-1l.09-.14c.22-.37.46-.74.7-1.1l.07-.1c.24-.35.48-.7.74-1,.52-.72,1.08-1.42,1.67-2.1.17-.2.35-.4.53-.59s.35-.39.54-.58l.46-.48.25-.24c.32-.33.65-.64,1-.94a32.74,32.74,0,0,1,4.4-3.38c.29-.19.58-.37.88-.54.51-.3,1-.59,1.54-.87l.66-.33c.28-.15.56-.28.84-.41l1.15-.5c.36-.16.74-.31,1.11-.45l1-.36.77-.25,1-.31c.48-.13,1-.25,1.46-.36s1-.21,1.46-.3h0c.5-.09,1-.16,1.51-.23l1.58.77c-.52-.27-1-.53-1.58-.78a34.32,34.32,0,0,1,4.32-.28A33,33,0,0,1,117.48,110.26Z"/><path class="cls-1" d="M81.81,80.37l-1.58-.77h0C80.76,79.84,81.29,80.1,81.81,80.37Z"/><path class="cls-1" d="M117.52,111c-3.81,5.79-7.48,11.39-12.09,18.34l.25.17a6.65,6.65,0,0,1,.59.46c4.2-5.73,7.7-10.49,11.19-15.2,0,.29,0,.58-.08.87a32.84,32.84,0,0,1-9.63,20.14c-.3.3-.6.59-.92.88a6.39,6.39,0,0,0,.32-2.41,7.36,7.36,0,0,1-1.27,2.08c-2.75,3.23-7.59,5.9-9.73,4.5-.92-.68-1.24-2.2-1.13-4-.74,2.72-.75,5.45.38,6.64l-.59.21c-1.78-2.34-.59-7.63,1.26-10.9l.27-.46A23.38,23.38,0,0,1,64.5,100.27l-1.33-1.19v0L59.69,96a1,1,0,0,1-.08-1.47l4.85-5.43A1.05,1.05,0,0,1,65.93,89l3.45,3.09,0,0,1.32,1.19a23.39,23.39,0,0,1,31.38,34.37c-.44.49-.9,1-1.37,1.4a6,6,0,0,1,4.09.34l-.34-.23a2.34,2.34,0,0,1,.47.05l.06-.1h0c4.77-7.18,8.52-12.91,12.44-18.87,0,.25,0,.49,0,.74Z"/><path class="cls-1" d="M124.31,112.32a39.76,39.76,0,0,1-38.73,39.75H84A40.23,40.23,0,0,1,46.84,125c-.35-1-.66-2.08-.92-3.15-.13-.56-.26-1.12-.37-1.68s-.22-1.17-.31-1.76a1,1,0,0,1,0-.16c.31.34.63.65,1,1a38.94,38.94,0,0,1,23.91-43.1l-1.16-.25a40.4,40.4,0,0,1,15-3.3h1.62A39.78,39.78,0,0,1,123,102c-1.93,2.91-3.72,5.63-5.47,8.3A33,33,0,0,0,84.55,79.31a34.32,34.32,0,0,0-4.32.28h0c-.51.07-1,.14-1.51.23h0c-.49.09-1,.19-1.46.3s-1,.23-1.46.36l-1,.31-.77.25-1,.36c-.37.14-.75.29-1.11.45l-1.15.5c-.28.13-.56.26-.84.41l-.66.33c-.52.28-1,.57-1.54.87-.3.17-.59.35-.88.54a32.74,32.74,0,0,0-4.4,3.38c-.34.3-.67.61-1,.94l-.25.24-.46.48c-.19.19-.37.38-.54.58s-.36.39-.53.59c-.59.68-1.15,1.38-1.67,2.1-.26.34-.5.69-.74,1l-.07.1c-.24.36-.48.73-.7,1.1l-.09.14c-.21.34-.41.69-.6,1q-.49.87-.93,1.77l-.48,1c-.17.38-.33.77-.48,1.16a1.8,1.8,0,0,0-.08.21c-.17.43-.33.86-.48,1.3l-.06.18c-.13.4-.25.8-.37,1.2-.17.58-.32,1.17-.46,1.76-.08.36-.16.72-.22,1.08,0,.18-.07.36-.1.53q-.11.55-.18,1.11l0,.18c-.05.39-.1.78-.14,1.18v0l-.06.65a.81.81,0,0,0,0,.16c0,.32,0,.65-.06,1,0,.51,0,1,0,1.56a29.24,29.24,0,0,0,.14,3q0,.31.06.63c.06.59.14,1.18.24,1.76.05.32.11.64.17,1s.11.56.17.84c.13.55.26,1.1.41,1.65l.24.81c.21.69.44,1.37.7,2s.51,1.32.8,2A33.09,33.09,0,0,0,94.81,143.7a2.41,2.41,0,0,0,.57.58c2.68,1.75,7.87-1.47,10.54-4.61a7.81,7.81,0,0,0,1.83-3.88,32.84,32.84,0,0,0,9.63-20.14c2.15-2.91,4.28-5.78,6.54-8.86A38.81,38.81,0,0,1,124.31,112.32Z"/><path class="cls-1" d="M81.81,80.37l-1.58-.77h0C80.76,79.84,81.29,80.1,81.81,80.37Z"/><path class="cls-1" d="M102.94,122.55l-.45.77a20,20,0,0,1-6.32,6.36l0,0a25.54,25.54,0,0,1-7.32,3.18h0a29.65,29.65,0,0,1-3.73.74H85a33.67,33.67,0,0,1-3.38.31h0c-1.2,0-2.41,0-3.66,0h0c-.66,0-1.34-.09-2-.16A23.38,23.38,0,0,1,64.5,100.27l-1.33-1.19v0L59.69,96a1,1,0,0,1-.08-1.47l4.85-5.43A1.05,1.05,0,0,1,65.93,89l3.45,3.09,0,0,1.32,1.19a23.37,23.37,0,0,1,26.08-1.23c.41.46.78.91,1.14,1.38h0c.66.82,1.27,1.66,1.83,2.5s1,1.46,1.38,2.2h0s0,0,0,0c.29.5.57,1,.82,1.5C106.06,107.49,106.69,115.8,102.94,122.55Z"/><path class="cls-1" d="M102.94,122.55l-.45.77a20,20,0,0,1-6.32,6.36l0,0a25.54,25.54,0,0,1-7.32,3.18h0a29.65,29.65,0,0,1-3.73.74H85a33.67,33.67,0,0,1-3.38.31h0c-1.2,0-2.41,0-3.66,0h0c-.66,0-1.34-.09-2-.16A23.38,23.38,0,0,1,64.5,100.27l-1.33-1.19v0L59.69,96a1,1,0,0,1-.08-1.47l4.85-5.43A1.05,1.05,0,0,1,65.93,89l3.45,3.09,0,0,1.32,1.19a23.37,23.37,0,0,1,26.08-1.23c.41.46.78.91,1.14,1.38h0c.66.82,1.27,1.66,1.83,2.5s1,1.46,1.38,2.2h0s0,0,0,0c.29.5.57,1,.82,1.5C106.06,107.49,106.69,115.8,102.94,122.55Z"/><path class="cls-1" d="M130,98.57l-5.28,7.2-.76,1c-2.26,3.08-4.39,5.95-6.54,8.86-3.41,4.61-6.85,9.28-11,14.9a.8.8,0,0,1,.08.16c.05.09.09.18.13.27l-1.91-1.33a2.42,2.42,0,0,1,.48.06l0,0,.21-.32.25.17a6.65,6.65,0,0,1,.59.46c4.2-5.73,7.7-10.49,11.19-15.2l6.37-8.62c.24-.33.48-.66.74-1l5-6.86c.67-.9,1-2.48.34-3.18a.78.78,0,0,1,.2.11C131,95.81,130.69,97.6,130,98.57Z"/><path class="cls-1" d="M106.49,130.71c-.13-.15-.27-.3-.41-.44h0a1.62,1.62,0,0,0,.13-.19l.07-.09a6.65,6.65,0,0,0-.59-.46l-.25-.17-.39-.22h0l-.06.1-.12.19h0a6,6,0,0,0-4.09-.34,6.6,6.6,0,0,0-1.4.53,7.47,7.47,0,0,0-2,1.53l0,0a8,8,0,0,0-.94,1.2l-.27.46c-1.85,3.27-3,8.56-1.26,10.9a2.41,2.41,0,0,0,.57.58c2.68,1.75,7.87-1.47,10.54-4.61a7.81,7.81,0,0,0,1.83-3.88A6.31,6.31,0,0,0,106.49,130.71Zm.33,6a7.2,7.2,0,0,1-1.43,2.55c-2.75,3.23-7.59,5.9-9.73,4.5a1.37,1.37,0,0,1-.25-.23h0c-1.13-1.19-1.12-3.92-.38-6.64-.11,1.79.21,3.31,1.13,4,2.14,1.4,7-1.27,9.73-4.5a7.36,7.36,0,0,0,1.27-2.08,6.39,6.39,0,0,1-.32,2.41Z"/><path class="cls-1" d="M129.6,98.3l-5,6.86c-.26.34-.5.67-.74,1l-6.37,8.62c-3.49,4.71-7,9.47-11.19,15.2a6.65,6.65,0,0,0-.59-.46l-.25-.17c4.61-6.95,8.28-12.55,12.09-18.34h0c1.79-2.72,3.61-5.49,5.58-8.46.2-.31.41-.63.63-1h0l3.33-5c.62-1,2-1.81,2.88-1.44C130.58,95.82,130.27,97.4,129.6,98.3Z"/><path class="cls-1" d="M129.94,95.12c-.87-.37-2.26.49-2.88,1.44l-3.33,5h0c-.22.32-.43.64-.63,1-2,3-3.79,5.74-5.58,8.46h0c-3.81,5.79-7.48,11.39-12.09,18.34l.25.17a6.65,6.65,0,0,1,.59.46l-.07.09a2.46,2.46,0,0,1,.21.43l-.33-.23h0l-.85-.59-.37-.26h0l-.34-.23a2.34,2.34,0,0,1,.47.05h0l.06-.09c4.77-7.18,8.52-12.91,12.44-18.87,1.75-2.67,3.54-5.39,5.47-8.3l.62-.94c1-1.52,2-3.09,3.14-4.74.66-1,2.22-1.91,3.06-1.31A.8.8,0,0,1,129.94,95.12Z"/><path class="cls-1" d="M106.83,136.67h0a7.2,7.2,0,0,1-1.43,2.55c-2.75,3.23-7.59,5.9-9.73,4.5a1.37,1.37,0,0,1-.25-.23h0c-1.13-1.19-1.12-3.92-.38-6.64-.11,1.79.21,3.31,1.13,4,2.14,1.4,7-1.27,9.73-4.5a7.36,7.36,0,0,0,1.27-2.08A6.39,6.39,0,0,1,106.83,136.67Z"/><path class="cls-1" d="M105,130.3a4.89,4.89,0,0,1,.95,1,4.38,4.38,0,0,0-.7-.66,5.6,5.6,0,0,0-4.43-.68,7.41,7.41,0,0,0-4.59,3.66l-.28.54c.17-.35.33-.69.52-1a7,7,0,0,1,4.34-3.46A5.31,5.31,0,0,1,105,130.3Z"/><path class="cls-2" d="M69.38,92.07a1,1,0,0,0-1.43.11l-4.86,5.43a1,1,0,0,0,.07,1.45L59.69,96a1,1,0,0,1-.08-1.47l4.85-5.43A1.05,1.05,0,0,1,65.93,89Z"/><path class="cls-3" d="M75.3,98.77l-.51.57v0l-4.33,4.84a1,1,0,0,1-1.2.25,1,1,0,0,1-.25-.16l-1.13-1h0l-1.15-1-.84-.76-.4-.35h0l-.58-.51h0a22.35,22.35,0,0,1,2.76-3.81,23,23,0,0,1,3.48-3.16l.58.52s0,0,0,0l.39.35h0l.26.23.46.4h0l.12.1,1.15,1,1.11,1A1,1,0,0,1,75.3,98.77Z"/><path class="cls-2" d="M70.74,93.29a23.11,23.11,0,0,0-6.24,7l-1.33-1.18v0a1,1,0,0,1-.07-1.45L68,92.18a1,1,0,0,1,1.43-.11l0,0Z"/><polygon class="cls-4" points="64.5 100.26 64.5 100.27 63.17 99.08 64.5 100.26"/><path class="cls-4" d="M78.79,101.89l-4.85,5.43a1.05,1.05,0,0,1-1.47.08l-3.25-2.91-.22-.2-1.13-1h0l-1.15-1-.84-.76-.4-.35h0l-.58-.51h0a22.35,22.35,0,0,1,2.76-3.81,23,23,0,0,1,3.48-3.16l.58.52s0,0,0,0l.39.35h0l.26.23.46.4h0l.12.1,1.15,1,1.11,1,1.21,1.08,2.28,2.05A1,1,0,0,1,78.79,101.89Z"/><path class="cls-2" d="M102.12,127.66c-.44.49-.9,1-1.37,1.4s-.82.75-1.24,1.1h0c-.57.46-1.15.89-1.75,1.29h0c-.46.31-.91.6-1.39.87A23.38,23.38,0,0,1,64.5,100.27l.4.35h0a22.86,22.86,0,0,0,4.54,28.46,22.6,22.6,0,0,0,4.82,3.31c.38.2.77.38,1.16.56h0c.4.18.8.35,1.21.5s.84.3,1.26.43h0l.14,0,.68.2,1,.25.19,0,.92.17a25.26,25.26,0,0,0,2.57.29h.37a21.11,21.11,0,0,0,2.25,0c.32,0,.64,0,1-.07a22.81,22.81,0,0,0,3.38-.61A5.44,5.44,0,0,0,91,134a20.12,20.12,0,0,0,2.7-.95l.49-.21a22.48,22.48,0,0,0,3.14-1.74l0,0a.27.27,0,0,0,.1-.06,3.62,3.62,0,0,0,.41-.27l0,0c.15-.11.31-.21.45-.33h0c.23-.17.46-.34.68-.53s.25-.2.37-.31a22.11,22.11,0,0,0,2.37-2.28A22.86,22.86,0,0,0,99.94,95c-.25-.23-.5-.44-.76-.65l-.34-.27c-.28-.22-.58-.44-.87-.65h0c-.48-.35-1-.67-1.48-1-.22-.14-.46-.28-.69-.4s-.58-.32-.87-.46-.57-.28-.86-.41L93.49,91c-.45-.19-.9-.36-1.35-.5l-.56-.19c-.51-.17-1-.31-1.52-.43l-.55-.12a22,22,0,0,0-3.5-.47l-.44,0a22.54,22.54,0,0,0-5.32.42,18,18,0,0,0-1.76.42c-.29.08-.58.16-.86.26l-.86.29s0,0,0,0a23,23,0,0,0-2.49,1.1,22.23,22.23,0,0,0-3.13,1.94l-.4-.36a23.39,23.39,0,0,1,31.38,34.37Z"/><path class="cls-2" d="M71.14,93.65a23,23,0,0,0-3.48,3.16,22.35,22.35,0,0,0-2.76,3.81l-.4-.35h0a23.11,23.11,0,0,1,6.24-7Z"/><path class="cls-3" d="M101.72,127.31A22.86,22.86,0,0,1,64.9,100.63h0a22.35,22.35,0,0,1,2.76-3.81,22.86,22.86,0,1,1,34.06,30.5Z"/><path class="cls-5" d="M101.72,127.31A22.86,22.86,0,0,1,64.9,100.63h0a22.35,22.35,0,0,1,2.76-3.81,22.86,22.86,0,1,1,34.06,30.5Z"/><path class="cls-6" d="M68.23,97.32A22.09,22.09,0,1,1,70,128.52,22.1,22.1,0,0,1,68.23,97.32Z"/><path class="cls-7" d="M68.62,97.67a21.57,21.57,0,1,1,1.69,30.46A21.56,21.56,0,0,1,68.62,97.67Z"/><path class="cls-8" d="M99.11,123.22a20,20,0,0,1-28.25,1.57c-.45-.4-.86-.81-1.26-1.23A19.46,19.46,0,0,0,72,126.19a19,19,0,0,0,31.2-10.13A19.78,19.78,0,0,1,99.11,123.22Z"/><path class="cls-9" d="M95.26,113.5A19,19,0,0,0,100.1,101a19.76,19.76,0,0,0-2.75-3.06,19,19,0,0,0-31.63,14A19.76,19.76,0,0,0,68.47,115,19,19,0,0,0,95.26,113.5Z"/><path class="cls-10" d="M65.77,110.78A22.83,22.83,0,0,1,97.49,98.06a1.85,1.85,0,0,0-.14-.14,19,19,0,0,0-31.58,12.86Z"/><path class="cls-11" d="M92.73,132.07a21.44,21.44,0,0,0,11.43-10.72c-.06.08-.11.17-.17.24-2.09,2.63-1.6,1.5-4.46,4.69C97.2,128.88,94.86,131.11,92.73,132.07Z"/><path class="cls-11" d="M72.64,128.59c-1.31-1.17-4.22-1.42-6.42-8.88s-2.94-5.76-2.28-8.83c.32-1.5-.11-2.92-.11-4.3a21.58,21.58,0,0,0,28.23,25.76,5.18,5.18,0,0,1-.73.18c-2.46.42-7.52,1.11-10.07-.13S73.94,129.76,72.64,128.59Z"/><path class="cls-11" d="M68.62,97.67a21.31,21.31,0,0,0-3.9,6.24,7,7,0,0,1,1.91-1.59c4.54-2.74,2.06-5.11,8.24-8.13,2.9-1.41,11.22-4,14.44-3.19s4.13,2.39,6.3,4.34,1.48,1.84,5.2,4.12a1.33,1.33,0,0,0,1.46.1,21.57,21.57,0,0,0-33.65-1.89Z"/><path class="cls-7" d="M66.9,100.32a.61.61,0,0,1,.87,0h0a.61.61,0,0,1,0,.87h0a.61.61,0,0,1-.87,0h0a.63.63,0,0,1,0-.87Z"/><path class="cls-7" d="M68.29,99.77a.33.33,0,0,1,.46,0h0a.31.31,0,0,1,0,.46h0a.33.33,0,0,1-.46,0h0a.33.33,0,0,1,0-.46Z"/><path class="cls-7" d="M69.15,98.61a.32.32,0,0,1,.46,0h0a.33.33,0,0,1,0,.46h0a.34.34,0,0,1-.46,0h0a.33.33,0,0,1,0-.46Z"/><path class="cls-7" d="M79.65,132.31a.32.32,0,0,1,.46,0h0a.33.33,0,0,1,0,.46h0a.33.33,0,0,1-.46,0h0a.33.33,0,0,1,0-.46Z"/><path class="cls-7" d="M65.39,120a.33.33,0,0,1,.46,0h0a.32.32,0,0,1,0,.45h0a.31.31,0,0,1-.45,0h0a.32.32,0,0,1,0-.46Z"/><path class="cls-7" d="M64.87,118a.33.33,0,0,1,.46,0h0a.32.32,0,0,1,0,.45h0a.32.32,0,0,1-.46,0h0a.33.33,0,0,1,0-.46Z"/><path class="cls-7" d="M97,96.1a.33.33,0,0,1,.46,0h0a.32.32,0,0,1,0,.45h0a.31.31,0,0,1-.45,0h0a.32.32,0,0,1,0-.46Z"/><path class="cls-7" d="M72.31,94.81a.33.33,0,0,1,.46,0h0a.32.32,0,0,1,0,.46h0a.32.32,0,0,1-.45,0h0a.32.32,0,0,1,0-.46Z"/><path class="cls-7" d="M76.7,92.64a.32.32,0,0,1,.46,0h0a.33.33,0,0,1,0,.46h0a.34.34,0,0,1-.46,0h0a.32.32,0,0,1,0-.46Z"/><path class="cls-7" d="M68.05,99.66a.1.1,0,0,1,.14,0h0a.11.11,0,0,1,0,.14h0a.1.1,0,0,1-.14,0h0a.09.09,0,0,1,0-.13Z"/><path class="cls-7" d="M72,95.48a.11.11,0,0,1,.14,0h0a.1.1,0,0,1,0,.14h0a.09.09,0,0,1-.13,0h0a.1.1,0,0,1,0-.14Z"/><path class="cls-7" d="M70.86,96.19a.1.1,0,0,1,.14,0h0a.11.11,0,0,1,0,.14h0a.1.1,0,0,1-.14,0h0a.09.09,0,0,1,0-.13Z"/><path class="cls-7" d="M78.28,131.69a.11.11,0,0,1,.14,0h0a.1.1,0,0,1,0,.14h0a.1.1,0,0,1-.14,0h0a.11.11,0,0,1,0-.14Z"/><path class="cls-7" d="M81.05,132.78a.11.11,0,0,1,.14,0h0a.11.11,0,0,1,0,.14h0a.1.1,0,0,1-.14,0h0a.11.11,0,0,1,0-.14Z"/><path class="cls-7" d="M75.05,130.72a.11.11,0,0,1,.14,0h0a.1.1,0,0,1,0,.14h0a.09.09,0,0,1-.13,0h0a.1.1,0,0,1,0-.14Z"/><path class="cls-7" d="M66.18,120.9a.09.09,0,0,1,.13,0h0a.1.1,0,0,1,0,.14h0a.11.11,0,0,1-.14,0h0a.11.11,0,0,1,0-.14Z"/><path class="cls-7" d="M65,120a.1.1,0,0,1,.14,0h0a.11.11,0,0,1,0,.14h0a.1.1,0,0,1-.14,0h0a.09.09,0,0,1,0-.13Z"/><path class="cls-7" d="M65.41,118.65a.1.1,0,0,1,.14,0h0a.1.1,0,0,1,0,.14h0a.09.09,0,0,1-.13,0h0a.09.09,0,0,1,0-.13Z"/><path class="cls-7" d="M64.41,117.23a.11.11,0,0,1,.14,0h0a.11.11,0,0,1,0,.14h0a.11.11,0,0,1-.14,0h0a.1.1,0,0,1,0-.14Z"/><path class="cls-7" d="M64.75,116.66a.09.09,0,0,1,.13,0h0a.09.09,0,0,1,0,.14h0a.09.09,0,0,1-.13,0h0a.09.09,0,0,1,0-.14Z"/><path class="cls-7" d="M64,116.08a.19.19,0,0,1,.26,0h0a.19.19,0,0,1,0,.26h0a.19.19,0,0,1-.26,0h0a.19.19,0,0,1,0-.26Z"/><path class="cls-7" d="M78.64,132.19a.19.19,0,0,1,.26,0h0a.19.19,0,0,1,0,.26h0a.19.19,0,0,1-.26,0h0a.19.19,0,0,1,0-.26Z"/><path class="cls-7" d="M74,130.1a.18.18,0,0,1,.26,0h0a.18.18,0,0,1,0,.25h0a.18.18,0,0,1-.26,0h0a.19.19,0,0,1,0-.26Z"/><path class="cls-7" d="M72.8,129.06a.18.18,0,0,1,.26,0h0a.17.17,0,0,1,0,.25h0a.17.17,0,0,1-.25,0h0a.19.19,0,0,1,0-.26Z"/><path class="cls-7" d="M65.92,121.94a.18.18,0,0,1,.26,0h0a.18.18,0,0,1,0,.25h0a.17.17,0,0,1-.25,0h0a.18.18,0,0,1,0-.26Z"/><path class="cls-7" d="M76,93.3a.09.09,0,0,1,.13,0h0a.09.09,0,0,1,0,.14h0a.09.09,0,0,1-.13,0h0a.09.09,0,0,1,0-.14Z"/><path class="cls-7" d="M77.73,92.22a.09.09,0,0,1,.13,0h0a.09.09,0,0,1,0,.14h0a.09.09,0,0,1-.13,0h0a.09.09,0,0,1,0-.14Z"/><path class="cls-7" d="M97.78,96.13a.1.1,0,0,1,.14,0h0a.11.11,0,0,1,0,.14h0a.1.1,0,0,1-.14,0h0a.09.09,0,0,1,0-.13Z"/><path class="cls-7" d="M96.29,95.41a.09.09,0,0,1,.13,0h0a.09.09,0,0,1,0,.14h0a.09.09,0,0,1-.13,0h0a.08.08,0,0,1,0-.13Z"/><path class="cls-7" d="M100.33,98.68a.1.1,0,0,1,.14,0h0a.1.1,0,0,1,0,.14h0a.1.1,0,0,1-.14,0h0a.09.09,0,0,1,0-.13Z"/><path class="cls-7" d="M97.61,96.85a.1.1,0,0,1,.14,0h0a.11.11,0,0,1,0,.14h0a.11.11,0,0,1-.14,0h0a.1.1,0,0,1,0-.14Z"/><path class="cls-10" d="M67.2,100.7a.22.22,0,0,1,.32,0h0a.23.23,0,0,1,0,.33h0a.23.23,0,0,1-.33,0h0a.22.22,0,0,1,0-.32Z"/><path class="cls-7" d="M98.2,96.69a.62.62,0,0,1,.87,0h0a.61.61,0,0,1,.05.87h0a.61.61,0,0,1-.87,0h0a.63.63,0,0,1,0-.87Z"/><path class="cls-10" d="M98.5,97.07a.23.23,0,0,1,.32,0h0a.23.23,0,0,1,0,.33h0a.25.25,0,0,1-.33,0h0a.24.24,0,0,1,0-.33Z"/><path class="cls-7" d="M76.8,131.12a.63.63,0,0,1,.87-.05h0a.64.64,0,0,1,0,.88h0a.62.62,0,0,1-.87,0h0a.61.61,0,0,1,0-.87Z"/><path class="cls-10" d="M77.09,131.5a.25.25,0,0,1,.33,0h0a.25.25,0,0,1,0,.33h0a.24.24,0,0,1-.33,0h0a.24.24,0,0,1,0-.33Z"/><path class="cls-7" d="M75.6,130.69a.45.45,0,0,1,.64,0h0a.46.46,0,0,1,0,.64h0a.46.46,0,0,1-.64,0h0a.46.46,0,0,1,0-.65Z"/><path class="cls-10" d="M75.82,131a.17.17,0,0,1,.24,0h0a.17.17,0,0,1,0,.24h0a.16.16,0,0,1-.24,0h0a.16.16,0,0,1,0-.24Z"/></g></g></svg>